<?xml version="1.0" encoding="utf-8"?>
<!-- Generator: Adobe Illustrator 18.1.1, SVG Export Plug-In . SVG Version: 6.00 Build 0)  -->
<svg version="1.1" id="レイヤー_1" xmlns="http://www.w3.org/2000/svg" xmlns:xlink="http://www.w3.org/1999/xlink" x="0px"
	 y="0px" viewBox="0 0 51.9 34.9" enable-background="new 0 0 51.9 34.9" xml:space="preserve">
<g>
	<path d="M32,20.4l-1,3.6c-0.2,0.6,0,0.8,0.3,1c0.2,0.1,0.3,0.1,0.3,0.3c0,0.3-0.3,0.3-0.5,0.3h-1.2c-0.2,0-0.6,0-0.6-0.3
		c0-0.2,0.2-0.2,0.4-0.4c0.2-0.1,0.5-0.4,0.7-1.1l1.2-4.6h0L32,20.4z M33.1,23.5h-1.5l0.1-0.6H33l-1.1-4.6l0.1-0.6h2.3l1.6,6.6
		c0.1,0.3,0.1,0.5,0.4,0.6c0.1,0.1,0.3,0.1,0.3,0.3c0,0.3-0.4,0.3-0.6,0.3h-2.6c-0.2,0-0.5,0-0.5-0.3c0-0.2,0.1-0.2,0.2-0.3
		c0.3-0.2,0.3-0.2,0.2-0.6L33.1,23.5z"/>
	<circle fill="#FFFFFF" cx="21" cy="14.1" r="12.3"/>
	<g>
		<path d="M38.1,22.4l-1.6-3.8c-0.1-0.2-0.1-0.3-0.3-0.4c-0.1-0.1-0.2-0.1-0.2-0.3c0-0.3,0.3-0.3,0.6-0.3h2.6c0.2,0,0.6,0,0.6,0.3
			c0,0.2-0.1,0.2-0.2,0.3c-0.1,0.1-0.2,0.1-0.2,0.3c0,0.1,0.1,0.3,0.1,0.4l1.3,3v2.5c0,0.4,0,0.5,0.4,0.6c0.1,0,0.2,0.1,0.2,0.3
			c0,0.3-0.4,0.3-0.4,0.3h-3c0,0-0.4,0-0.4-0.3c0-0.1,0.1-0.2,0.2-0.3c0.4-0.1,0.4-0.2,0.4-0.6V22.4z M40.6,20.5l0.6-1.2
			c0.1-0.2,0.2-0.4,0.2-0.6c0-0.6-0.7-0.4-0.7-0.8c0-0.4,0.4-0.3,0.7-0.3h1.2c0.2,0,0.5,0,0.5,0.3c0,0.2-0.1,0.3-0.3,0.3
			c-0.4,0.2-0.6,0.3-0.8,0.8l-1,2.3L40.6,20.5z"/>
		<path d="M43.9,17.6h2.7l1.1,3.3h0l0.5-1.8h0V21l-1.3,4.5h-0.3l-2.2-6.6c-0.1-0.2-0.1-0.3-0.2-0.5c-0.1-0.2-0.1-0.3-0.3-0.3
			c-0.1,0-0.4,0-0.4-0.3C43.4,17.6,43.8,17.6,43.9,17.6z M44.3,20.3L44.3,20.3l0.6,1.8v1.8c0.2,1.3,0.9,0.9,0.9,1.4
			c0,0.3-0.4,0.3-0.6,0.3H44c-0.1,0-0.6,0-0.6-0.3c0-0.5,0.7,0,0.8-1.4V20.3z M48.7,17.6h2.8c0,0,0.4,0,0.4,0.3
			c0,0.1-0.1,0.2-0.2,0.3c-0.4,0.1-0.4,0.2-0.4,0.6v5.6c0,0.4,0,0.5,0.4,0.6c0.1,0,0.2,0.1,0.2,0.3c0,0.3-0.4,0.3-0.4,0.3h-3
			c0,0-0.4,0-0.4-0.3c0-0.1,0.1-0.2,0.2-0.3c0.4-0.1,0.4-0.2,0.4-0.6V17.6z"/>
	</g>
	<g>
		<circle fill="none" stroke="#000000" stroke-width="1.4615" stroke-miterlimit="10" cx="20.8" cy="14.1" r="13.1"/>
		<polygon points="0,32.8 2.1,34.9 12.1,24 11.2,23.1 		"/>
	</g>
	<circle fill="none" stroke="#FFFFFF" stroke-width="0.5358" stroke-miterlimit="10" cx="21" cy="14.1" r="13.9"/>
	<g>
		<defs>
			<circle id="SVGID_1_" cx="21" cy="14.3" r="12.3"/>
		</defs>
		<clipPath id="SVGID_2_">
			<use xlink:href="#SVGID_1_"  overflow="visible"/>
		</clipPath>
		<path clip-path="url(#SVGID_2_)" d="M24.8,10.8l-3.4,10.3c-0.6,1.8-0.1,2.4,1.2,2.8c0.6,0.2,1.1,0.4,1.1,1c0,0.8-1.2,0.8-1.9,0.8
			h-4.2c-0.7,0-2,0-2-0.9c0-0.7,0.6-0.7,1.4-1c0.8-0.3,1.7-1,2.4-3.2l4.4-13.3h0.1L24.8,10.8z M28.7,19.9h-5.3l0.5-1.8h4.4L24.7,4.8
			l0.5-1.6h8c0,0,6.3,22.6,5.6,22.6h-9.1C29,25.8,28,25.7,28,25c0-0.5,0.2-0.6,0.7-0.8c0.9-0.5,1.1-0.7,0.8-1.8L28.7,19.9z"/>
	</g>
	<circle fill="none" stroke="#FFFFFF" stroke-width="0.5547" stroke-miterlimit="10" cx="21" cy="14.1" r="12.3"/>
</g>
</svg>
