<?xml version="1.0" encoding="utf-8"?>
<!-- Generator: Adobe Illustrator 18.1.1, SVG Export Plug-In . SVG Version: 6.00 Build 0)  -->
<svg version="1.1" id="レイヤー_1" xmlns="http://www.w3.org/2000/svg" xmlns:xlink="http://www.w3.org/1999/xlink" x="0px"
	 y="0px" viewBox="151.8 219.6 538.5 156.2" enable-background="new 151.8 219.6 538.5 156.2" xml:space="preserve">
<g>
	
		<rect x="151.9" y="219.7" fill="#FFFFFF" stroke="#000000" stroke-width="0.2835" stroke-miterlimit="10" width="258" height="155.9"/>
	<g>
		<rect x="367" y="356.6" width="14.8" height="4.8"/>
		<rect x="366.6" y="357.5" fill="#FFFFFF" width="2.3" height="3.9"/>
		<path fill="#FFFFFF" d="M375.7,358.5c-0.1-0.1-0.2-0.3-0.4-0.5c-0.2-0.2-0.5-0.3-0.6-0.4h-3h-2v3.8h2v-2.9H375.7L375.7,358.5z"/>
		<path fill="#FFFFFF" d="M375.3,360.1c0.3-0.2,0.4-0.5,0.4-0.6h-2.9v1h1.9C374.8,360.4,375.1,360.3,375.3,360.1z"/>
		<path fill="#FFFFFF" d="M376.8,358.5h0.5c0.1-0.2,0.2-0.8,0.7-1.2c0.5-0.5,1.1-0.7,1.4-0.7c-1.6,0-3.1,0-4.7,0
			c0.2,0,0.9,0.1,1.5,0.7C376.6,357.7,376.7,358.3,376.8,358.5z"/>
		<path fill="#FFFFFF" d="M377.2,359.4h-0.5c0,0.2-0.2,0.8-0.7,1.2c-0.6,0.6-1.3,0.7-1.5,0.7c1.6,0,3.1,0,4.7,0
			c-0.2,0-0.8-0.2-1.4-0.7C377.5,360.2,377.3,359.7,377.2,359.4z"/>
		<path fill="#FFFFFF" d="M379.4,357.5c-0.1,0-0.4,0.1-0.7,0.4c-0.3,0.2-0.4,0.5-0.5,0.6c0,0.1-0.1,0.2-0.1,0.4
			c0,0.2,0.1,0.6,0.1,0.6c0.3,0.6,0.9,1,1.6,0.9c0.6-0.1,1.1-0.4,1.3-1h-2.3v-1h3.3v-1h-2.7V357.5z"/>
		<path fill="#FFFFFF" d="M380,361.4h2v-2c0,0.2-0.2,0.8-0.7,1.3C380.9,361.2,380.3,361.3,380,361.4z"/>
	</g>
	<g>
		<path d="M183.8,294.3c0-0.1,0-0.1,0-0.1s0.1,0,0.3,0.1s0.3,0.2,0.4,0.3c0.1,0.1,0.2,0.2,0.1,0.3c0,0,0,0,0,0.1c0,0,0,0.1,0,0.2
			s-0.1,0.3-0.1,0.4c1.3-0.1,2.1-0.2,2.4-0.2c0.3,0,0.6-0.1,0.9-0.2h0.2c0.1,0,0.2,0.1,0.2,0.1c0.1,0.1,0.1,0.2,0.2,0.3
			c0.1,0.1,0.1,0.2,0,0.2h-0.1l-1.9,0.1l-2.1,0.1c-0.6,0-1.3,0.1-2,0.1s-1.2,0.1-1.5,0.1c-0.2,0-0.3,0-0.4-0.1
			c-0.1-0.1-0.2-0.2-0.3-0.3c-0.1-0.1-0.1-0.1-0.1-0.1s0.1,0,0.2,0h0.4c0.6,0,1.3-0.1,1.9-0.1s1-0.1,1.4-0.1c0-0.1,0-0.2,0-0.3
			c0-0.1,0-0.2,0-0.2C183.9,294.7,183.8,294.5,183.8,294.3C183.9,294.5,183.8,294.4,183.8,294.3z M181.7,303.4v0.7
			c0,0.4-0.1,0.5-0.2,0.3c-0.1-0.2-0.3-0.4-0.4-0.6c-0.1-0.1-0.1-0.2-0.1-0.3c0-0.1,0.1-0.3,0.1-0.5c0-0.2,0-0.6,0-1.1l-0.1-1.4
			c0-0.4-0.1-0.7-0.1-1c0,0,0-0.1,0.1-0.1s0.1,0,0.2,0.1c0.1,0.1,0.1,0.2,0.2,0.4c0.5,0,1.2,0,2.1-0.1l3.2-0.2
			c0.3,0,0.4-0.1,0.5-0.2s0.2-0.2,0.2-0.3c0.1-0.1,0.2-0.1,0.3,0s0.2,0.2,0.4,0.4c0.1,0.2,0.1,0.3,0,0.4s-0.2,0.5-0.3,1.4
			c-0.1,0.8-0.2,1.5-0.3,1.9c-0.1,0.4-0.2,0.8-0.3,1.2c-0.1,0.3-0.2,0.5-0.2,0.6c-0.1,0.1-0.1,0.1-0.1,0.1s-0.1-0.1-0.3-0.3
			c-0.2-0.2-0.4-0.6-0.7-0.9c-0.1-0.1-0.2-0.2-0.1-0.3c0,0,0.1,0,0.2,0l0.6,0.2c0.1,0,0.2,0,0.2,0l0.1-0.1l0.1-0.4
			c0-0.2,0.1-0.6,0.2-1.1c0.1-0.6,0.1-1.1,0.1-1.7c0-0.2-0.1-0.2-0.4-0.2c-1.1,0.1-2.2,0.1-3.3,0.2c-0.9,0-1.5,0.1-2,0.2
			c0,0.1,0,0.3,0,0.5c0,0.4,0.1,0.9,0.1,1.5C181.7,302.7,181.7,303.1,181.7,303.4z M185.4,296.9c0.1,0,0.2-0.1,0.3-0.1
			c0.1-0.1,0.1-0.1,0.2-0.2c0.1-0.1,0.2-0.1,0.3,0c0.1,0.1,0.2,0.2,0.3,0.3c0.1,0.1,0.1,0.2-0.1,0.4c-0.1,0.1-0.2,0.3-0.3,0.5
			c-0.1,0.3-0.1,0.5-0.2,0.7c0.1,0.1,0.1,0.1,0.2,0.2s0.1,0.2-0.1,0.2c-0.4,0-0.9,0-1.3,0.1c-0.5,0-0.9,0.1-1.2,0.1
			c-0.2,0-0.4,0-0.5,0c0,0.1,0,0.2,0,0.3c0,0.2-0.1,0.3-0.2,0.1c-0.1-0.1-0.2-0.4-0.4-0.7c0-0.1,0-0.1,0-0.2s0-0.2,0-0.5v-0.6
			c0-0.2,0-0.4-0.1-0.6c0-0.1,0-0.2,0.1-0.2c0,0,0.1,0,0.2,0.1c0,0.1,0.1,0.2,0.1,0.3c0.2,0,0.4,0,0.7,0c0.3,0,0.7-0.1,1-0.1
			C184.8,297,185.1,296.9,185.4,296.9z M185,300.8c0.1,0,0.2-0.1,0.3-0.2c0.1-0.1,0.1-0.2,0.2-0.2c0.1-0.1,0.2-0.1,0.3,0
			c0.1,0.1,0.2,0.2,0.3,0.3c0.1,0.1,0.1,0.2-0.1,0.4c-0.1,0.1-0.2,0.3-0.2,0.5c0,0.3-0.1,0.5-0.1,0.7c0.1,0.1,0.1,0.1,0.2,0.2
			c0.1,0.1,0.1,0.2-0.1,0.2l-1.1,0.1c-0.4,0-0.7,0.1-1.1,0.1c-0.1,0-0.3,0-0.4,0v0.4c0,0.2-0.1,0.3-0.1,0.1
			c-0.1-0.1-0.2-0.4-0.4-0.7c0-0.1,0-0.1,0-0.2s0-0.2,0-0.5v-0.6c0-0.2,0-0.4-0.1-0.6c0-0.1,0-0.2,0.1-0.2s0.1,0,0.2,0.1
			c0,0.1,0.1,0.2,0.1,0.3c0.1,0,0.3,0,0.5,0l0.8-0.1L185,300.8z M182.9,297.6v0.1c0,0.2,0,0.3,0,0.5c0,0.1,0,0.2,0,0.3
			c0.2,0,0.5,0,0.9,0l1.1-0.1c0.2,0,0.4-0.1,0.5-0.2c0-0.2,0.1-0.4,0.1-0.7c0-0.1-0.1-0.1-0.2-0.1l-1.8,0.1
			C183.4,297.6,183.1,297.6,182.9,297.6z M183.1,301.4v0.1c0,0.2,0,0.3,0,0.5c0,0.1,0,0.2,0,0.2c0.2,0,0.4,0,0.6,0h0.9
			c0.2,0,0.4-0.1,0.5-0.2c0-0.2,0.1-0.4,0.1-0.7c0-0.1-0.1-0.1-0.2-0.1l-1.4,0.1C183.5,301.4,183.3,301.4,183.1,301.4z"/>
		<path d="M193.4,303.9c0,0.2,0,0.4,0,0.6c0,0.1-0.1,0.2-0.1,0.1c-0.1-0.1-0.2-0.2-0.4-0.5c-0.2-0.3-0.2-0.5-0.2-0.6
			c0.1-0.1,0.1-0.4,0.2-0.8c0-0.4,0-0.9,0-1.5c0-0.6,0-1.4,0-2.2v-0.2c-0.3,0.5-0.5,0.9-0.8,1.3c-0.4,0.6-0.8,1-1,1.3H191
			c0,0,0-0.1,0-0.2c0.5-0.7,0.9-1.4,1.3-2.1c0.2-0.5,0.5-1,0.6-1.5c-0.2,0-0.3,0-0.5,0.1c-0.2,0-0.3,0-0.4,0c-0.2,0-0.4,0-0.5-0.1
			s-0.2-0.2-0.3-0.3c-0.1-0.1,0-0.1,0.1-0.1c0.3,0,0.5,0,0.8,0c0.2,0,0.4,0,0.6,0c0.1,0,0.1,0,0.2,0v-0.1v-1.2c0-0.3,0-0.5,0-0.8
			c0-0.1-0.1-0.2-0.1-0.4c-0.1-0.1-0.1-0.2,0-0.2c0,0,0.1,0,0.2,0s0.2,0.2,0.4,0.3c0.2,0.1,0.2,0.3,0.2,0.4
			c-0.1,0.3-0.1,0.6-0.1,0.8v1.1c0.2,0,0.4-0.1,0.5-0.1c0.1,0,0.2,0,0.3,0.1c0.1,0.1,0.2,0.2,0.3,0.3s0.1,0.2-0.2,0.2
			c-0.2,0-0.5,0-0.7,0c-0.1,0-0.1,0-0.2,0v0.2l0,0c0.1,0,0.1,0.1,0.3,0.1c0.1,0.1,0.2,0.1,0.4,0.2c0.1,0.1,0.1,0.2,0.1,0.4
			c0,0.2,0,0.4-0.1,0.5c0,0.1-0.1,0.1-0.2-0.1s-0.2-0.4-0.4-0.6c0-0.1-0.1-0.1-0.1-0.2v3.4L193.4,303.9z M197.9,296.8
			c0.1,0.1,0.2,0.3,0.4,0.5c0.3,0.3,0.5,0.6,0.7,0.8c0.3,0.3,0.7,0.6,1.1,0.7c0.1,0,0.1,0.1,0.2,0.1c0.1,0,0.2,0,0.3,0.1
			c0.1,0,0.1,0.1,0,0.2c-0.1,0.1-0.1,0.1-0.2,0.1c-0.3,0.1-0.6,0.1-0.8,0.2c-0.2,0-0.4,0-0.5-0.1c-0.3-0.4-0.6-0.9-1-1.4
			c0,0,0,0,0,0.1c-0.1,0.1-0.2,0.2-0.2,0.4c0,0.2-0.1,0.4-0.1,0.5c0.1,0.1,0.1,0.1,0.2,0.2c0.1,0.1,0.1,0.2-0.1,0.2
			c-0.3,0-0.5,0-0.8,0h-0.8c-0.1,0-0.2,0-0.2,0v0.1c0,0.2-0.1,0.2-0.1,0.1c-0.1-0.1-0.2-0.3-0.3-0.6v-0.1c0,0,0-0.2,0-0.3
			c0-0.1,0-0.2,0-0.4c-0.4,0.5-0.7,0.8-1,1.1c-0.3,0.3-0.5,0.4-0.6,0.5c-0.1,0-0.1,0-0.1,0v-0.1c0,0,0.1-0.1,0.1-0.2
			c0.1-0.2,0.4-0.4,0.7-0.8c0.3-0.4,0.6-0.8,0.9-1.3c0.1-0.2,0.2-0.4,0.3-0.6c-0.4,0-0.6,0.1-0.7,0.1s-0.2,0-0.4-0.1
			c-0.1-0.1-0.2-0.2-0.3-0.2c-0.1-0.1-0.1-0.1-0.1-0.1l0.1-0.1c0.4,0,0.9,0,1.4,0c0,0,0-0.1,0.1-0.2c0.1-0.3,0.1-0.6,0.2-0.8
			c-0.1,0-0.3,0.1-0.4,0.1c-0.4,0.1-0.8,0.1-1,0.2h-0.1c-0.1,0-0.1-0.1,0-0.1c0,0,0.1-0.1,0.2-0.1c0.3-0.1,0.5-0.1,0.8-0.2
			c0.3-0.1,0.6-0.2,0.9-0.3c0.3-0.1,0.6-0.2,0.8-0.3c0.2-0.1,0.4-0.2,0.5-0.3c0.1-0.1,0.2-0.1,0.4,0.1c0.2,0.2,0.3,0.3,0.4,0.4
			c0,0.1,0,0.2-0.1,0.2s-0.3,0.1-0.6,0.1c-0.2,0-0.6,0.1-0.9,0.2c-0.1,0-0.3,0.1-0.4,0.1l0,0c0.1,0.1,0.2,0.3,0.3,0.4
			c0.1,0.1,0.1,0.2,0,0.3c0,0-0.1,0.1-0.1,0.2l0.9-0.1c0.4,0,0.6-0.1,0.8-0.1s0.4-0.1,0.6-0.1c0.1,0,0.3,0,0.4,0.1
			c0.1,0.1,0.2,0.2,0.2,0.3c0,0.1,0,0.1,0,0.1h-0.1c-0.5,0-1,0.1-1.5,0.1C198.1,296.8,198,296.8,197.9,296.8z M195.2,303.5v0.6
			c0,0.4-0.1,0.4-0.2,0.2l-0.3-0.6c0-0.1-0.1-0.2,0-0.3c0-0.1,0-0.3,0.1-0.5c0-0.2,0-0.6,0-1l-0.1-1.3c0-0.4-0.1-0.7-0.1-0.9
			c0,0,0-0.1,0.1-0.1s0.1,0,0.2,0.1c0,0.1,0.1,0.2,0.1,0.3c0.3,0,0.7,0,1.2-0.1l1.9-0.1c0.2,0,0.4-0.1,0.5-0.2s0.1-0.2,0.2-0.3
			c0.1-0.1,0.2-0.1,0.3,0c0.1,0.1,0.2,0.2,0.3,0.3c0.1,0.1,0.1,0.3,0,0.4c-0.1,0.1-0.2,0.5-0.2,1.3L199,303c0,0.4-0.1,0.8-0.2,1.1
			c-0.1,0.3-0.1,0.5-0.2,0.5c0,0.1-0.1,0.1-0.1,0.1s-0.1-0.1-0.3-0.3c-0.2-0.2-0.4-0.5-0.8-0.9c-0.1-0.1-0.2-0.2-0.1-0.3
			c0,0,0.1,0,0.2,0c0.3,0.1,0.5,0.2,0.6,0.3c0.1,0,0.2,0,0.2,0s0,0,0.1-0.1c0-0.1,0.1-0.2,0.1-0.4s0.1-0.5,0.1-1c0-0.5,0-1,0-1.6
			c0-0.2-0.1-0.2-0.4-0.2c-0.7,0-1.4,0.1-2,0.1l-1.1,0.1c0,0.1,0,0.3,0,0.6l0.1,1.3C195.2,302.8,195.3,303.1,195.2,303.5z
			 M195.8,302.2c0-0.1,0-0.2,0-0.4c0-0.1,0-0.3,0-0.5c0-0.1,0-0.3,0-0.5c0-0.1,0-0.2,0-0.2s0.1,0,0.1,0.1s0.1,0.2,0.1,0.3
			c0,0,0.1,0,0.2,0c0.1,0,0.3,0,0.4,0s0.2,0,0.4,0c0.2,0,0.2-0.1,0.2-0.1c0.1-0.1,0.1-0.1,0.2-0.2c0.1-0.1,0.2-0.1,0.2,0
			c0.1,0.1,0.2,0.2,0.3,0.3c0.1,0.1,0.1,0.2,0,0.3c-0.1,0.1-0.2,0.3-0.2,0.4l-0.1,0.5c0.1,0.1,0.1,0.1,0.2,0.2
			c0.1,0.1,0.1,0.2-0.1,0.2c-0.2,0-0.5,0-0.7,0h-0.7c-0.1,0-0.2,0-0.2,0v0.1c0,0.2-0.1,0.2-0.1,0.1s-0.2-0.3-0.3-0.6
			C195.8,302.3,195.7,302.3,195.8,302.2z M195.9,297.8h0.2c0.2,0,0.4,0,0.6,0s0.4,0,0.5-0.1c0.1,0,0.2-0.1,0.2-0.1l0.2-0.2
			c0,0,0,0,0.1,0l-0.3-0.5c-0.4,0-0.7,0-0.9,0.1C196.4,297.2,196.2,297.5,195.9,297.8z M196,298.2c0,0.1,0,0.2,0,0.3
			c0,0.1,0,0.2,0,0.3v0.1h0.4c0.2,0,0.4,0,0.6,0c0.2,0,0.3-0.1,0.5-0.1l0.1-0.5c0-0.1-0.1-0.1-0.2-0.1c-0.4,0-0.7,0-1,0
			C196.2,298.2,196.1,298.2,196,298.2z M196.2,301.5L196.2,301.5c0,0.2,0,0.4,0,0.5c0,0.1,0,0.1,0,0.2h0.2c0.2,0,0.3,0,0.4,0
			c0.2,0,0.3-0.1,0.4-0.1v-0.5c0-0.1,0-0.1-0.2-0.1H196.2L196.2,301.5z"/>
		<path d="M210.3,301.6c-0.2,0.5-0.6,0.9-1,1.1c-0.4,0.3-0.9,0.6-1.4,0.7c-0.1,0-0.4,0.1-0.6,0.1c-0.1,0-0.2,0-0.2-0.1l0,0
			c0-0.2,0.5-0.3,0.6-0.4c0.2-0.1,0.5-0.2,0.7-0.4c0.3-0.2,0.5-0.3,0.7-0.5c0.4-0.4,0.6-0.8,0.7-1.3c0-0.1,0-0.2,0-0.3
			c0-0.4-0.1-0.8-0.3-1.1c-0.1-0.2-0.3-0.4-0.5-0.4c-0.2-0.1-0.4-0.1-0.6-0.1c-0.2,0.4-0.5,1-0.8,1.5c-0.3,0.5-0.8,1.2-1,1.6
			c0,0.2,0,0.4,0.1,0.6c0,0.1,0,0.2,0.1,0.3c0,0.1,0,0.1,0,0.2s0,0.1,0,0.1h-0.1c-0.1,0-0.3-0.1-0.4-0.1c-0.1-0.1-0.1-0.2-0.1-0.4
			c0-0.1,0-0.2,0-0.3c-0.2,0.2-0.3,0.3-0.6,0.4c-0.1,0.1-0.4,0.1-0.5,0.1s-0.3,0-0.4-0.1c-0.3-0.2-0.4-0.5-0.4-0.9
			c0-0.2,0-0.5,0.1-0.7c0.1-0.4,0.4-0.8,0.7-1.2c0.4-0.4,0.7-0.7,1.1-0.9c0-0.5,0-1,0.1-1.5c-0.1,0-0.3,0-0.4,0.1
			c-0.1,0-0.2,0-0.3,0l0,0c-0.1,0-0.3,0-0.4-0.2c-0.1-0.1-0.2-0.3-0.3-0.4c-0.1-0.1-0.1-0.2-0.1-0.3v-0.1c0,0,0,0,0.1,0
			c0.1,0,0.1,0.1,0.2,0.1c0.2,0.2,0.4,0.3,0.6,0.3l0,0c0.2,0,0.4,0,0.7-0.1c0-0.3,0-0.5,0.1-0.8c0-0.1,0-0.2,0-0.3
			c0-0.2,0-0.3,0-0.4s-0.1-0.2-0.1-0.4c0,0-0.1-0.1-0.1-0.2v-0.1c0,0,0,0,0.1,0s0.2,0.1,0.2,0.1c0.1,0.1,0.2,0.2,0.3,0.3
			c0.1,0.1,0.3,0.3,0.4,0.4l0,0c0,0.1-0.1,0.2-0.1,0.3c0,0.1-0.1,0.2-0.1,0.3c-0.1,0.3-0.1,0.4-0.1,0.7c0.4-0.1,0.7-0.2,1-0.4
			c0.1-0.1,0.3-0.2,0.4-0.2l0,0c0.1,0,0.2,0,0.3,0.1s0.3,0.2,0.3,0.3l0,0c0,0.1-0.1,0.1-0.2,0.2c-0.2,0.1-0.4,0.1-0.7,0.2
			c-0.4,0.1-0.8,0.2-1.1,0.3c-0.1,0.4-0.1,0.9-0.1,1.4c0.2-0.1,0.3-0.1,0.5-0.2c0.3-0.1,0.6-0.2,0.8-0.2c0-0.1,0-0.2,0-0.3l0,0
			c0-0.1,0-0.2,0-0.3c0-0.1,0-0.1,0-0.2s0-0.1,0.1-0.2l0,0c0.1,0,0.2,0.1,0.2,0.3c0.1,0.2,0.2,0.4,0.3,0.7c0.3,0,0.6,0.1,1,0.3
			c0.3,0.2,0.5,0.4,0.7,0.7c0.2,0.3,0.3,0.7,0.4,1c0,0.1,0,0.2,0,0.2C210.5,301,210.4,301.3,210.3,301.6z M205.2,300.3
			c-0.2,0.3-0.5,0.7-0.6,1.2c0,0.1,0,0.2,0,0.3c0,0.2,0.1,0.5,0.3,0.5l0,0c0.4,0,0.8-0.3,1-0.7c0-0.3,0-0.5,0-0.7c0-0.1,0-0.2,0-0.3
			c0,0,0,0,0-0.1l0,0c0-0.3,0-0.6,0-0.9C205.7,299.8,205.4,300.1,205.2,300.3z M207,299.1c-0.2,0.1-0.4,0.2-0.6,0.3c0,0.4,0,0.6,0,1
			c0,0.1,0,0.2,0,0.4c0,0.2,0,0.4,0,0.6c0.3-0.4,0.6-0.8,0.8-1.2c0.2-0.3,0.4-0.8,0.6-1.1C207.5,298.9,207.2,299,207,299.1z"/>
		<path d="M222.1,298.8c-0.2,0.7-0.9,1.1-1.5,1.1c-0.1,0-0.1,0-0.2,0c-0.5,0-1-0.1-1.4-0.4c-0.2-0.1-0.4-0.2-0.4-0.3v-0.1
			c0,0,0.1-0.1,0.2-0.1c0.1,0,0.2,0,0.3,0.1c0.4,0.1,0.7,0.2,1,0.2c0.2,0,0.3,0,0.5-0.1c0.3-0.1,0.6-0.3,0.8-0.8c0-0.1,0-0.2,0-0.3
			c0-0.3-0.2-0.6-0.4-0.7c-0.2-0.1-0.4-0.2-0.6-0.2c-0.4,0-0.8,0.2-1.2,0.4c-0.6,0.3-1.1,0.6-1.6,1c0.2,0.6,0.4,1.1,0.7,1.8
			c0.2,0.5,0.4,1,0.6,1.5c0,0.1,0.1,0.3,0.2,0.4c0.1,0.1,0.1,0.3,0.1,0.4v0.1c0,0.2-0.1,0.3-0.1,0.5c0,0.1-0.2,0.4-0.4,0.4l0,0
			c-0.1,0-0.2-0.3-0.2-0.5s-0.1-0.5-0.1-0.7c-0.2-0.7-0.2-0.9-0.5-1.6c-0.2-0.7-0.5-1.3-0.7-1.9c-0.2,0.2-0.4,0.3-0.5,0.4
			c-0.2,0.1-0.3,0.3-0.5,0.4c-0.1,0.1-0.2,0.1-0.2,0.2c-0.1,0.1-0.1,0.1-0.2,0.1l0,0c-0.1,0-0.3-0.1-0.4-0.2s-0.2-0.1-0.4-0.3
			c-0.1-0.1-0.2-0.2-0.2-0.3l0,0c0-0.1,0.1-0.1,0.2-0.1c0,0,0.1,0,0.2,0c0.1,0,0.2,0,0.3,0c0,0,0,0,0.1,0s0.4-0.2,0.6-0.3
			c0.3-0.2,0.7-0.5,1-0.7c-0.1-0.4-0.3-0.6-0.4-0.9c-0.1-0.1-0.2-0.3-0.2-0.4l0,0c0-0.1,0-0.2,0.1-0.3c0.2-0.3,0.4-0.5,0.8-0.5
			c0.1,0,0.3,0,0.4,0c0.2,0,0.4,0,0.6,0.1c0.2,0,0.4,0.1,0.5,0.1c-0.1-0.2-0.3-0.6-0.4-0.7c0-0.1-0.1-0.2-0.1-0.3v-0.1
			c0,0,0,0,0.1,0c0.1,0,0.2,0.1,0.3,0.2c0.2,0.2,0.4,0.4,0.6,0.6c0.1,0.1,0.3,0.2,0.4,0.4c0,0,0,0.1,0,0.2c0,0.2,0,0.4-0.1,0.6
			c0.3-0.1,0.7-0.2,0.9-0.2c0.1,0,0.1,0,0.2,0c0.4,0,0.8,0.1,1.2,0.4c0.3,0.3,0.5,0.6,0.5,1.1C222.1,298.5,222.1,298.6,222.1,298.8z
			 M218.8,297.2c-0.3-0.2-0.6-0.4-0.9-0.4c-0.1,0-0.3,0-0.4,0c-0.2,0-0.4,0-0.5,0.2v0.1c0,0.1,0.1,0.4,0.1,0.5
			c0.1,0.2,0.2,0.4,0.3,0.6c0.3-0.2,0.5-0.3,0.7-0.4c0.3-0.2,0.5-0.3,0.8-0.4C218.9,297.3,218.8,297.2,218.8,297.2z"/>
		<path d="M233.5,301.3C233.5,301.4,233.5,301.4,233.5,301.3c-0.1,0-0.2,0-0.2,0c-0.1,0-0.2-0.1-0.3-0.2c-0.4-0.2-0.8-0.5-1.1-0.6
			c-0.2,0.6-0.4,1.1-0.7,1.6c-0.2,0.4-0.5,0.8-0.9,1.2c-0.2,0.2-0.4,0.4-0.5,0.4c0,0,0,0-0.1,0c0,0,0,0,0-0.1s0.2-0.4,0.3-0.5
			c0.3-0.4,0.5-0.8,0.7-1.2c0.2-0.4,0.4-1,0.5-1.5c-0.4-0.1-0.7-0.3-1.1-0.3c-0.3,0-0.6-0.1-0.9-0.1c-0.1,0-0.1,0-0.2,0
			c-0.2,0.5-0.5,1.1-0.7,1.6c-0.1,0.3-0.4,0.6-0.6,0.7c-0.1,0-0.3,0.1-0.4,0.1c-0.2,0-0.3,0-0.5-0.1c-0.3-0.2-0.4-0.5-0.4-0.9
			c0-0.1,0-0.2,0.1-0.4c0.2-0.5,0.6-0.7,0.9-1c0.4-0.2,0.8-0.4,1.2-0.5c0.2-0.5,0.4-1.1,0.5-1.5c0.1-0.4,0.3-0.9,0.4-1.4
			c-0.2,0.1-0.6,0.1-0.8,0.3c-0.1,0-0.2,0.1-0.4,0.2c-0.1,0.1-0.2,0.2-0.3,0.2l0,0c-0.2,0-0.4-0.4-0.5-0.5s-0.1-0.2-0.2-0.4
			c0-0.1,0-0.1,0-0.2v-0.1h0.1c0.1,0,0.2,0.1,0.3,0.1c0.1,0.1,0.2,0.2,0.3,0.2l0,0c0.1,0,0.3-0.1,0.6-0.1c0.3-0.1,0.6-0.2,0.9-0.2
			c0.1,0,0.1-0.1,0.2-0.2c0-0.1,0.1-0.2,0.2-0.2l0,0c0.2,0,0.6,0.3,0.6,0.5l0,0c0,0.1-0.1,0.2-0.2,0.3c-0.1,0.1-0.2,0.2-0.3,0.5
			c-0.2,0.4-0.3,0.8-0.5,1.3c-0.1,0.4-0.3,0.9-0.4,1.2c0.4,0,0.6,0,1,0.1s0.7,0.1,1.1,0.2c0.1-0.3,0.1-0.6,0.2-0.8
			c0-0.2,0.1-0.4,0.1-0.6c0-0.1,0-0.3-0.1-0.4c0-0.1-0.1-0.2-0.1-0.2v-0.1v-0.1h0.1c0.1,0,0.2,0.1,0.3,0.2c0.1,0.1,0.2,0.2,0.3,0.3
			c0.1,0.1,0.2,0.2,0.2,0.2s0,0,0,0.1c0,0.1,0,0.1,0,0.2s-0.1,0.2-0.1,0.3c0,0.2-0.1,0.4-0.1,0.6s-0.1,0.4-0.1,0.7
			c0.2,0.1,0.5,0.2,0.7,0.3c0.2,0.1,0.4,0.2,0.5,0.2C233.3,300.8,233.4,300.9,233.5,301.3c-0.1,0-0.1,0.1-0.1,0.2
			C233.6,301.2,233.6,301.3,233.5,301.3z M227.6,300.4c-0.2,0.1-0.5,0.5-0.6,0.8v0.1c0,0.1,0.1,0.3,0.2,0.4c0,0,0.1,0,0.2,0
			c0.1,0,0.2-0.1,0.3-0.1c0.2-0.1,0.3-0.3,0.4-0.6c0.1-0.2,0.3-0.8,0.5-1.1C228.2,300,227.9,300.2,227.6,300.4z"/>
	</g>
	<path fill="none" stroke="#000000" stroke-width="0.3064" stroke-miterlimit="10" d="M181,315.3l2.4,2.4c0,0,0,0,0.1,0l2.8-2.8
		v-0.1h-5.7l0,0v4.1l0,0h5.8l0,0v-3.1"/>
	<g>
		<path d="M189.1,316.9c0-0.2,0-0.3,0.1-0.4s0.1-0.2,0.2-0.3c0.1-0.1,0.2-0.1,0.3-0.2c0.1,0,0.3-0.1,0.4-0.1c0.1,0,0.1,0,0.2,0
			c0.1,0,0.2,0,0.3,0s0.2,0,0.2,0c0.1,0,0.1,0,0.2,0c0.2,0,0.4,0,0.5,0c0,0,0,0,0,0.1c0,0,0,0,0,0.1c0,0,0,0,0,0.1c0,0,0,0,0,0.1
			c-0.1,0-0.2,0-0.3,0c-0.1,0-0.2,0-0.3,0l0,0c0.1,0.1,0.2,0.2,0.3,0.3c0.1,0.1,0.1,0.3,0.1,0.4c0,0.3-0.1,0.5-0.3,0.7
			c-0.2,0.2-0.4,0.2-0.8,0.2c-0.1,0-0.1,0-0.2,0c-0.1,0-0.1,0-0.2,0c-0.1,0-0.1,0-0.2,0.1s-0.1,0.1-0.1,0.2s0,0.2,0.1,0.2
			s0.1,0.1,0.3,0.1c0.1,0,0.2,0,0.3,0c0.1,0,0.2,0,0.3,0c0.2,0,0.3,0,0.4,0.1c0.1,0,0.2,0.1,0.3,0.2c0.1,0.1,0.1,0.1,0.2,0.2
			c0,0.1,0.1,0.2,0.1,0.3s0,0.3-0.1,0.4s-0.1,0.3-0.2,0.4s-0.2,0.2-0.4,0.3c-0.2,0.1-0.4,0.1-0.6,0.1c-0.4,0-0.7-0.1-0.9-0.2
			c-0.2-0.1-0.3-0.3-0.3-0.6c0-0.1,0-0.2,0.1-0.3c0-0.1,0.1-0.2,0.1-0.2s0.1-0.1,0.2-0.2c0.1,0,0.1-0.1,0.2-0.1l0,0
			c-0.1,0-0.2-0.1-0.3-0.2c-0.1-0.1-0.1-0.2-0.1-0.3c0-0.1,0-0.1,0-0.2s0.1-0.1,0.1-0.1l0.1-0.1c0,0,0.1,0,0.1-0.1l0,0
			c-0.2-0.1-0.3-0.2-0.4-0.3C189.2,317.3,189.1,317.1,189.1,316.9z M191.1,319.3c0-0.2-0.1-0.4-0.2-0.5c-0.1-0.1-0.4-0.1-0.7-0.1
			c-0.3,0-0.5,0-0.7,0.1c-0.2,0.1-0.2,0.3-0.2,0.5c0,0.1,0,0.2,0.1,0.3c0.1,0.1,0.1,0.2,0.2,0.2s0.2,0.1,0.3,0.1c0.1,0,0.2,0,0.3,0
			c0.1,0,0.2,0,0.3,0s0.2-0.1,0.3-0.1c0.1,0,0.2-0.1,0.2-0.2C191.1,319.5,191.1,319.4,191.1,319.3z M190.8,316.9
			c0-0.2-0.1-0.4-0.2-0.5s-0.3-0.2-0.4-0.2c-0.2,0-0.4,0.1-0.5,0.2s-0.2,0.3-0.2,0.6c0,0.2,0.1,0.4,0.2,0.6c0.1,0.2,0.3,0.2,0.5,0.2
			c0.1,0,0.2,0,0.3-0.1c0.1,0,0.1-0.1,0.2-0.2c0.1-0.1,0.1-0.2,0.1-0.3C190.8,317.1,190.8,317,190.8,316.9z"/>
		<path d="M194,318.2c0,0.1-0.1,0.1-0.1,0.2c-0.1,0.1-0.1,0.1-0.2,0.2c-0.1,0.1-0.2,0.1-0.3,0.1c-0.1,0-0.2,0.1-0.4,0.1
			c-0.1,0-0.3,0-0.4-0.1c-0.1,0-0.3-0.1-0.4-0.2c-0.1-0.1-0.2-0.3-0.3-0.4c-0.1-0.2-0.1-0.4-0.1-0.6c0-0.2,0-0.5,0.1-0.6
			s0.2-0.3,0.3-0.4s0.2-0.2,0.4-0.3c0.2-0.1,0.3-0.1,0.4-0.1c0.4,0,0.7,0.2,0.9,0.6l0,0V316c0-0.1,0-0.3,0-0.4c0-0.1,0-0.3,0-0.4
			s0-0.3,0-0.4c0-0.1,0-0.2,0-0.3h0.1h0.1h0.1h0.1c0,0.1,0,0.3,0,0.5s0,0.5,0,0.8c0,0.3,0,0.6,0,0.8c0,0.3,0,0.6,0,0.8
			c0,0.3,0,0.5,0,0.7s0,0.4,0,0.6c-0.1,0-0.1,0-0.2,0c-0.1,0-0.1,0-0.2,0L194,318.2L194,318.2z M192.4,317.4c0,0.2,0,0.4,0.1,0.6
			c0,0.1,0.1,0.3,0.2,0.4c0.1,0.1,0.2,0.1,0.3,0.2c0.1,0,0.2,0.1,0.3,0.1s0.3,0,0.4-0.1c0.1-0.1,0.2-0.2,0.3-0.3
			c0.1-0.1,0.1-0.3,0.2-0.4s0-0.3,0-0.5c0-0.4-0.1-0.6-0.2-0.8c-0.1-0.2-0.3-0.3-0.6-0.3c-0.1,0-0.3,0-0.4,0.1
			c-0.1,0.1-0.2,0.1-0.2,0.3c-0.1,0.1-0.1,0.2-0.1,0.4C192.4,317.1,192.4,317.2,192.4,317.4z"/>
		<path d="M195.6,315c0.2-0.1,0.4-0.1,0.6-0.1c0.1,0,0.3,0,0.4,0.1c0.1,0.1,0.2,0.1,0.3,0.2s0.2,0.2,0.2,0.3s0.1,0.3,0.1,0.5
			c0,0.1,0,0.2,0,0.4s-0.1,0.2-0.1,0.3c0,0.1-0.1,0.2-0.2,0.3s-0.2,0.2-0.3,0.3c-0.1,0.1-0.2,0.2-0.2,0.2c-0.1,0.1-0.2,0.2-0.3,0.3
			c-0.1,0.1-0.2,0.2-0.3,0.3c-0.1,0.1-0.2,0.2-0.2,0.3h0.5c0.3,0,0.5,0,0.7,0c0.2,0,0.4,0,0.6,0c0,0.1,0,0.2,0,0.2
			c0,0.1,0,0.1,0,0.2c-0.2,0-0.4,0-0.6,0c-0.2,0-0.4,0-0.6,0c-0.2,0-0.4,0-0.6,0c-0.2,0-0.4,0-0.6,0v-0.1c0.3-0.3,0.5-0.5,0.7-0.7
			c0.2-0.2,0.4-0.4,0.5-0.5c0.1-0.2,0.2-0.3,0.3-0.4s0.2-0.2,0.2-0.4c0-0.1,0.1-0.2,0.1-0.3c0-0.1,0-0.2,0-0.4
			c0-0.3-0.1-0.5-0.2-0.6c-0.1-0.1-0.3-0.2-0.4-0.2s-0.2,0-0.3,0.1c-0.1,0-0.2,0.1-0.2,0.2c-0.1,0.1-0.1,0.1-0.1,0.2
			c0,0.1-0.1,0.1-0.1,0.2l0,0l-0.2-0.3C195.3,315.3,195.5,315.1,195.6,315z"/>
		<path d="M199.8,316.9c-0.3,0.6-0.7,1.2-1,1.8c-0.1,0-0.1,0-0.2,0c-0.1,0-0.1,0-0.2,0c0.2-0.3,0.4-0.6,0.6-0.9
			c0.2-0.3,0.4-0.6,0.6-0.9c0.2-0.3,0.3-0.6,0.5-0.9c0.2-0.3,0.3-0.5,0.4-0.7c-0.2,0-0.4,0-0.8,0c-0.3,0-0.7,0-1.2,0.1
			c0-0.1,0-0.2,0-0.3c0-0.1,0-0.2,0-0.2c0.2,0,0.3,0,0.4,0s0.2,0,0.3,0s0.2,0,0.4,0s0.3,0,0.4,0h0.3c0.1,0,0.2,0,0.3,0s0.2,0,0.3,0
			v0.1C200.5,315.6,200.2,316.2,199.8,316.9z"/>
		<path d="M201.6,318.4c0-0.1,0-0.2,0.1-0.2c0.1-0.1,0.1-0.1,0.2-0.1s0.2,0,0.2,0.1c0.1,0.1,0.1,0.1,0.1,0.2c0,0.1,0,0.2-0.1,0.2
			c-0.1,0.1-0.1,0.1-0.2,0.1s-0.2,0-0.2-0.1C201.6,318.6,201.6,318.5,201.6,318.4z"/>
		<path d="M205.6,317.3c0,0.2,0,0.4-0.1,0.6s-0.2,0.3-0.3,0.5c-0.1,0.1-0.3,0.2-0.4,0.3c-0.2,0.1-0.3,0.1-0.5,0.1
			c-0.2,0-0.3,0-0.5-0.1c-0.2-0.1-0.3-0.2-0.3-0.3c-0.1,0.1-0.3,0.2-0.4,0.3H203c0-0.1,0-0.2,0-0.3c0-0.1,0-0.3,0-0.4s0-0.3,0-0.4
			c0-0.1,0-0.3,0-0.4v-1c0-0.1,0-0.3,0-0.4s0-0.3,0-0.4s0-0.3,0-0.4s0-0.2,0-0.3c0.1,0,0.2,0,0.3,0h0.1h0.1c0,0.1,0,0.2,0,0.4
			c0,0.2,0,0.3,0,0.5c0,0.2,0,0.4,0,0.6s0,0.4,0,0.6l0,0c0.1-0.2,0.3-0.4,0.4-0.4c0.2-0.1,0.3-0.1,0.5-0.1c0.2,0,0.4,0,0.5,0.1
			c0.1,0.1,0.3,0.2,0.4,0.3c0.1,0.1,0.2,0.3,0.2,0.4C205.6,316.9,205.6,317.1,205.6,317.3z M205.1,317.3c0-0.2,0-0.3-0.1-0.5
			c-0.1-0.2-0.1-0.2-0.2-0.3c-0.1-0.1-0.2-0.2-0.2-0.2c-0.1,0-0.2-0.1-0.3-0.1c-0.1,0-0.2,0-0.3,0.1c-0.1,0-0.2,0.1-0.3,0.2
			s-0.1,0.2-0.2,0.4c0,0.2-0.1,0.4-0.1,0.6c0,0.8,0.3,1.1,0.8,1.1c0.1,0,0.2,0,0.3-0.1c0.1-0.1,0.2-0.2,0.3-0.3
			c0.1-0.1,0.1-0.3,0.2-0.4C205.1,317.7,205.1,317.5,205.1,317.3z"/>
		<path d="M206.3,318.4c0-0.1,0-0.2,0.1-0.2c0.1-0.1,0.1-0.1,0.2-0.1c0.1,0,0.2,0,0.2,0.1c0.1,0.1,0.1,0.1,0.1,0.2
			c0,0.1,0,0.2-0.1,0.2c-0.1,0.1-0.1,0.1-0.2,0.1c-0.1,0-0.2,0-0.2-0.1C206.4,318.6,206.3,318.5,206.3,318.4z"/>
		<path d="M208.4,315.3c0,0.1,0,0.3,0,0.4c0,0.1,0,0.3,0,0.4c0,0,0.1,0,0.2,0s0.2,0,0.4,0c0,0,0,0,0,0.1v0.1v0.1c0,0,0,0,0,0.1
			c0,0-0.1,0-0.2,0c-0.1,0-0.1,0-0.2,0h-0.3c0,0,0,0.1,0,0.2c0,0.1,0,0.2,0,0.4s0,0.3,0,0.5c0,0.2,0,0.3,0,0.4s0,0.2,0,0.3
			c0,0.1,0,0.2,0.1,0.3c0,0.1,0.1,0.1,0.1,0.2s0.1,0.1,0.3,0.1h0.1c0.1,0,0.1,0,0.1,0v0.1c-0.1,0-0.1,0-0.2,0c-0.1,0-0.2,0-0.2,0
			c-0.2,0-0.4-0.1-0.5-0.2c-0.1-0.1-0.2-0.3-0.2-0.5c0-0.1,0-0.2,0-0.3s0-0.2,0-0.4c0-0.1,0-0.3,0-0.5s0-0.4,0-0.6h-0.2h-0.1h-0.1
			c0,0,0,0,0-0.1c0,0,0,0,0-0.1c0,0,0,0,0-0.1c0,0,0,0,0-0.1c0.2,0,0.3,0,0.4,0c0-0.1,0-0.2,0-0.3c0-0.1,0-0.2,0-0.4L208.4,315.3
			L208.4,315.3z"/>
		<path d="M209.5,316.3c0.2-0.1,0.3-0.2,0.5-0.3c0.1,0,0.3-0.1,0.4-0.1c0.1,0,0.3,0,0.4,0.1c0.1,0,0.2,0.1,0.3,0.2s0.1,0.2,0.2,0.3
			c0,0.1,0.1,0.2,0.1,0.3c0,0.2,0,0.4,0,0.6c0,0.2,0,0.4,0,0.7v0.1v0.1c0,0,0,0.1,0.1,0.1s0.1,0,0.1,0s0,0,0.1,0c0.1,0,0,0,0.1,0
			v0.1c0,0-0.1,0-0.2,0c-0.1,0-0.1,0-0.2,0c-0.1,0-0.2,0-0.3-0.1c-0.1-0.1-0.1-0.1-0.1-0.2c-0.1,0.1-0.3,0.2-0.4,0.3
			c-0.1,0.1-0.3,0.1-0.5,0.1c-0.1,0-0.2,0-0.3,0c-0.1,0-0.2-0.1-0.2-0.1c-0.1-0.1-0.1-0.1-0.2-0.2c-0.1-0.1-0.1-0.2-0.1-0.3
			c0-0.2,0.1-0.4,0.2-0.5c0.1-0.1,0.3-0.2,0.6-0.2c0.2,0,0.4-0.1,0.5-0.1s0.2,0,0.3-0.1s0.1-0.1,0.1-0.1v-0.1c0-0.1,0-0.2,0-0.3
			c0-0.1-0.1-0.2-0.1-0.2s-0.1-0.1-0.2-0.2c-0.1,0-0.2-0.1-0.3-0.1c-0.2,0-0.3,0-0.4,0.1c-0.1,0.1-0.2,0.2-0.3,0.3h-0.1v-0.2H209.5z
			 M210.9,317.3c-0.1,0-0.1,0-0.2,0.1c-0.1,0-0.2,0-0.3,0c-0.1,0-0.2,0-0.3,0.1c-0.1,0-0.2,0.1-0.2,0.1c-0.1,0-0.1,0.1-0.2,0.2
			c0,0.1-0.1,0.2-0.1,0.3c0,0.2,0.1,0.3,0.2,0.4c0.1,0.1,0.2,0.1,0.3,0.1s0.3,0,0.4-0.1c0.1-0.1,0.2-0.2,0.3-0.3L210.9,317.3z"/>
		<path d="M212.3,315.6c0-0.2,0-0.3,0-0.4s0-0.3,0-0.4c0-0.1,0-0.2,0-0.3c0.1,0,0.2,0,0.3,0c0.1,0,0.1,0,0.3,0c0,0.1,0,0.2,0,0.3
			c0,0.1,0,0.3,0,0.4s0,0.3,0,0.4c0,0.1,0,0.3,0,0.4v1c0,0.1,0,0.1,0.1,0.1h0.1l0.1-0.1c0,0,0.1-0.1,0.2-0.2s0.2-0.2,0.3-0.3
			c0.1-0.1,0.2-0.2,0.3-0.3c0.1-0.1,0.2-0.2,0.3-0.3c0.1,0,0.1,0,0.2,0h0.1c0,0,0.1,0,0.2,0c-0.2,0.2-0.5,0.4-0.7,0.6
			c-0.2,0.2-0.4,0.4-0.6,0.6c0.2,0.3,0.4,0.5,0.7,0.8c0.2,0.3,0.5,0.5,0.7,0.8c-0.1,0-0.1,0-0.2,0c-0.1,0-0.1,0-0.1,0h-0.1
			c0,0-0.1,0-0.2,0c-0.1-0.1-0.2-0.2-0.3-0.3c-0.1-0.1-0.2-0.3-0.3-0.4s-0.2-0.2-0.3-0.4c-0.1-0.1-0.2-0.2-0.2-0.3l0,0l0,0
			c0,0-0.1,0-0.1,0.1v0.3c0,0.2,0,0.3,0,0.5s0,0.3,0,0.5c-0.1,0-0.2,0-0.3,0s-0.2,0-0.3,0c0-0.1,0-0.2,0-0.3c0-0.1,0-0.3,0-0.4
			s0-0.3,0-0.4c0-0.2,0-0.3,0-0.4v-1C212.3,315.9,212.3,315.8,212.3,315.6z"/>
		<path d="M215.2,316.3c0.2-0.1,0.3-0.2,0.5-0.3c0.1,0,0.3-0.1,0.4-0.1c0.1,0,0.3,0,0.4,0.1c0.1,0,0.2,0.1,0.3,0.2s0.1,0.2,0.2,0.3
			c0,0.1,0.1,0.2,0.1,0.3c0,0.2,0,0.4,0,0.6c0,0.2,0,0.4,0,0.7v0.1v0.1c0,0,0,0.1,0.1,0.1c0.1,0,0.1,0,0.1,0s0,0,0.1,0s0,0,0.1,0
			v0.1c0,0-0.1,0-0.2,0c-0.1,0-0.1,0-0.2,0c-0.1,0-0.2,0-0.3-0.1c-0.1-0.1-0.1-0.1-0.1-0.2c-0.1,0.1-0.3,0.2-0.4,0.3
			c-0.1,0.1-0.3,0.1-0.5,0.1c-0.1,0-0.2,0-0.3,0s-0.2-0.1-0.2-0.1c-0.1-0.1-0.1-0.1-0.2-0.2s-0.1-0.2-0.1-0.3c0-0.2,0.1-0.4,0.2-0.5
			c0.1-0.1,0.3-0.2,0.6-0.2c0.2,0,0.4-0.1,0.5-0.1c0.1,0,0.2,0,0.3-0.1c0.1-0.1,0.1-0.1,0.1-0.1v-0.1c0-0.1,0-0.2,0-0.3
			c0-0.1-0.1-0.2-0.1-0.2s-0.1-0.1-0.2-0.2c-0.1,0-0.2-0.1-0.3-0.1c-0.2,0-0.3,0-0.4,0.1c-0.1,0.1-0.2,0.2-0.3,0.3h-0.1v-0.2H215.2z
			 M216.6,317.3c-0.1,0-0.1,0-0.2,0.1c-0.1,0-0.2,0-0.3,0s-0.2,0-0.3,0.1c-0.1,0-0.2,0.1-0.2,0.1c-0.1,0-0.1,0.1-0.2,0.2
			c0,0.1-0.1,0.2-0.1,0.3c0,0.2,0.1,0.3,0.2,0.4c0.1,0.1,0.2,0.1,0.3,0.1c0.1,0,0.3,0,0.4-0.1c0.1-0.1,0.2-0.2,0.3-0.3L216.6,317.3z
			"/>
		<path d="M218,315.6c0-0.2,0-0.3,0-0.4s0-0.3,0-0.4c0-0.1,0-0.2,0-0.3c0.1,0,0.2,0,0.3,0s0.1,0,0.3,0c0,0.1,0,0.2,0,0.3
			c0,0.1,0,0.3,0,0.4s0,0.3,0,0.4c0,0.1,0,0.3,0,0.4v0.4l0,0c0.1-0.2,0.2-0.3,0.4-0.4c0.2-0.1,0.3-0.1,0.5-0.1c0.1,0,0.2,0,0.3,0
			c0.1,0,0.2,0.1,0.3,0.2s0.2,0.2,0.2,0.3c0.1,0.1,0.1,0.3,0.1,0.5s0,0.3,0,0.5c0,0.2,0,0.4,0,0.5v0.4c0,0.1,0,0.1,0,0.2
			c0,0.1,0,0.1,0,0.2c-0.1,0-0.2,0-0.2,0c-0.1,0-0.2,0-0.2,0c0-0.2,0-0.4,0-0.6s0-0.4,0-0.6v-0.3c0-0.3-0.1-0.5-0.2-0.6
			c-0.1-0.1-0.3-0.2-0.5-0.2c-0.3,0-0.5,0.1-0.6,0.2c-0.1,0.2-0.2,0.4-0.2,0.7c0,0.1,0,0.2,0,0.4c0,0.1,0,0.3,0,0.4s0,0.3,0,0.4
			c0,0.1,0,0.2,0,0.3c-0.1,0-0.2,0-0.3,0s-0.2,0-0.3,0c0-0.1,0-0.2,0-0.3s0-0.3,0-0.4s0-0.3,0-0.4c0-0.2,0-0.3,0-0.4v-1
			C218,315.9,218,315.8,218,315.6z"/>
		<path d="M221.2,316.3c0.2-0.1,0.3-0.2,0.5-0.3c0.1,0,0.3-0.1,0.4-0.1s0.3,0,0.4,0.1c0.1,0,0.2,0.1,0.3,0.2s0.1,0.2,0.2,0.3
			c0,0.1,0.1,0.2,0.1,0.3c0,0.2,0,0.4,0,0.6c0,0.2,0,0.4,0,0.7v0.1v0.1c0,0,0,0.1,0.1,0.1s0.1,0,0.1,0s0,0,0.1,0s0,0,0.1,0v0.1
			c0,0-0.1,0-0.2,0c-0.1,0-0.1,0-0.2,0s-0.2,0-0.3-0.1c-0.1-0.1-0.1-0.1-0.1-0.2c-0.1,0.1-0.3,0.2-0.4,0.3c-0.1,0.1-0.3,0.1-0.5,0.1
			c-0.1,0-0.2,0-0.3,0s-0.2-0.1-0.2-0.1c-0.1-0.1-0.1-0.1-0.2-0.2s-0.1-0.2-0.1-0.3c0-0.2,0.1-0.4,0.2-0.5c0.1-0.1,0.3-0.2,0.6-0.2
			c0.2,0,0.4-0.1,0.5-0.1s0.2,0,0.3-0.1c0.1-0.1,0.1-0.1,0.1-0.1v-0.1c0-0.1,0-0.2,0-0.3c0-0.1-0.1-0.2-0.1-0.2s-0.1-0.1-0.2-0.2
			c-0.1,0-0.2-0.1-0.3-0.1c-0.2,0-0.3,0-0.4,0.1s-0.2,0.2-0.3,0.3h-0.1v-0.2H221.2z M222.6,317.3c-0.1,0-0.1,0-0.2,0.1
			c-0.1,0-0.2,0-0.3,0c-0.1,0-0.2,0-0.3,0.1c-0.1,0-0.2,0.1-0.2,0.1c-0.1,0-0.1,0.1-0.2,0.2c0,0.1-0.1,0.2-0.1,0.3
			c0,0.2,0.1,0.3,0.2,0.4c0.1,0.1,0.2,0.1,0.3,0.1s0.3,0,0.4-0.1c0.1-0.1,0.2-0.2,0.3-0.3L222.6,317.3z"/>
		<path d="M224,318.3l0.1,0.1c0.1,0,0.1,0.1,0.2,0.1c0.1,0,0.1,0,0.2,0c0.1,0,0.1,0,0.2,0c0.1,0,0.1-0.1,0.2-0.1
			c0.1,0,0.1-0.1,0.1-0.2s0-0.1,0-0.2s0-0.2-0.1-0.3c-0.1-0.1-0.1-0.1-0.2-0.2c-0.1,0-0.2-0.1-0.3-0.1c-0.1,0-0.2-0.1-0.3-0.1
			c-0.1-0.1-0.2-0.1-0.2-0.2c-0.1-0.1-0.1-0.2-0.1-0.4c0-0.1,0-0.2,0.1-0.3c0-0.1,0.1-0.2,0.2-0.3c0.1-0.1,0.2-0.1,0.3-0.2
			c0.1,0,0.3-0.1,0.4-0.1s0.3,0,0.4,0.1c0.1,0,0.2,0.1,0.3,0.1c0,0.1-0.1,0.1-0.1,0.2s0,0.1-0.1,0.2h-0.1c0-0.1-0.1-0.2-0.2-0.2
			c-0.1-0.1-0.2-0.1-0.3-0.1s-0.1,0-0.2,0s-0.1,0-0.2,0.1l-0.1,0.1c0,0,0,0.1,0,0.2s0,0.2,0.1,0.3c0.1,0.1,0.1,0.1,0.2,0.2
			c0.1,0,0.2,0.1,0.3,0.1c0.1,0,0.2,0.1,0.3,0.1s0.2,0.1,0.2,0.2c0.1,0.1,0.1,0.2,0.1,0.4c0,0.1,0,0.2-0.1,0.3
			c-0.1,0.1-0.1,0.2-0.2,0.3c-0.1,0.1-0.2,0.2-0.3,0.2c-0.1,0-0.3,0.1-0.4,0.1c-0.2,0-0.3,0-0.4-0.1c-0.1,0-0.2-0.1-0.3-0.1
			c0,0,0-0.1,0.1-0.2c0-0.1,0-0.2,0-0.2h0.1C223.9,318.2,224,318.3,224,318.3z"/>
		<path d="M226.2,315.6c0-0.2,0-0.3,0-0.4s0-0.3,0-0.4c0-0.1,0-0.2,0-0.3c0.1,0,0.2,0,0.3,0s0.1,0,0.3,0c0,0.1,0,0.2,0,0.3
			c0,0.1,0,0.3,0,0.4s0,0.3,0,0.4c0,0.1,0,0.3,0,0.4v0.4l0,0c0.1-0.2,0.2-0.3,0.4-0.4c0.2-0.1,0.3-0.1,0.5-0.1c0.1,0,0.2,0,0.3,0
			c0.1,0,0.2,0.1,0.3,0.2s0.2,0.2,0.2,0.3c0.1,0.1,0.1,0.3,0.1,0.5s0,0.3,0,0.5c0,0.2,0,0.4,0,0.5v0.4c0,0.1,0,0.1,0,0.2
			c0,0.1,0,0.1,0,0.2c-0.1,0-0.2,0-0.2,0c-0.1,0-0.2,0-0.2,0c0-0.2,0-0.4,0-0.6s0-0.4,0-0.6v-0.3c0-0.3-0.1-0.5-0.2-0.6
			c-0.1-0.1-0.3-0.2-0.5-0.2c-0.3,0-0.5,0.1-0.6,0.2c-0.1,0.2-0.2,0.4-0.2,0.7c0,0.1,0,0.2,0,0.4c0,0.1,0,0.3,0,0.4s0,0.3,0,0.4
			c0,0.1,0,0.2,0,0.3c-0.1,0-0.2,0-0.3,0s-0.2,0-0.3,0c0-0.1,0-0.2,0-0.3s0-0.3,0-0.4s0-0.3,0-0.4c0-0.2,0-0.3,0-0.4v-1
			C226.2,315.9,226.2,315.8,226.2,315.6z"/>
		<path d="M229.4,315c0-0.1,0-0.1,0.1-0.2c0.1-0.1,0.1-0.1,0.2-0.1c0.1,0,0.1,0,0.2,0.1c0.1,0.1,0.1,0.1,0.1,0.2s0,0.1-0.1,0.2
			c-0.1,0.1-0.1,0.1-0.2,0.1c-0.1,0-0.1,0-0.2-0.1C229.4,315.1,229.4,315.1,229.4,315z M229.4,317.1c0-0.2,0-0.3,0-0.5
			c0-0.2,0-0.4,0-0.5c0.1,0,0.2,0,0.3,0s0.1,0,0.3,0c0,0.2,0,0.3,0,0.5c0,0.2,0,0.4,0,0.5v0.6c0,0.2,0,0.3,0,0.5s0,0.4,0,0.5
			c-0.1,0-0.2,0-0.3,0s-0.2,0-0.3,0c0-0.2,0-0.3,0-0.5s0-0.4,0-0.5V317.1z"/>
		<path d="M233.6,315.7c-0.1,0.4-0.1,0.6-0.2,0.8c-0.1,0.2-0.1,0.4-0.1,0.5s0,0.2,0,0.2v0.1c0,0.1,0,0.1,0.1,0.1l0.1,0.1
			c0.1,0,0.2,0,0.2-0.1s0.2-0.1,0.2-0.2c0.1-0.1,0.1-0.2,0.2-0.3c0-0.1,0.1-0.3,0.1-0.4c0-0.2,0-0.4-0.1-0.5c0-0.2-0.1-0.3-0.2-0.4
			c-0.1-0.1-0.2-0.2-0.4-0.3c-0.2-0.1-0.4-0.1-0.7-0.1c-0.2,0-0.4,0-0.6,0.1c-0.2,0.1-0.4,0.2-0.5,0.4c-0.1,0.2-0.2,0.3-0.3,0.6
			c-0.1,0.2-0.1,0.5-0.1,0.7s0,0.4,0.1,0.6c0.1,0.2,0.2,0.3,0.3,0.4c0.1,0.1,0.3,0.2,0.4,0.3c0.2,0.1,0.4,0.1,0.6,0.1
			c0.1,0,0.3,0,0.4,0c0.1,0,0.2-0.1,0.3-0.1s0.2-0.1,0.3-0.2s0.2-0.1,0.2-0.2v0.2c0,0-0.1,0.1-0.2,0.2s-0.2,0.1-0.3,0.2
			c-0.1,0.1-0.3,0.1-0.4,0.1c-0.2,0-0.3,0.1-0.5,0.1c-0.2,0-0.4,0-0.6-0.1c-0.2-0.1-0.4-0.2-0.5-0.3s-0.3-0.3-0.4-0.5
			c-0.1-0.2-0.2-0.5-0.2-0.8c0-0.2,0-0.4,0.1-0.7c0.1-0.2,0.2-0.4,0.4-0.6c0.2-0.2,0.4-0.3,0.6-0.4s0.5-0.2,0.8-0.2
			c0.3,0,0.6,0,0.8,0.1c0.2,0.1,0.4,0.2,0.5,0.3c0.1,0.1,0.2,0.3,0.3,0.4c0.1,0.2,0.1,0.3,0.1,0.5s0,0.4-0.1,0.6s-0.2,0.3-0.3,0.4
			c-0.1,0.1-0.2,0.2-0.4,0.3c-0.1,0.1-0.3,0.1-0.4,0.1c-0.2,0-0.3,0-0.3-0.1s-0.1-0.2-0.1-0.3l0,0l-0.1,0.1l-0.1,0.1
			c-0.1,0-0.1,0.1-0.2,0.1c-0.1,0-0.1,0-0.2,0c-0.4,0-0.6-0.3-0.6-0.8c0-0.2,0-0.4,0.1-0.5c0.1-0.2,0.1-0.3,0.2-0.4
			c0.1-0.1,0.2-0.2,0.3-0.3c0.1-0.1,0.3-0.1,0.4-0.1s0.2,0,0.3,0.1c0.1,0.1,0.1,0.1,0.1,0.3l0,0l0.1-0.3L233.6,315.7L233.6,315.7z
			 M233.1,316.3c0-0.1,0-0.2-0.1-0.3c0-0.1-0.1-0.1-0.3-0.1c-0.1,0-0.2,0-0.3,0.1s-0.2,0.2-0.2,0.3c-0.1,0.1-0.1,0.2-0.1,0.4
			c0,0.1,0,0.3,0,0.4c0,0.2,0,0.3,0.1,0.4c0.1,0.1,0.1,0.1,0.3,0.1c0.1,0,0.2,0,0.3-0.1c0.1-0.1,0.2-0.2,0.2-0.3s0.1-0.3,0.1-0.4
			S233.1,316.4,233.1,316.3z"/>
		<path d="M235.3,316.9c0-0.2,0-0.3,0.1-0.4c0.1-0.1,0.1-0.2,0.2-0.3c0.1-0.1,0.2-0.1,0.3-0.2c0.1,0,0.3-0.1,0.4-0.1
			c0.1,0,0.1,0,0.2,0c0.1,0,0.2,0,0.3,0c0.1,0,0.2,0,0.2,0c0.1,0,0.1,0,0.2,0c0.2,0,0.4,0,0.5,0c0,0,0,0,0,0.1c0,0,0,0,0,0.1
			c0,0,0,0,0,0.1c0,0,0,0,0,0.1c-0.1,0-0.2,0-0.3,0s-0.2,0-0.3,0l0,0c0.1,0.1,0.2,0.2,0.3,0.3s0.1,0.3,0.1,0.4
			c0,0.3-0.1,0.5-0.3,0.7c-0.2,0.2-0.4,0.2-0.8,0.2c-0.1,0-0.1,0-0.2,0c-0.1,0-0.1,0-0.2,0c-0.1,0-0.1,0-0.2,0.1
			c-0.1,0.1-0.1,0.1-0.1,0.2s0,0.2,0.1,0.2c0.1,0,0.1,0.1,0.3,0.1c0.1,0,0.2,0,0.3,0s0.2,0,0.3,0c0.2,0,0.3,0,0.4,0.1
			c0.1,0,0.2,0.1,0.3,0.2s0.1,0.1,0.2,0.2c0,0.1,0.1,0.2,0.1,0.3s0,0.3-0.1,0.4c-0.1,0.1-0.1,0.3-0.2,0.4c-0.1,0.1-0.2,0.2-0.4,0.3
			c-0.2,0.1-0.4,0.1-0.6,0.1c-0.4,0-0.7-0.1-0.9-0.2c-0.2-0.1-0.3-0.3-0.3-0.6c0-0.1,0-0.2,0.1-0.3c0-0.1,0.1-0.2,0.1-0.2
			s0.1-0.1,0.2-0.2c0.1,0,0.1-0.1,0.2-0.1l0,0c-0.1,0-0.2-0.1-0.3-0.2s-0.1-0.2-0.1-0.3c0-0.1,0-0.1,0-0.2s0.1-0.1,0.1-0.1l0.1-0.1
			c0,0,0.1,0,0.1-0.1l0,0c-0.2-0.1-0.3-0.2-0.4-0.3C235.3,317.3,235.3,317.1,235.3,316.9z M237.3,319.3c0-0.2-0.1-0.4-0.2-0.5
			c-0.1-0.1-0.4-0.1-0.7-0.1c-0.3,0-0.5,0-0.7,0.1c-0.2,0.1-0.2,0.3-0.2,0.5c0,0.1,0,0.2,0.1,0.3s0.1,0.2,0.2,0.2
			c0.1,0,0.2,0.1,0.3,0.1s0.2,0,0.3,0s0.2,0,0.3,0c0.1,0,0.2-0.1,0.3-0.1s0.2-0.1,0.2-0.2C237.3,319.5,237.3,319.4,237.3,319.3z
			 M237,316.9c0-0.2-0.1-0.4-0.2-0.5c-0.1-0.1-0.3-0.2-0.4-0.2c-0.2,0-0.4,0.1-0.5,0.2c-0.1,0.1-0.2,0.3-0.2,0.6
			c0,0.2,0.1,0.4,0.2,0.6c0.1,0.2,0.3,0.2,0.5,0.2c0.1,0,0.2,0,0.3-0.1c0.1,0,0.1-0.1,0.2-0.2c0.1-0.1,0.1-0.2,0.1-0.3
			C237,317.1,237,317,237,316.9z"/>
		<path d="M238.2,316.5c0-0.2,0-0.4,0-0.5c0.1,0,0.2,0,0.3,0h0.1h0.1c0,0.2,0,0.3,0,0.5l0,0c0.2-0.3,0.5-0.5,0.8-0.5
			c0.1,0,0.2,0,0.3,0s0.2,0.1,0.2,0.1s0.1,0.1,0.2,0.2c0.1,0.1,0.1,0.1,0.1,0.2l0,0c0.1-0.2,0.2-0.3,0.4-0.4
			c0.2-0.1,0.3-0.1,0.5-0.1c0.1,0,0.2,0,0.3,0.1c0.1,0,0.2,0.1,0.3,0.2c0.1,0.1,0.1,0.2,0.2,0.3c0,0.1,0.1,0.2,0.1,0.4
			c0,0.1,0,0.1,0,0.2s0,0.2,0,0.3s0,0.2,0,0.3c0,0.1,0,0.3,0,0.4s0,0.2,0,0.3c0,0.1,0,0.2,0,0.3H242h-0.1h-0.1h-0.1
			c0-0.1,0-0.3,0-0.6s0-0.7,0-1.2c0-0.1,0-0.2,0-0.3s-0.1-0.2-0.1-0.2s-0.1-0.1-0.2-0.1c-0.1,0-0.2-0.1-0.3-0.1s-0.3,0-0.3,0.1
			c-0.1,0.1-0.2,0.1-0.2,0.2l-0.1,0.1c0,0,0,0.1,0,0.2s0,0.2,0,0.4c0,0.2,0,0.4,0,0.6s0,0.3,0,0.4s0,0.3,0,0.4c-0.1,0-0.2,0-0.2,0
			c-0.1,0-0.2,0-0.2,0c0-0.2,0-0.4,0-0.6s0-0.4,0-0.6c0-0.2,0-0.3,0-0.4s0-0.2,0-0.2c0-0.1,0-0.1,0-0.1s0-0.1-0.1-0.1
			c0-0.1-0.1-0.1-0.2-0.2c-0.1-0.1-0.2-0.1-0.3-0.1c-0.2,0-0.4,0.1-0.5,0.2c-0.1,0.2-0.2,0.4-0.2,0.7v0.5c0,0.2,0,0.3,0,0.5
			c0,0.2,0,0.4,0,0.5c-0.1,0-0.2,0-0.3,0c-0.1,0-0.2,0-0.3,0c0-0.2,0-0.3,0-0.5c0-0.2,0-0.4,0-0.5v-0.6
			C238.3,316.9,238.3,316.7,238.2,316.5z"/>
		<path d="M243,316.3c0.2-0.1,0.3-0.2,0.5-0.3c0.1,0,0.3-0.1,0.4-0.1c0.1,0,0.3,0,0.4,0.1c0.1,0,0.2,0.1,0.3,0.2s0.1,0.2,0.2,0.3
			c0,0.1,0.1,0.2,0.1,0.3c0,0.2,0,0.4,0,0.6c0,0.2,0,0.4,0,0.7v0.1v0.1c0,0,0,0.1,0.1,0.1c0.1,0,0.1,0,0.1,0s0,0,0.1,0s0,0,0.1,0
			v0.1c0,0-0.1,0-0.2,0c-0.1,0-0.1,0-0.2,0c-0.1,0-0.2,0-0.3-0.1c-0.1-0.1-0.1-0.1-0.1-0.2c-0.1,0.1-0.3,0.2-0.4,0.3
			c-0.1,0.1-0.3,0.1-0.5,0.1c-0.1,0-0.2,0-0.3,0s-0.2-0.1-0.2-0.1c-0.1-0.1-0.1-0.1-0.2-0.2s-0.1-0.2-0.1-0.3c0-0.2,0.1-0.4,0.2-0.5
			c0.1-0.1,0.3-0.2,0.6-0.2c0.2,0,0.4-0.1,0.5-0.1c0.1,0,0.2,0,0.3-0.1c0.1-0.1,0.1-0.1,0.1-0.1v-0.1c0-0.1,0-0.2,0-0.3
			c0-0.1-0.1-0.2-0.1-0.2s-0.1-0.1-0.2-0.2c-0.1,0-0.2-0.1-0.3-0.1c-0.2,0-0.3,0-0.4,0.1c-0.1,0.1-0.2,0.2-0.3,0.3H243V316.3z
			 M244.4,317.3c-0.1,0-0.1,0-0.2,0.1c-0.1,0-0.2,0-0.3,0s-0.2,0-0.3,0.1c-0.1,0-0.2,0.1-0.2,0.1c-0.1,0-0.1,0.1-0.2,0.2
			c0,0.1-0.1,0.2-0.1,0.3c0,0.2,0.1,0.3,0.2,0.4c0.1,0.1,0.2,0.1,0.3,0.1c0.1,0,0.3,0,0.4-0.1c0.1-0.1,0.2-0.2,0.3-0.3L244.4,317.3z
			"/>
		<path d="M245.9,315c0-0.1,0-0.1,0.1-0.2c0.1-0.1,0.1-0.1,0.2-0.1s0.1,0,0.2,0.1c0.1,0.1,0.1,0.1,0.1,0.2s0,0.1-0.1,0.2
			s-0.1,0.1-0.2,0.1c-0.1,0-0.1,0-0.2-0.1S245.9,315.1,245.9,315z M246,317.1c0-0.2,0-0.3,0-0.5c0-0.2,0-0.4,0-0.5
			c0.1,0,0.2,0,0.3,0c0.1,0,0.1,0,0.3,0c0,0.2,0,0.3,0,0.5c0,0.2,0,0.4,0,0.5v0.6c0,0.2,0,0.3,0,0.5s0,0.4,0,0.5c-0.1,0-0.2,0-0.3,0
			c-0.1,0-0.2,0-0.3,0c0-0.2,0-0.3,0-0.5s0-0.4,0-0.5V317.1z"/>
		<path d="M247.5,315.6c0-0.2,0-0.3,0-0.4s0-0.3,0-0.4c0-0.1,0-0.2,0-0.3c0.1,0,0.2,0,0.3,0s0.1,0,0.3,0c0,0.1,0,0.2,0,0.3
			c0,0.1,0,0.3,0,0.4s0,0.3,0,0.4c0,0.1,0,0.3,0,0.4v1c0,0.1,0,0.3,0,0.4s0,0.3,0,0.4s0,0.3,0,0.4s0,0.2,0,0.3c-0.1,0-0.2,0-0.3,0
			s-0.2,0-0.3,0c0-0.1,0-0.2,0-0.3c0-0.1,0-0.3,0-0.4s0-0.3,0-0.4s0-0.3,0-0.4v-1C247.5,315.9,247.5,315.8,247.5,315.6z"/>
		<path d="M249,318.4c0-0.1,0-0.2,0.1-0.2c0.1-0.1,0.1-0.1,0.2-0.1s0.2,0,0.2,0.1c0.1,0.1,0.1,0.1,0.1,0.2c0,0.1,0,0.2-0.1,0.2
			c-0.1,0.1-0.1,0.1-0.2,0.1s-0.2,0-0.2-0.1C249,318.6,249,318.5,249,318.4z"/>
		<path d="M250.3,317.4c0-0.2,0-0.5,0.1-0.6c0.1-0.1,0.2-0.3,0.3-0.4s0.3-0.2,0.5-0.3c0.2-0.1,0.4-0.1,0.5-0.1c0.2,0,0.4,0,0.6,0.1
			s0.3,0.1,0.4,0.2c0,0.1-0.1,0.1-0.1,0.2s0,0.1-0.1,0.2l0,0c0,0-0.1-0.1-0.1-0.2s-0.1-0.1-0.2-0.1c-0.1,0-0.1-0.1-0.2-0.1
			s-0.2,0-0.2,0c-0.2,0-0.3,0-0.4,0.1s-0.2,0.1-0.3,0.3c-0.1,0.2-0.1,0.2-0.2,0.4c0,0.1-0.1,0.3-0.1,0.5c0,0.4,0.1,0.7,0.2,0.9
			c0.2,0.2,0.4,0.3,0.7,0.3c0.1,0,0.2,0,0.2,0c0.1,0,0.2,0,0.2-0.1c0.1,0,0.1-0.1,0.2-0.1c0.1,0,0.1-0.1,0.2-0.2l0,0
			c0,0.1,0,0.2,0,0.3c-0.1,0.1-0.3,0.2-0.4,0.2s-0.3,0.1-0.5,0.1c-0.2,0-0.3,0-0.5-0.1c-0.2,0-0.3-0.1-0.4-0.2
			c-0.1-0.1-0.2-0.3-0.3-0.4C250.4,317.8,250.3,317.6,250.3,317.4z"/>
		<path d="M253.1,317.4c0-0.3,0-0.5,0.1-0.7c0.1-0.2,0.2-0.3,0.3-0.4c0.1-0.1,0.3-0.2,0.4-0.2c0.2-0.1,0.3-0.1,0.5-0.1
			c0.2,0,0.3,0,0.5,0.1c0.2,0.1,0.3,0.1,0.4,0.2c0.1,0.1,0.2,0.3,0.3,0.4c0.1,0.2,0.1,0.4,0.1,0.7c0,0.3,0,0.5-0.1,0.7
			s-0.2,0.3-0.3,0.4c-0.1,0.1-0.3,0.2-0.4,0.2c-0.2,0-0.3,0.1-0.5,0.1c-0.2,0-0.3,0-0.5-0.1c-0.2,0-0.3-0.1-0.4-0.2
			c-0.1-0.1-0.2-0.3-0.3-0.4C253.2,317.8,253.1,317.6,253.1,317.4z M253.6,317.4c0,0.2,0,0.3,0,0.5s0.1,0.3,0.1,0.4
			c0.1,0.1,0.2,0.2,0.3,0.3c0.1,0.1,0.3,0.1,0.4,0.1c0.2,0,0.3,0,0.4-0.1s0.2-0.2,0.3-0.3c0.1-0.1,0.1-0.2,0.1-0.4s0-0.3,0-0.5
			c0-0.2,0-0.3,0-0.5s-0.1-0.3-0.1-0.4c-0.1-0.1-0.2-0.2-0.3-0.3c-0.1-0.1-0.3-0.1-0.4-0.1c-0.2,0-0.3,0-0.4,0.1
			c-0.1,0.1-0.2,0.2-0.3,0.3c-0.1,0.1-0.1,0.2-0.1,0.4S253.6,317.2,253.6,317.4z"/>
		<path d="M256.5,316.5c0-0.2,0-0.4,0-0.5c0.1,0,0.2,0,0.3,0h0.1h0.1c0,0.2,0,0.3,0,0.5l0,0c0.2-0.3,0.5-0.5,0.8-0.5
			c0.1,0,0.2,0,0.3,0s0.2,0.1,0.2,0.1s0.1,0.1,0.2,0.2s0.1,0.1,0.1,0.2l0,0c0.1-0.2,0.2-0.3,0.4-0.4c0.2-0.1,0.3-0.1,0.5-0.1
			c0.1,0,0.2,0,0.3,0.1c0.1,0,0.2,0.1,0.3,0.2s0.1,0.2,0.2,0.3c0,0.1,0.1,0.2,0.1,0.4c0,0.1,0,0.1,0,0.2s0,0.2,0,0.3s0,0.2,0,0.3
			c0,0.1,0,0.3,0,0.4s0,0.2,0,0.3c0,0.1,0,0.2,0,0.3h-0.1h-0.1h-0.1H260c0-0.1,0-0.3,0-0.6s0-0.7,0-1.2c0-0.1,0-0.2,0-0.3
			s-0.1-0.2-0.1-0.2s-0.1-0.1-0.2-0.1s-0.2-0.1-0.3-0.1c-0.1,0-0.3,0-0.3,0.1c-0.1,0.1-0.2,0.1-0.2,0.2l-0.1,0.1c0,0,0,0.1,0,0.2
			s0,0.2,0,0.4c0,0.2,0,0.4,0,0.6s0,0.3,0,0.4s0,0.3,0,0.4c-0.1,0-0.2,0-0.2,0c-0.1,0-0.2,0-0.2,0c0-0.2,0-0.4,0-0.6s0-0.4,0-0.6
			c0-0.2,0-0.3,0-0.4s0-0.2,0-0.2c0-0.1,0-0.1,0-0.1s0-0.1-0.1-0.1c0-0.1-0.1-0.1-0.2-0.2s-0.2-0.1-0.3-0.1c-0.2,0-0.4,0.1-0.5,0.2
			c-0.1,0.2-0.2,0.4-0.2,0.7v0.5c0,0.2,0,0.3,0,0.5c0,0.2,0,0.4,0,0.5c-0.1,0-0.2,0-0.3,0s-0.2,0-0.3,0c0-0.2,0-0.3,0-0.5
			c0-0.2,0-0.4,0-0.5v-0.6C256.5,316.9,256.5,316.7,256.5,316.5z"/>
	</g>
	<g>
		<path d="M380.4,249.7c0,0.1-0.1,0.1-0.1,0.1l-0.1,0.1c-0.2,0.4-0.3,0.8-0.6,1.2c-0.2,0.3-0.3,0.5-0.6,0.7
			c-0.2,0.2-0.5,0.4-0.7,0.6c-0.1,0.1-0.2,0.1-0.3,0.1h-0.1l0,0c0-0.1,0.1-0.2,0.2-0.2c0.2-0.2,0.5-0.4,0.7-0.6
			c0.2-0.2,0.4-0.5,0.5-0.8c0.2-0.3,0.4-0.8,0.5-1.2c-0.2,0-0.4,0.1-0.7,0.1c-0.1,0.2-0.2,0.4-0.3,0.5c-0.1,0.1-0.2,0.2-0.2,0.3
			c-0.1,0.1-0.2,0.2-0.3,0.3c-0.1,0.1-0.2,0.1-0.2,0.1l0,0c0,0,0,0,0-0.1s0.1-0.2,0.1-0.2c0.2-0.3,0.4-0.5,0.6-0.8
			c0.1-0.2,0.2-0.5,0.3-0.7c0.1-0.2,0.2-0.4,0.2-0.5l0,0c0-0.1,0-0.1,0-0.1s0,0,0-0.1l0,0c0.1,0,0.1,0.1,0.2,0.2
			c0.1,0.1,0.1,0.2,0.1,0.2l0,0v0.1c0,0,0,0.1-0.1,0.1c0,0.1-0.1,0.2-0.1,0.3c0.2,0,0.4-0.1,0.5-0.1l0.2-0.2l0,0
			c0.1,0,0.1,0.1,0.2,0.2C380.3,249.6,380.4,249.6,380.4,249.7L380.4,249.7z M380.9,249.4L380.9,249.4c-0.1,0-0.1,0-0.2-0.1
			s-0.1-0.2-0.2-0.2c-0.1-0.1-0.1-0.1-0.2-0.2l-0.1-0.1l0,0c0,0,0,0,0.1,0c0,0,0.1,0,0.2,0c0.1,0,0.1,0.1,0.2,0.1s0.2,0.1,0.2,0.1
			s0,0.1,0,0.2C380.9,249.3,380.9,249.4,380.9,249.4z M381.4,249L381.4,249c-0.1,0-0.1,0-0.2-0.1c-0.1-0.1-0.1-0.2-0.2-0.2
			c-0.1-0.1-0.1-0.1-0.2-0.2l-0.1-0.1l0,0c0,0,0,0,0.1,0h0.1c0.1,0,0.1,0.1,0.2,0.1s0.2,0.1,0.2,0.1s0,0.1,0,0.2l0,0
			C381.4,249,381.4,249,381.4,249z"/>
		<path d="M380.6,255.7c0,0.1,0,0.1-0.1,0.1c-0.1,0.1-0.1,0.1-0.2,0.2c-0.1,0.2-0.2,0.5-0.3,0.7c-0.2,0.3-0.4,0.5-0.6,0.8
			c-0.2,0.2-0.5,0.4-0.7,0.6c-0.1,0-0.2,0.1-0.3,0.1h-0.1l0,0c0-0.1,0.2-0.2,0.2-0.2c0.2-0.2,0.4-0.4,0.6-0.6
			c0.2-0.2,0.4-0.5,0.5-0.8c0.1-0.3,0.2-0.5,0.3-0.8c-0.3,0-0.6,0.1-0.8,0.1c-0.3,0.1-0.6,0.1-0.8,0.2l0,0c-0.1,0-0.1-0.1-0.2-0.1
			c-0.1-0.1-0.1-0.2-0.1-0.2l0,0c0,0,0.2,0,0.3,0c0.3,0,0.6-0.1,0.9-0.1s0.5-0.1,0.8-0.1c0.1,0,0.1-0.2,0.2-0.2l0,0
			c0.1,0,0.2,0.1,0.2,0.1C380.5,255.5,380.6,255.6,380.6,255.7L380.6,255.7z M380.4,254.9c0,0-0.1,0-0.1,0.1c-0.1,0-0.1,0-0.1,0
			c-0.3,0-0.4,0.1-0.7,0.1c-0.2,0-0.4,0.1-0.6,0.1c-0.1,0-0.2,0-0.2,0l0,0c-0.1,0-0.1-0.1-0.2-0.1c0,0-0.1-0.1-0.1-0.2l0,0h0.1l0,0
			l0,0c0.1,0,0.2,0,0.2,0c0.3,0,0.4-0.1,0.6-0.1s0.3-0.1,0.5-0.1c0.1,0,0.2-0.1,0.2-0.1c0.1,0,0.1,0,0.1,0l0,0c0,0,0.1,0,0.1,0.1
			C380.3,254.7,380.4,254.8,380.4,254.9L380.4,254.9z"/>
		<path d="M380.6,260.9c0,0.1-0.1,0.1-0.1,0.2c-0.1,0.3-0.2,0.6-0.4,0.9c-0.2,0.3-0.4,0.6-0.7,0.9c-0.3,0.3-0.6,0.5-1,0.7
			c0,0-0.1,0.1-0.2,0.1h-0.1l0,0c0-0.1,0.2-0.2,0.2-0.2c0.3-0.2,0.6-0.5,0.8-0.7c0.2-0.2,0.4-0.6,0.6-0.9c0.1-0.3,0.2-0.6,0.3-0.8
			c-0.3,0-0.5,0.1-0.8,0.2s-0.5,0.1-0.8,0.2c-0.1,0-0.1,0.1-0.2,0.1l0,0c-0.1,0-0.1-0.1-0.2-0.2s-0.1-0.2-0.1-0.2l0,0
			c0,0,0.1,0,0.2,0c0,0,0,0,0.1,0l0,0c0.2,0,0.3,0,0.4,0c0.2,0,0.4-0.1,0.6-0.1c0.3,0,0.5-0.1,0.8-0.1c0.1,0,0.1-0.1,0.1-0.1
			l0.1-0.1l0,0h0.1l0.1,0.1c0.1,0.1,0.1,0.1,0.1,0.2C380.6,260.8,380.6,260.8,380.6,260.9z"/>
		<path d="M380.6,266.5c0,0.1-0.1,0.1-0.1,0.2c-0.1,0.3-0.2,0.6-0.4,0.9c-0.2,0.3-0.4,0.6-0.7,0.9c-0.3,0.3-0.6,0.5-1,0.7
			c0,0-0.1,0.1-0.2,0.1h-0.1l0,0c0-0.1,0.2-0.2,0.2-0.2c0.3-0.2,0.6-0.5,0.8-0.7c0.2-0.2,0.4-0.6,0.6-0.9c0.1-0.3,0.2-0.6,0.3-0.8
			c-0.3,0-0.5,0.1-0.8,0.2s-0.5,0.1-0.8,0.2c-0.1,0-0.1,0.1-0.2,0.1l0,0c-0.1,0-0.1-0.1-0.2-0.2s-0.1-0.2-0.1-0.2l0,0
			c0,0,0.1,0,0.2,0c0,0,0,0,0.1,0l0,0c0.2,0,0.3,0,0.4,0c0.2,0,0.4-0.1,0.6-0.1c0.3,0,0.5-0.1,0.8-0.1c0.1,0,0.1-0.1,0.1-0.1
			l0.1-0.1l0,0h0.1l0.1,0.1c0.1,0.1,0.1,0.1,0.1,0.2C380.6,266.4,380.6,266.5,380.6,266.5z"/>
		<path d="M380.6,272.2C380.6,272.2,380.6,272.3,380.6,272.2c-0.1,0.1-0.2,0.2-0.2,0.2c-0.2,0.2-0.3,0.3-0.5,0.5
			c0.1,0,0.1,0.1,0.1,0.1l0,0c0,0,0,0.1,0,0.2c0,0.2,0,0.4,0,0.6v0.1c0,0.2,0,0.4,0,0.6l0,0c0,0.1,0,0.2,0,0.2c0,0.1,0,0.1-0.1,0.1
			l0,0c-0.1,0-0.1-0.1-0.1-0.1c-0.1-0.1-0.1-0.2-0.1-0.3l0,0c0-0.1,0.1-0.2,0.1-0.2c0-0.2,0-0.3,0-0.5v-0.1c0-0.1,0-0.2,0-0.4
			c-0.1,0.1-0.3,0.3-0.4,0.4c-0.2,0.1-0.3,0.2-0.5,0.3c-0.1,0.1-0.2,0.1-0.2,0.1h-0.1l0,0c0-0.1,0.1-0.1,0.2-0.2
			c0.2-0.1,0.4-0.3,0.6-0.5c0.2-0.2,0.4-0.4,0.6-0.6c0.2-0.2,0.3-0.4,0.4-0.6V272l0,0v-0.1v-0.1l0,0c0.1,0,0.1,0.1,0.2,0.1
			c0.1,0.1,0.1,0.1,0.2,0.2C380.6,272.1,380.6,272.2,380.6,272.2L380.6,272.2z"/>
		<path d="M379.2,278.7c0,0.1-0.1,0.2-0.1,0.2l0,0c-0.1,0-0.1-0.1-0.2-0.2c0-0.1-0.1-0.2-0.1-0.2c-0.1-0.1-0.1-0.2-0.2-0.2
			c0-0.1-0.1-0.1-0.1-0.1l0,0l0,0c0,0,0.1,0,0.2,0c0.1,0.1,0.4,0.2,0.4,0.3v0.1C379.2,278.6,379.2,278.6,379.2,278.7z M380.7,278.2
			l-0.1,0.1c-0.1,0.2-0.2,0.4-0.3,0.6c-0.2,0.3-0.4,0.6-0.6,0.8c-0.2,0.2-0.5,0.4-0.7,0.5c-0.1,0-0.1,0.1-0.2,0.1c0,0-0.1,0-0.1-0.1
			l0,0c0-0.1,0.1-0.1,0.2-0.2c0.2-0.1,0.4-0.3,0.6-0.5c0.2-0.2,0.3-0.4,0.5-0.7c0.1-0.2,0.2-0.4,0.2-0.6c0-0.1,0.1-0.2,0.1-0.3v-0.1
			l0,0l0,0v-0.1l0,0l0.1,0.1c0,0,0.1,0.1,0.1,0.2s0.1,0.1,0.1,0.1C380.7,278.1,380.7,278.1,380.7,278.2
			C380.7,278.1,380.7,278.1,380.7,278.2z M379.8,278.4c0,0.1-0.1,0.2-0.1,0.2l0,0c-0.1,0-0.1-0.1-0.1-0.2c0-0.1-0.1-0.2-0.1-0.2
			c0-0.1-0.1-0.2-0.1-0.3c0-0.1-0.1-0.1-0.1-0.1l0,0l0,0c0,0,0.1,0,0.2,0.1C379.6,278,379.8,278.2,379.8,278.4
			C379.9,278.3,379.9,278.3,379.8,278.4C379.8,278.3,379.8,278.4,379.8,278.4z"/>
		<path d="M380.4,283.8c0,0.1-0.1,0.1-0.1,0.1l-0.1,0.1c-0.2,0.4-0.3,0.8-0.6,1.2c-0.2,0.3-0.3,0.5-0.6,0.7
			c-0.2,0.2-0.5,0.4-0.7,0.6c-0.1,0.1-0.2,0.1-0.3,0.1h-0.1l0,0c0-0.1,0.1-0.2,0.2-0.2c0.2-0.2,0.5-0.4,0.7-0.6
			c0.2-0.2,0.4-0.5,0.5-0.8c0.2-0.3,0.4-0.8,0.5-1.2c-0.2,0-0.4,0.1-0.7,0.1c-0.1,0.2-0.2,0.4-0.3,0.5c-0.1,0.1-0.2,0.2-0.2,0.3
			c-0.1,0.1-0.2,0.2-0.3,0.3c-0.1,0.1-0.2,0.1-0.2,0.1l0,0c0,0,0,0,0-0.1s0.1-0.2,0.1-0.2c0.2-0.3,0.4-0.5,0.6-0.8
			c0.1-0.2,0.2-0.5,0.3-0.7c0.1-0.2,0.2-0.4,0.2-0.5l0,0c0-0.1,0-0.1,0-0.1s0,0,0-0.1l0,0c0.1,0,0.1,0.1,0.2,0.2
			c0.1,0.1,0.1,0.2,0.1,0.2l0,0v0.1c0,0,0,0.1-0.1,0.1c0,0.1-0.1,0.2-0.1,0.3c0.2,0,0.4-0.1,0.5-0.1l0.2-0.2l0,0
			c0.1,0,0.1,0.1,0.2,0.2C380.3,283.6,380.4,283.7,380.4,283.8C380.4,283.7,380.4,283.7,380.4,283.8z"/>
		<path d="M380.9,290c0,0.1-0.2,0.1-0.2,0.1c-0.1,0-0.2,0-0.3,0c-0.2,0-0.7,0.1-0.9,0.1c0.1,0.1,0.1,0.2,0.1,0.2l0,0v0.1
			c0,0.1,0,0.1-0.1,0.2c-0.1,0.2-0.2,0.5-0.3,0.7c-0.1,0.2-0.2,0.3-0.3,0.5c-0.1,0.2-0.3,0.3-0.5,0.4l-0.2,0.1c0,0,0,0-0.1,0l0,0
			c0-0.1,0.1-0.1,0.2-0.2s0.2-0.3,0.3-0.4c0.1-0.2,0.2-0.4,0.3-0.5c0.1-0.1,0.1-0.3,0.2-0.5c0-0.2,0.1-0.3,0.1-0.5
			c-0.2,0-0.3,0-0.5,0.1c-0.1,0-0.2,0-0.3,0.1c-0.1,0-0.2,0.1-0.4,0.1l0,0c-0.1,0-0.1-0.1-0.2-0.1c0-0.1-0.1-0.1-0.1-0.2l0,0h0.1
			l0,0l0,0c0,0,0,0,0.1,0s0.2,0,0.2,0c0.4-0.1,0.8-0.1,1.2-0.1c0.4-0.1,0.6-0.1,0.9-0.2c0.1,0,0.1,0,0.2-0.1c0.1,0,0.1-0.1,0.2-0.1
			l0,0C380.7,289.8,380.7,289.9,380.9,290C380.8,289.8,380.9,289.9,380.9,290C380.9,289.9,380.9,290,380.9,290z M380.2,289
			c0,0.1-0.1,0.1-0.2,0.1c-0.3,0-0.5,0.1-0.8,0.1c-0.2,0-0.4,0.1-0.6,0.1c-0.1,0-0.2,0.1-0.3,0.1l0,0c-0.1,0-0.1-0.1-0.2-0.1
			c0-0.1-0.1-0.1-0.1-0.1l0,0h0.1c0.1,0,0.2,0,0.2,0c0.2,0,0.4-0.1,0.7-0.1c0.3-0.1,0.4-0.1,0.6-0.1c0.1,0,0.2-0.1,0.2-0.1l0,0
			c0.1,0,0.1,0.1,0.2,0.1C380.2,288.9,380.2,289,380.2,289L380.2,289z M381.1,289C381.1,289,381,289,381.1,289c-0.1,0-0.1,0-0.2-0.1
			s-0.1-0.2-0.2-0.2c-0.1-0.1-0.1-0.1-0.2-0.2l-0.1-0.1l0,0l0,0c0,0,0.1,0,0.2,0s0.1,0.1,0.2,0.1s0.2,0.1,0.2,0.1s0,0.1,0,0.2
			C381.1,288.9,381.1,289,381.1,289z M381.6,288.6C381.6,288.6,381.5,288.6,381.6,288.6c-0.1,0-0.1,0-0.2-0.1
			c-0.1-0.1-0.1-0.2-0.2-0.2c-0.1-0.1-0.1-0.1-0.2-0.2l-0.1-0.1l0,0l0,0c0,0,0.1,0,0.2,0s0.1,0.1,0.2,0.1c0.1,0,0.2,0.1,0.2,0.1
			s0,0.1,0,0.2l0,0C381.6,288.5,381.6,288.6,381.6,288.6z"/>
		<path d="M380.9,295.4c0,0.1-0.1,0.1-0.2,0.1c-0.3,0-0.6,0.1-0.9,0.1c0,0.2,0,0.4-0.1,0.5c-0.1,0.2-0.1,0.4-0.2,0.6
			c-0.1,0.2-0.2,0.5-0.4,0.7c-0.1,0.1-0.2,0.3-0.4,0.4c0,0-0.2,0.1-0.3,0.1c0,0,0,0-0.1,0l0,0c0-0.1,0.1-0.2,0.2-0.2
			c0.1-0.1,0.2-0.3,0.3-0.5c0.1-0.2,0.2-0.4,0.3-0.6c0.1-0.2,0.1-0.4,0.1-0.6s0-0.3,0-0.5c-0.2,0-0.4,0-0.6,0.1c0,0.3,0,0.5,0,0.8
			v0.1c0,0.1,0,0.2-0.1,0.2l0,0c-0.1,0-0.1-0.1-0.2-0.2c-0.1-0.1-0.1-0.1-0.1-0.2v-0.1c0-0.1,0-0.2,0-0.3l0,0c0-0.1,0-0.2,0-0.3
			c-0.2,0-0.3,0-0.4,0.1c-0.1,0-0.2,0-0.2,0.1c-0.1,0-0.1,0-0.1,0l0,0c0,0-0.1-0.1-0.2-0.1c0-0.1-0.1-0.1-0.1-0.2l0,0h0.1l0,0l0,0
			l0,0l0,0h0.1c0.1,0,0.2,0,0.4,0c0.1,0,0.2,0,0.4-0.1c0-0.2,0-0.3,0-0.5c0-0.1,0-0.2,0-0.3c0-0.1-0.1-0.1-0.1-0.1l0,0l0,0
			c0,0,0.1,0,0.1,0.1c0.1,0.1,0.2,0.1,0.2,0.1c0.1,0,0.1,0.1,0.1,0.1l0,0v0.1c0,0,0,0.1,0,0.2s0,0.2,0,0.3c0.2,0,0.4-0.1,0.6-0.1
			c0-0.1,0-0.2,0-0.4v-0.1c0-0.1,0-0.2,0-0.4c0-0.1,0-0.2-0.1-0.2v-0.1l0,0l0,0c0.1,0,0.1,0.1,0.2,0.1c0.1,0.1,0.1,0.1,0.2,0.1
			l0.1,0.1l0,0v0.1c0,0.1,0,0.1,0,0.3c0,0.1,0,0.2,0,0.3v0.1c0.2,0,0.3-0.1,0.4-0.1s0.2-0.1,0.3-0.1l0,0c0.1,0,0.1,0.1,0.2,0.1
			C380.9,295.2,381,295.3,380.9,295.4C381,295.3,381,295.3,380.9,295.4z M380.8,294.7C380.8,294.8,380.8,294.8,380.8,294.7
			c-0.1,0-0.1,0-0.2-0.1s-0.1-0.2-0.2-0.2c-0.1-0.1-0.1-0.1-0.2-0.2l-0.1-0.1l0,0c0,0,0,0,0.1,0c0,0,0.1,0,0.2,0
			c0.1,0,0.1,0.1,0.2,0.1s0.2,0.1,0.2,0.1s0,0.1,0,0.2S380.8,294.7,380.8,294.7z M381.3,294.4L381.3,294.4c-0.1,0-0.1,0-0.2-0.1
			s-0.1-0.2-0.2-0.2c-0.1-0.1-0.1-0.1-0.2-0.2l-0.1-0.1l0,0l0,0h0.1c0.1,0,0.1,0.1,0.2,0.1s0.2,0.1,0.2,0.1s0,0.1,0,0.2l0,0
			C381.3,294.3,381.3,294.4,381.3,294.4z"/>
		<path d="M380.4,300.3c0,0.1-0.1,0.1-0.1,0.1c-0.1,0-0.1,0.1-0.2,0.1c-0.1,0.1-0.2,0.3-0.4,0.4c-0.1,0.1-0.2,0.2-0.3,0.3
			c0,0,0.1,0.1,0.1,0.2l0,0v0.1v0.1c0,0.2,0,0.3,0,0.5c0,0.1,0,0.1,0,0.1c0,0.2,0,0.6,0,0.8v0.1c0,0.1,0,0.1,0,0.2s0,0.1-0.1,0.2
			l0,0c-0.1,0-0.1-0.1-0.2-0.1c0-0.1-0.1-0.2-0.1-0.3l0,0c0-0.1,0.1-0.2,0.1-0.3c0-0.1,0-0.2,0-0.3c0-0.1,0-0.1,0-0.2v-0.1
			c0-0.1,0-0.2,0-0.3c0-0.1,0-0.3,0-0.4c-0.2,0.2-0.5,0.4-0.8,0.6c-0.1,0.1-0.3,0.2-0.6,0.3c-0.1,0-0.2,0.1-0.2,0.1h-0.1l0,0
			c0-0.1,0.1-0.1,0.2-0.2c0.4-0.3,0.7-0.5,1-0.8c0.3-0.3,0.5-0.5,0.8-0.8c0.1-0.1,0.2-0.3,0.3-0.4c0.1-0.1,0.1-0.2,0.1-0.2l0,0
			c0-0.1,0-0.1,0-0.1s0,0,0-0.1l0,0c0.1,0,0.1,0.1,0.2,0.1c0.1,0.1,0.1,0.1,0.2,0.2C380.4,300.2,380.4,300.3,380.4,300.3
			L380.4,300.3z"/>
		<path d="M380.7,306.7c-0.2,0.3-0.4,0.6-0.6,0.9c-0.3,0.3-0.5,0.5-0.7,0.7c-0.2,0.2-0.4,0.3-0.7,0.5c-0.1,0.1-0.2,0.2-0.3,0.2l0,0
			c-0.1,0-0.1-0.1-0.2-0.1c-0.1-0.1-0.2-0.2-0.3-0.2c-0.1-0.1-0.1-0.1-0.1-0.2l0,0c0,0,0,0,0.1,0h0.1h0.1c0.1,0,0.2,0,0.3-0.1
			c0.2-0.1,0.4-0.2,0.6-0.4c0.3-0.2,0.6-0.4,0.9-0.7c0.2-0.2,0.5-0.5,0.7-0.7c0.1-0.1,0.1-0.2,0.2-0.2l0,0l0,0
			C380.8,306.5,380.8,306.6,380.7,306.7z M379,307C378.9,307,378.9,307,379,307c-0.1,0-0.2,0-0.2-0.1c-0.1-0.1-0.2-0.2-0.3-0.2
			c-0.1-0.1-0.2-0.2-0.4-0.2c-0.1,0-0.2-0.1-0.2-0.2l0,0c0-0.1,0.1-0.1,0.2-0.1h0.1c0.1,0,0.2,0,0.3,0c0.2,0,0.3,0.1,0.4,0.1
			c0.1,0.1,0.1,0.2,0.1,0.3v0.1C379,306.9,379,306.9,379,307z"/>
		<path d="M378.4,315.4c0,0.1,0,0.1,0,0.1s-0.1,0-0.1-0.1c-0.1-0.1-0.1-0.2-0.2-0.3c-0.1-0.1-0.1-0.2,0-0.2c0-0.1,0.1-0.2,0.1-0.4
			c0-0.2,0-0.6,0-1.1V313c-0.2,0.2-0.3,0.4-0.5,0.6c-0.2,0.2-0.4,0.4-0.6,0.5H377V314c0.3-0.3,0.5-0.7,0.7-1
			c0.1-0.2,0.2-0.5,0.3-0.7c-0.1,0-0.1,0-0.2,0h-0.2c-0.1,0-0.2,0-0.3-0.1c-0.1-0.1-0.1-0.1-0.2-0.2c-0.1-0.1,0-0.1,0.1-0.1
			c0.2,0,0.3,0,0.5,0c0.2,0,0.3,0,0.4,0l0,0c0-0.2,0-0.4,0-0.6c0-0.1,0-0.1,0-0.2l-0.3,0.1c-0.2,0.1-0.3,0.1-0.4,0.1h-0.1
			c0,0,0,0,0-0.1c0-0.1,0.1-0.1,0.1-0.1c0.1,0,0.2-0.1,0.3-0.1c0.1-0.1,0.2-0.1,0.3-0.2c0.1-0.1,0.2-0.1,0.3-0.2
			c0.1-0.1,0.2-0.1,0.3-0.2c0-0.1,0.1-0.1,0.2,0s0.2,0.2,0.2,0.2c0,0.1,0,0.1-0.1,0.1l-0.3,0.1c-0.1,0-0.2,0.1-0.2,0.1
			c0,0.1,0,0.2,0,0.3v0.6h0.1c0.1,0,0.3,0,0.3-0.1c0.1,0,0.1,0,0.2,0l0.2,0.2c0.1,0.1,0,0.1-0.1,0.1s-0.3,0-0.4,0
			c-0.1,0-0.2,0-0.2,0v0.2h0.1c0,0,0.1,0,0.2,0.1c0.1,0,0.1,0.1,0.2,0.1s0.1,0.1,0.1,0.3c0,0.1,0,0.2,0,0.3c0,0.1-0.1,0.1-0.1,0
			c-0.1-0.1-0.2-0.2-0.3-0.3c-0.1-0.1-0.1-0.1-0.1-0.1v1.3C378.4,314.9,378.4,315.3,378.4,315.4z M380.5,313.6v1.4
			c0,0.3,0,0.4,0,0.5s-0.1,0.1-0.1,0.1s-0.1-0.1-0.1-0.2s-0.1-0.2-0.1-0.3c0-0.1,0-0.1,0-0.2s0.1-0.2,0.1-0.5c0-0.2,0-0.4,0-0.7
			v-0.1l-0.5,0.1c-0.3,0-0.4,0.1-0.4,0.1c-0.1,0-0.2,0-0.2,0l-0.2-0.1l-0.1-0.1c0,0,0,0,0.1,0c0.2,0,0.4-0.1,0.7-0.1l0.7-0.1v-1.9
			v-0.3c0-0.1,0-0.2-0.1-0.4c0-0.1,0-0.1,0-0.2c0,0,0.1,0,0.2,0.1c0.1,0.1,0.2,0.1,0.2,0.2c0.1,0.1,0.1,0.2,0.1,0.3
			c0,0.1-0.1,0.2-0.1,0.3c0,0.1,0,0.2,0,0.4v1.5c0.1,0,0.1,0,0.2,0s0.3-0.1,0.4-0.1c0.1,0,0.2,0,0.3,0c0.1,0.1,0.2,0.1,0.2,0.2v0.1
			c0,0,0,0-0.1,0l-0.7,0.1C380.6,313.6,380.6,313.6,380.5,313.6z M379.6,311.2c0.1,0.1,0.2,0.1,0.2,0.1c0.1,0.1,0.1,0.1,0.1,0.2
			s0,0.2,0,0.2c0,0.1,0,0.1-0.1,0.1c0,0,0,0-0.1,0v-0.1l-0.2-0.3c-0.1-0.1-0.1-0.2-0.2-0.3c0,0,0,0,0-0.1l0,0c0,0,0,0,0.1,0
			C379.4,311.1,379.5,311.2,379.6,311.2z M379.6,312.4c0.1,0,0.2,0.1,0.2,0.1c0.1,0.1,0.1,0.1,0.1,0.2s0,0.2,0,0.2
			c0,0.1,0,0.1-0.1,0.1c0,0,0,0-0.1,0v-0.1c-0.1-0.1-0.1-0.2-0.2-0.3c-0.1-0.1-0.1-0.2-0.2-0.3c0,0,0,0,0-0.1s0,0,0-0.1
			c0,0,0,0,0.1,0C379.4,312.3,379.5,312.4,379.6,312.4z"/>
		<path d="M375.5,249.7c0,0.1-0.1,0.1-0.1,0.1l-0.1,0.1c-0.2,0.4-0.3,0.8-0.6,1.2c-0.2,0.3-0.3,0.5-0.6,0.7
			c-0.2,0.2-0.5,0.4-0.7,0.6c-0.1,0.1-0.2,0.1-0.3,0.1H373l0,0c0-0.1,0.1-0.2,0.2-0.2c0.2-0.2,0.5-0.4,0.7-0.6
			c0.2-0.2,0.4-0.5,0.5-0.8c0.2-0.3,0.4-0.8,0.5-1.2c-0.2,0-0.4,0.1-0.7,0.1c-0.1,0.2-0.2,0.4-0.3,0.5c-0.1,0.1-0.2,0.2-0.2,0.3
			c-0.1,0.1-0.2,0.2-0.3,0.3c-0.1,0.1-0.2,0.1-0.2,0.1l0,0c0,0,0,0,0-0.1s0.1-0.2,0.1-0.2c0.2-0.3,0.4-0.5,0.6-0.8
			c0.1-0.2,0.2-0.5,0.3-0.7c0.1-0.2,0.2-0.4,0.2-0.5l0,0c0-0.1,0-0.1,0-0.1s0,0,0-0.1l0,0c0.1,0,0.1,0.1,0.2,0.2
			c0.1,0.1,0.1,0.2,0.1,0.2l0,0v0.1c0,0,0,0.1-0.1,0.1c0,0.1-0.1,0.2-0.1,0.3c0.2,0,0.4-0.1,0.5-0.1l0.2-0.2l0,0
			c0.1,0,0.1,0.1,0.2,0.2C375.4,249.6,375.5,249.6,375.5,249.7L375.5,249.7z M375.9,249.4L375.9,249.4c-0.1,0-0.1,0-0.2-0.1
			s-0.1-0.2-0.2-0.2c-0.1-0.1-0.1-0.1-0.2-0.2l-0.1-0.1l0,0c0,0,0,0,0.1,0c0,0,0.1,0,0.2,0s0.1,0.1,0.2,0.1s0.2,0.1,0.2,0.1
			s0,0.1,0,0.2C376,249.3,376,249.4,375.9,249.4z M376.4,249L376.4,249c-0.1,0-0.1,0-0.2-0.1c-0.1-0.1-0.1-0.2-0.2-0.2
			c-0.1-0.1-0.1-0.1-0.2-0.2l-0.1-0.1l0,0c0,0,0,0,0.1,0h0.1c0.1,0,0.1,0.1,0.2,0.1s0.2,0.1,0.2,0.1s0,0.1,0,0.2l0,0
			C376.5,249,376.5,249,376.4,249z"/>
		<path d="M375.6,255.7c0,0.1,0,0.1-0.1,0.1c-0.1,0.1-0.1,0.1-0.2,0.2c-0.1,0.2-0.2,0.5-0.3,0.7c-0.2,0.3-0.4,0.5-0.6,0.8
			c-0.2,0.2-0.5,0.4-0.7,0.6c-0.1,0-0.2,0.1-0.3,0.1h-0.1l0,0c0-0.1,0.2-0.2,0.2-0.2c0.2-0.2,0.4-0.4,0.6-0.6
			c0.2-0.2,0.4-0.5,0.5-0.8c0.1-0.3,0.2-0.5,0.3-0.8c-0.3,0-0.6,0.1-0.8,0.1c-0.3,0.1-0.6,0.1-0.8,0.2l0,0c-0.1,0-0.1-0.1-0.2-0.1
			c-0.1-0.1-0.1-0.2-0.1-0.2l0,0c0,0,0.2,0,0.3,0c0.3,0,0.6-0.1,0.9-0.1c0.3,0,0.5-0.1,0.8-0.1c0.1,0,0.1-0.2,0.2-0.2l0,0
			c0.1,0,0.2,0.1,0.2,0.1C375.6,255.5,375.6,255.6,375.6,255.7L375.6,255.7z M375.4,254.9c0,0-0.1,0-0.1,0.1c-0.1,0-0.1,0-0.1,0
			c-0.3,0-0.4,0.1-0.7,0.1c-0.2,0-0.4,0.1-0.6,0.1c-0.1,0-0.2,0-0.2,0l0,0c-0.1,0-0.1-0.1-0.2-0.1c0,0-0.1-0.1-0.1-0.2l0,0h0.1l0,0
			l0,0c0.1,0,0.2,0,0.2,0c0.3,0,0.4-0.1,0.6-0.1s0.3-0.1,0.5-0.1c0.1,0,0.2-0.1,0.2-0.1c0.1,0,0.1,0,0.1,0l0,0c0,0,0.1,0,0.1,0.1
			C375.3,254.7,375.4,254.8,375.4,254.9L375.4,254.9z"/>
		<path d="M375.6,260.9c0,0.1-0.1,0.1-0.1,0.2c-0.1,0.3-0.2,0.6-0.4,0.9c-0.2,0.3-0.4,0.6-0.7,0.9c-0.3,0.3-0.6,0.5-1,0.7
			c0,0-0.1,0.1-0.2,0.1h-0.1l0,0c0-0.1,0.2-0.2,0.2-0.2c0.3-0.2,0.6-0.5,0.8-0.7c0.2-0.2,0.4-0.6,0.6-0.9c0.1-0.3,0.2-0.6,0.3-0.8
			c-0.3,0-0.5,0.1-0.8,0.2c-0.3,0.1-0.5,0.1-0.8,0.2c-0.1,0-0.1,0.1-0.2,0.1l0,0c-0.1,0-0.1-0.1-0.2-0.2s-0.1-0.2-0.1-0.2l0,0
			c0,0,0.1,0,0.2,0c0,0,0,0,0.1,0l0,0c0.2,0,0.3,0,0.4,0c0.2,0,0.4-0.1,0.6-0.1c0.3,0,0.5-0.1,0.8-0.1c0.1,0,0.1-0.1,0.1-0.1
			l0.1-0.1l0,0h0.1l0.1,0.1c0.1,0.1,0.1,0.1,0.1,0.2C375.7,260.8,375.6,260.8,375.6,260.9z"/>
		<path d="M375.6,266.6L375.6,266.6c-0.1,0.1-0.2,0.2-0.2,0.2c-0.2,0.2-0.3,0.3-0.5,0.5c0.1,0,0.1,0.1,0.1,0.1l0,0c0,0,0,0.1,0,0.2
			c0,0.2,0,0.4,0,0.6v0.1c0,0.2,0,0.4,0,0.6l0,0c0,0.1,0,0.2,0,0.2c0,0.1,0,0.1-0.1,0.1l0,0c-0.1,0-0.1-0.1-0.1-0.1
			c-0.1-0.1-0.1-0.2-0.1-0.3l0,0c0-0.1,0.1-0.2,0.1-0.2c0-0.2,0-0.3,0-0.5V268c0-0.1,0-0.2,0-0.4c-0.1,0.1-0.3,0.3-0.4,0.4
			c-0.2,0.1-0.3,0.2-0.5,0.3c-0.1,0.1-0.2,0.1-0.2,0.1h-0.1l0,0c0-0.1,0.1-0.1,0.2-0.2c0.2-0.1,0.4-0.3,0.6-0.5s0.4-0.4,0.6-0.6
			c0.2-0.2,0.3-0.4,0.4-0.6v-0.1l0,0v-0.1v-0.1l0,0c0.1,0,0.1,0.1,0.2,0.1c0.1,0.1,0.1,0.1,0.2,0.2
			C375.6,266.5,375.6,266.5,375.6,266.6C375.6,266.5,375.6,266.5,375.6,266.6z"/>
		<path d="M374.2,273c0,0.1-0.1,0.2-0.1,0.2l0,0c-0.1,0-0.1-0.1-0.2-0.2c0-0.1-0.1-0.2-0.1-0.2c-0.1-0.1-0.1-0.2-0.2-0.2
			c0-0.1-0.1-0.1-0.1-0.1l0,0l0,0c0,0,0.1,0,0.2,0c0.1,0.1,0.4,0.2,0.4,0.3v0.1C374.2,272.9,374.2,273,374.2,273z M375.7,272.5
			l-0.1,0.1c-0.1,0.2-0.2,0.4-0.3,0.6c-0.2,0.3-0.4,0.6-0.6,0.8c-0.2,0.2-0.5,0.4-0.7,0.5c-0.1,0-0.1,0.1-0.2,0.1c0,0-0.1,0-0.1-0.1
			l0,0c0-0.1,0.1-0.1,0.2-0.2c0.2-0.1,0.4-0.3,0.6-0.5c0.2-0.2,0.3-0.4,0.5-0.7c0.1-0.2,0.2-0.4,0.2-0.6c0-0.1,0.1-0.2,0.1-0.3v-0.1
			l0,0l0,0V272l0,0l0.1,0.1c0,0,0.1,0.1,0.1,0.2s0.1,0.1,0.1,0.1C375.8,272.4,375.8,272.4,375.7,272.5
			C375.8,272.4,375.8,272.5,375.7,272.5z M374.8,272.7c0,0.1-0.1,0.2-0.1,0.2l0,0c-0.1,0-0.1-0.1-0.1-0.2s-0.1-0.2-0.1-0.2
			c0-0.1-0.1-0.2-0.1-0.3c0-0.1-0.1-0.1-0.1-0.1l0,0l0,0c0,0,0.1,0,0.2,0.1s0.3,0.3,0.4,0.4C374.9,272.6,374.9,272.6,374.8,272.7
			C374.8,272.6,374.8,272.7,374.8,272.7z"/>
		<path d="M375.5,278.1c0,0.1-0.1,0.1-0.1,0.1l-0.1,0.1c-0.2,0.4-0.3,0.8-0.6,1.2c-0.2,0.3-0.3,0.5-0.6,0.7
			c-0.2,0.2-0.5,0.4-0.7,0.6c-0.1,0.1-0.2,0.1-0.3,0.1H373l0,0c0-0.1,0.1-0.2,0.2-0.2c0.2-0.2,0.5-0.4,0.7-0.6
			c0.2-0.2,0.4-0.5,0.5-0.8c0.2-0.3,0.4-0.8,0.5-1.2c-0.2,0-0.4,0.1-0.7,0.1c-0.1,0.2-0.2,0.4-0.3,0.5c-0.1,0.1-0.2,0.2-0.2,0.3
			c-0.1,0.1-0.2,0.2-0.3,0.3c-0.1,0.1-0.2,0.1-0.2,0.1l0,0c0,0,0,0,0-0.1c0-0.1,0.1-0.2,0.1-0.2c0.2-0.3,0.4-0.5,0.6-0.8
			c0.1-0.2,0.2-0.5,0.3-0.7c0.1-0.2,0.2-0.4,0.2-0.5l0,0c0-0.1,0-0.1,0-0.1s0,0,0-0.1l0,0c0.1,0,0.1,0.1,0.2,0.2s0.1,0.2,0.1,0.2
			l0,0v0.1c0,0,0,0.1-0.1,0.1c0,0.1-0.1,0.2-0.1,0.3c0.2,0,0.4-0.1,0.5-0.1l0.2-0.2l0,0c0.1,0,0.1,0.1,0.2,0.2
			C375.4,277.9,375.5,278,375.5,278.1L375.5,278.1z"/>
		<path d="M375.9,284.3c0,0.1-0.2,0.1-0.2,0.1c-0.1,0-0.2,0-0.3,0c-0.2,0-0.7,0.1-0.9,0.1c0.1,0.1,0.1,0.2,0.1,0.2l0,0v0.1
			c0,0.1,0,0.1-0.1,0.2c-0.1,0.2-0.2,0.5-0.3,0.7c-0.1,0.2-0.2,0.3-0.3,0.5c-0.1,0.2-0.3,0.3-0.5,0.4l-0.2,0.1c0,0,0,0-0.1,0l0,0
			c0-0.1,0.1-0.1,0.2-0.2c0.1-0.1,0.2-0.3,0.3-0.4c0.1-0.2,0.2-0.4,0.3-0.5c0.1-0.1,0.1-0.3,0.2-0.5c0-0.2,0.1-0.3,0.1-0.5
			c-0.2,0-0.3,0-0.5,0.1c-0.1,0-0.2,0-0.3,0.1c-0.1,0-0.2,0.1-0.4,0.1l0,0c-0.1,0-0.1-0.1-0.2-0.1c0-0.1-0.1-0.1-0.1-0.2l0,0h0.1
			l0,0l0,0c0,0,0,0,0.1,0s0.2,0,0.2,0c0.4-0.1,0.8-0.1,1.2-0.1c0.4-0.1,0.6-0.1,0.9-0.2c0.1,0,0.1,0,0.2-0.1c0.1,0,0.1-0.1,0.2-0.1
			l0,0C375.7,284.1,375.7,284.2,375.9,284.3C375.8,284.1,375.9,284.2,375.9,284.3L375.9,284.3z M375.3,283.3c0,0.1-0.1,0.1-0.2,0.1
			c-0.3,0-0.5,0.1-0.8,0.1c-0.2,0-0.4,0.1-0.6,0.1c-0.1,0-0.2,0.1-0.3,0.1l0,0c-0.1,0-0.1-0.1-0.2-0.1c0-0.1-0.1-0.1-0.1-0.1l0,0
			h0.1c0.1,0,0.2,0,0.2,0c0.2,0,0.4-0.1,0.7-0.1c0.3-0.1,0.4-0.1,0.6-0.1c0.1,0,0.2-0.1,0.2-0.1l0,0c0.1,0,0.1,0.1,0.2,0.1
			C375.2,283.2,375.3,283.3,375.3,283.3L375.3,283.3z M376.1,283.3L376.1,283.3c-0.1,0-0.1,0-0.2-0.1c-0.1-0.1-0.1-0.2-0.2-0.2
			c-0.1-0.1-0.1-0.1-0.2-0.2l-0.1-0.1l0,0l0,0c0,0,0.1,0,0.2,0s0.1,0.1,0.2,0.1c0.1,0,0.2,0.1,0.2,0.1s0,0.1,0,0.2
			C376.1,283.2,376.1,283.3,376.1,283.3z M376.6,282.9C376.6,283,376.6,283,376.6,282.9c-0.1,0-0.1,0-0.2-0.1
			c-0.1-0.1-0.1-0.2-0.2-0.2c-0.1-0.1-0.1-0.1-0.2-0.2l-0.1-0.1l0,0l0,0c0,0,0.1,0,0.2,0s0.1,0.1,0.2,0.1s0.2,0.1,0.2,0.1
			s0,0.1,0,0.2l0,0C376.6,282.9,376.6,282.9,376.6,282.9z"/>
		<path d="M376,289.7c0,0.1-0.1,0.1-0.2,0.1c-0.3,0-0.6,0.1-0.9,0.1c0,0.2,0,0.4-0.1,0.5c-0.1,0.2-0.1,0.4-0.2,0.6
			c-0.1,0.2-0.2,0.5-0.4,0.7c-0.1,0.1-0.2,0.3-0.4,0.4c0,0-0.2,0.1-0.3,0.1c0,0,0,0-0.1,0l0,0c0-0.1,0.1-0.2,0.2-0.2
			c0.1-0.1,0.2-0.3,0.3-0.5c0.1-0.2,0.2-0.4,0.3-0.6c0.1-0.2,0.1-0.4,0.1-0.6c0-0.2,0-0.3,0-0.5c-0.2,0-0.4,0-0.6,0.1
			c0,0.3,0,0.5,0,0.8v0.1c0,0.1,0,0.2-0.1,0.2l0,0c-0.1,0-0.1-0.1-0.2-0.2s-0.1-0.1-0.1-0.2v-0.1c0-0.1,0-0.2,0-0.3l0,0
			c0-0.1,0-0.2,0-0.3c-0.2,0-0.3,0-0.4,0.1c-0.1,0-0.2,0-0.2,0.1c-0.1,0-0.1,0-0.1,0l0,0c0,0-0.1-0.1-0.2-0.1c0-0.1-0.1-0.1-0.1-0.2
			l0,0h0.1l0,0l0,0l0,0l0,0h0.1c0.1,0,0.2,0,0.4,0c0.1,0,0.2,0,0.4-0.1c0-0.2,0-0.3,0-0.5c0-0.1,0-0.2,0-0.3c0-0.1-0.1-0.1-0.1-0.1
			l0,0l0,0c0,0,0.1,0,0.1,0.1c0.1,0.1,0.2,0.1,0.2,0.1c0.1,0,0.1,0.1,0.1,0.1l0,0v0.1c0,0,0,0.1,0,0.2s0,0.2,0,0.3
			c0.2,0,0.4-0.1,0.6-0.1c0-0.1,0-0.2,0-0.4v-0.1c0-0.1,0-0.2,0-0.4c0-0.1,0-0.2-0.1-0.2v-0.1l0,0l0,0c0.1,0,0.1,0.1,0.2,0.1
			c0.1,0.1,0.1,0.1,0.2,0.1l0.1,0.1l0,0v0.1c0,0.1,0,0.1,0,0.3c0,0.1,0,0.2,0,0.3v0.1c0.2,0,0.3-0.1,0.4-0.1c0.1,0,0.2-0.1,0.3-0.1
			l0,0c0.1,0,0.1,0.1,0.2,0.1C375.9,289.5,376,289.6,376,289.7L376,289.7z M375.8,289.1L375.8,289.1c-0.1,0-0.1,0-0.2-0.1
			s-0.1-0.2-0.2-0.2c-0.1-0.1-0.1-0.1-0.2-0.2l-0.1-0.1l0,0c0,0,0,0,0.1,0c0,0,0.1,0,0.2,0s0.1,0.1,0.2,0.1s0.2,0.1,0.2,0.1
			s0,0.1,0,0.2C375.9,289,375.9,289.1,375.8,289.1z M376.3,288.7L376.3,288.7c-0.1,0-0.1,0-0.2-0.1s-0.1-0.2-0.2-0.2
			c-0.1-0.1-0.1-0.1-0.2-0.2l-0.1-0.1l0,0l0,0h0.1c0.1,0,0.1,0.1,0.2,0.1c0.1,0,0.2,0.1,0.2,0.1s0,0.1,0,0.2l0,0
			C376.4,288.6,376.4,288.7,376.3,288.7z"/>
		<path d="M375.5,294.7c0,0.1-0.1,0.1-0.1,0.1c-0.1,0-0.1,0.1-0.2,0.1c-0.1,0.1-0.2,0.3-0.4,0.4c-0.1,0.1-0.2,0.2-0.3,0.3
			c0,0,0.1,0.1,0.1,0.2l0,0v0.1v0.1c0,0.2,0,0.3,0,0.5c0,0.1,0,0.1,0,0.1c0,0.2,0,0.6,0,0.8v0.1c0,0.1,0,0.1,0,0.2s0,0.1-0.1,0.2
			l0,0c-0.1,0-0.1-0.1-0.2-0.1c0-0.1-0.1-0.2-0.1-0.3l0,0c0-0.1,0.1-0.2,0.1-0.3c0-0.1,0-0.2,0-0.3c0-0.1,0-0.1,0-0.2v-0.1
			c0-0.1,0-0.2,0-0.3c0-0.1,0-0.3,0-0.4c-0.2,0.2-0.5,0.4-0.8,0.6c-0.1,0.1-0.3,0.2-0.6,0.3c-0.1,0-0.2,0.1-0.2,0.1h-0.1l0,0
			c0-0.1,0.1-0.1,0.2-0.2c0.4-0.3,0.7-0.5,1-0.8c0.3-0.3,0.5-0.5,0.8-0.8c0.1-0.1,0.2-0.3,0.3-0.4c0.1-0.1,0.1-0.2,0.1-0.2l0,0
			c0-0.1,0-0.1,0-0.1s0,0,0-0.1l0,0c0.1,0,0.1,0.1,0.2,0.1c0.1,0.1,0.1,0.1,0.2,0.2C375.4,294.6,375.5,294.6,375.5,294.7
			C375.5,294.6,375.5,294.6,375.5,294.7z"/>
		<path d="M375.7,301c-0.2,0.3-0.4,0.6-0.6,0.9c-0.3,0.3-0.5,0.5-0.7,0.7s-0.4,0.3-0.7,0.5c-0.1,0.1-0.2,0.2-0.3,0.2l0,0
			c-0.1,0-0.1-0.1-0.2-0.1c-0.1-0.1-0.2-0.2-0.3-0.2c-0.1-0.1-0.1-0.1-0.1-0.2l0,0c0,0,0,0,0.1,0h0.1h0.1c0.1,0,0.2,0,0.3-0.1
			c0.2-0.1,0.4-0.2,0.6-0.4c0.3-0.2,0.6-0.4,0.9-0.7c0.2-0.2,0.5-0.5,0.7-0.7c0.1-0.1,0.1-0.2,0.2-0.2l0,0l0,0
			C375.9,300.8,375.8,300.9,375.7,301z M374,301.3L374,301.3c-0.1,0-0.2,0-0.2-0.1c-0.1-0.1-0.2-0.2-0.3-0.2
			c-0.1-0.1-0.2-0.2-0.4-0.2c-0.1,0-0.2-0.1-0.2-0.2l0,0c0-0.1,0.1-0.1,0.2-0.1h0.1c0.1,0,0.2,0,0.3,0c0.2,0,0.3,0.1,0.4,0.1
			c0.1,0.1,0.1,0.2,0.1,0.3v0.1C374,301.2,374,301.3,374,301.3z"/>
		<path d="M375.9,305.3h0.1c0,0,0.1,0,0.1,0.1c0,0,0.1,0.1,0.1,0.2c0,0.1,0,0.1,0,0.1h-0.1c-0.3,0-0.6,0-0.9,0h-0.9v0.4l0,0
			c0.3,0,0.5,0,0.7-0.1c0.1,0,0.2,0,0.2-0.1l0.1-0.1h0.1c0.1,0,0.1,0.1,0.2,0.2s0.1,0.1,0,0.2s-0.1,0.2-0.1,0.3
			c-0.1,0.4-0.1,0.6-0.1,0.9c0.1,0,0.1,0.1,0.2,0.2c0,0.1,0,0.1-0.1,0.1c-0.2,0-0.4,0-0.5,0l0.1,0.1c0.1,0.1,0.1,0.1,0.1,0.2v0.1
			h0.4c0.2,0,0.3,0,0.4-0.1h0.1c0,0,0.1,0,0.1,0.1c0,0,0.1,0.1,0.1,0.2s0,0.1,0,0.1h-0.1h-1H375v0.7c0,0.3,0,0.5,0,0.6
			s0,0.2-0.1,0.2l0,0c0,0,0,0-0.1,0c-0.2-0.2-0.4-0.4-0.7-0.7v-0.1h0.1c0.1,0,0.2,0.1,0.3,0.1l0.1,0.1c0,0,0.1,0,0.1-0.1
			s0-0.2,0-0.4c0-0.1,0-0.2,0-0.4c-0.2,0-0.4,0-0.6,0h-0.8c0.1,0,0.1,0.1,0.2,0.1c0,0.1,0.1,0.2,0,0.3c0,0.1,0,0.2-0.1,0.3
			c0,0.1,0,0.1-0.1,0.1c0,0,0,0-0.1-0.1c0,0,0-0.1-0.1-0.1c-0.1,0-0.1-0.2-0.1-0.3c-0.1-0.1-0.1-0.2-0.2-0.3l0,0c-0.3,0-0.5,0-0.7,0
			c-0.1,0-0.2,0-0.2-0.1l-0.2-0.2c0,0-0.1-0.1,0-0.1h0.1c0.1,0,0.1,0,0.2,0h1c0.3,0,0.6,0,0.8,0h0.6c0-0.2,0-0.3-0.1-0.4l0,0
			c-0.1,0-0.1,0-0.2,0h-1c-0.2,0-0.3,0-0.4,0c0,0.2-0.1,0.3-0.1,0.1c-0.1-0.1-0.1-0.2-0.2-0.3v-0.1c0,0,0-0.1,0-0.2s0-0.2,0-0.4
			s0-0.4,0-0.5s0-0.3,0-0.4v-0.1c0,0,0.1,0,0.1,0.1s0.1,0.1,0.1,0.2l0,0c0.1,0,0.3,0,0.5,0c0.1,0,0.3,0,0.4,0v-0.1
			c0-0.1,0-0.2,0-0.3c-0.2,0-0.4,0-0.6,0c-0.3,0-0.5,0-0.7,0c-0.1,0-0.2,0-0.2-0.1l-0.2-0.2c0,0-0.1-0.1,0-0.1s0.1,0,0.1,0
			c0.1,0,0.1,0,0.2,0h0.9h0.5c0-0.2,0-0.3-0.1-0.4c0-0.1,0-0.2-0.1-0.2v-0.1c0,0,0.1,0,0.2,0.1s0.2,0.2,0.2,0.2
			c0.1,0.1,0.1,0.2,0.1,0.2s0,0.1,0,0.2c0.6,0,0.9-0.1,1.1-0.1C375.7,305.3,375.8,305.3,375.9,305.3z M373.3,306.6
			c0,0.1,0,0.2,0,0.3h0.1c0,0,0.1,0,0.2,0s0.2,0,0.4,0c0.1,0,0.1,0,0.2,0v-0.4h-0.3L373.3,306.6L373.3,306.6L373.3,306.6z
			 M374.1,307.5C374.1,307.5,374.1,307.4,374.1,307.5l0.1-0.4c-0.1,0-0.1,0-0.2,0h-0.3c-0.1,0-0.1,0-0.2-0.1s-0.1-0.1-0.1-0.1
			s0,0,0-0.1c0,0.1,0,0.2,0,0.2c0,0.1,0,0.2,0,0.4L374.1,307.5z M375.2,306.4h-0.8c0,0.1,0,0.2,0,0.4h0.3c0.1,0,0.1,0,0.2,0h0.1
			c0,0,0.1,0,0.1,0.1l0.1,0.1c0,0.1,0,0.1,0,0.1s0,0-0.1,0s-0.3,0-0.4,0s-0.2,0-0.4,0v0.4c0.2,0,0.4,0,0.6,0c0.1,0,0.2,0,0.2,0
			l0.1-0.9C375.4,306.4,375.3,306.4,375.2,306.4z"/>
		<path d="M373.3,313.7l0.6-0.2h0.1c0,0,0.1,0,0,0.1c0,0,0,0.1-0.1,0.1c-0.6,0.3-1,0.6-1.2,0.6c-0.2,0.1-0.3,0.1-0.3,0.2
			c-0.1,0-0.2,0-0.3,0c-0.1-0.1-0.2-0.1-0.2-0.2v-0.1c0,0,0.1-0.1,0.3-0.1l0.6-0.2c0,0,0,0,0.1,0c0-0.1,0-0.1,0-0.2v-0.3
			c0-0.2,0-0.3,0-0.4v-0.5v-0.2c0-0.1,0-0.1,0-0.2c-0.1,0-0.1,0-0.1,0c-0.1,0-0.2,0-0.2,0c-0.1,0-0.2,0-0.3-0.1
			c-0.1,0-0.1-0.1-0.2-0.2c0-0.1,0-0.1,0.1-0.1c0.1,0,0.3,0,0.4,0s0.2,0,0.3,0c0.1,0,0.2,0,0.3,0c0.1,0,0.2,0,0.3,0
			c0.1,0,0.2,0,0.2,0.1l0.2,0.2c0.1,0.1,0,0.1-0.1,0.1s-0.3,0-0.4,0h-0.2c0,0.1,0,0.1,0,0.2v0.8v0.6H373.3z M374.5,311.2
			c0-0.3,0.1-0.5,0-0.7v-0.1c0,0,0.1,0,0.2,0.1s0.2,0.2,0.2,0.2c0.1,0.1,0.1,0.1,0.1,0.2s-0.1,0.2-0.2,0.5c0,0.1-0.1,0.3-0.2,0.4
			c0.1,0,0.2,0,0.3,0c0.2,0,0.4,0,0.6,0c0.1,0,0.2,0,0.3-0.1c0.1,0,0.2,0,0.2,0c0.1,0.1,0.1,0.1,0.2,0.2s0,0.1,0,0.1
			c-0.2,0-0.5,0-0.7,0l0,0c0,0,0.1,0.1,0.2,0.2s0.1,0.2,0,0.3c0,0-0.1,0.2-0.2,0.4s-0.2,0.5-0.4,0.7l0.1,0.1
			c0.1,0.2,0.3,0.4,0.4,0.6c0.1,0.1,0.2,0.2,0.2,0.2c0.1,0.1,0.2,0.1,0.3,0.2c0.1,0.1,0.3,0.1,0.5,0.2c0,0,0.1,0,0.1,0.1v0.1h-0.1
			c-0.3,0-0.6,0.1-0.8,0.1c-0.1,0-0.1,0-0.2-0.1c-0.3-0.4-0.5-0.8-0.7-1.2c-0.1,0.2-0.2,0.3-0.4,0.5c-0.2,0.2-0.4,0.4-0.6,0.6
			c-0.2,0.2-0.5,0.3-0.7,0.4h-0.1v-0.1c0.3-0.2,0.5-0.4,0.8-0.6c0.2-0.2,0.4-0.4,0.6-0.7c0.1-0.1,0.2-0.3,0.3-0.4l-0.1-0.1
			c-0.2-0.4-0.4-0.7-0.5-0.8c-0.1,0.2-0.2,0.3-0.3,0.5h-0.1v-0.1c0.2-0.4,0.3-0.8,0.4-1.1C374.4,311.8,374.5,311.5,374.5,311.2z
			 M375.3,312.2h-0.5h-0.3c0,0,0,0.1-0.1,0.1c-0.1,0.1-0.1,0.2-0.1,0.3h0.2c0.1,0,0.2,0.1,0.2,0.1c0,0.1,0.1,0.2,0.2,0.5
			c0,0.1,0.1,0.1,0.1,0.2l0,0c0.1-0.3,0.2-0.5,0.3-0.8C375.3,312.5,375.3,312.3,375.3,312.2z"/>
	</g>
	<rect x="151.9" y="219.7" fill="none" width="258" height="155.9"/>
	
		<rect x="432.1" y="219.7" fill="none" stroke="#000000" stroke-width="0.2835" stroke-miterlimit="10" width="258" height="155.9"/>
	<g>
		<path d="M567,300.4l-1,3.6c-0.2,0.6,0,0.8,0.3,1c0.2,0.1,0.3,0.1,0.3,0.3c0,0.3-0.3,0.3-0.5,0.3H565c-0.2,0-0.6,0-0.6-0.3
			c0-0.2,0.2-0.2,0.4-0.4c0.2-0.1,0.5-0.4,0.7-1.1l1.2-4.6l0,0L567,300.4z M568.2,303.6h-1.5l0.1-0.6h1.3l-1.1-4.6l0.1-0.6h2.3
			l1.6,6.6c0.1,0.3,0.1,0.5,0.4,0.6c0.1,0.1,0.3,0.1,0.3,0.3c0,0.3-0.4,0.3-0.6,0.3h-2.6c-0.2,0-0.5,0-0.5-0.3
			c0-0.2,0.1-0.2,0.2-0.3c0.3-0.2,0.3-0.2,0.2-0.6L568.2,303.6z"/>
		<circle fill="#FFFFFF" cx="556" cy="294.2" r="12.3"/>
		<g>
			<path d="M573.2,302.5l-1.6-3.8c-0.1-0.2-0.1-0.3-0.3-0.4c-0.1-0.1-0.2-0.1-0.2-0.3c0-0.3,0.3-0.3,0.6-0.3h2.6
				c0.2,0,0.6,0,0.6,0.3c0,0.2-0.1,0.2-0.2,0.3c-0.1,0.1-0.2,0.1-0.2,0.3c0,0.1,0.1,0.3,0.1,0.4l1.3,3v2.5c0,0.4,0,0.5,0.4,0.6
				c0.1,0,0.2,0.1,0.2,0.3c0,0.3-0.4,0.3-0.4,0.3h-3c0,0-0.4,0-0.4-0.3c0-0.1,0.1-0.2,0.2-0.3c0.4-0.1,0.4-0.2,0.4-0.6L573.2,302.5
				L573.2,302.5z M575.6,300.6l0.6-1.2c0.1-0.2,0.2-0.4,0.2-0.6c0-0.6-0.7-0.4-0.7-0.8c0-0.4,0.4-0.3,0.7-0.3h1.2
				c0.2,0,0.5,0,0.5,0.3c0,0.2-0.1,0.3-0.3,0.3c-0.4,0.2-0.6,0.3-0.8,0.8l-1,2.3L575.6,300.6z"/>
			<path d="M579,297.6h2.7l1.1,3.3l0,0l0.5-1.8l0,0v1.9l-1.3,4.5h-0.3l-2.2-6.6c-0.1-0.2-0.1-0.3-0.2-0.5c-0.1-0.2-0.1-0.3-0.3-0.3
				c-0.1,0-0.4,0-0.4-0.3C578.5,297.6,578.8,297.6,579,297.6z M579.4,300.3L579.4,300.3l0.6,1.8v1.8c0.2,1.3,0.9,0.9,0.9,1.4
				c0,0.3-0.4,0.3-0.6,0.3h-1.2c-0.1,0-0.6,0-0.6-0.3c0-0.5,0.7,0,0.8-1.4L579.4,300.3L579.4,300.3z M583.8,297.6h2.8
				c0,0,0.4,0,0.4,0.3c0,0.1-0.1,0.2-0.2,0.3c-0.4,0.1-0.4,0.2-0.4,0.6v5.6c0,0.4,0,0.5,0.4,0.6c0.1,0,0.2,0.1,0.2,0.3
				c0,0.3-0.4,0.3-0.4,0.3h-3c0,0-0.4,0-0.4-0.3c0-0.1,0.1-0.2,0.2-0.3c0.4-0.1,0.4-0.2,0.4-0.6V297.6z"/>
		</g>
		<g>
			<circle fill="none" stroke="#000000" stroke-width="1.4615" stroke-miterlimit="10" cx="555.9" cy="294.1" r="13.1"/>
			<polygon points="535.1,312.9 537.1,314.9 547.1,304 546.2,303.1 			"/>
		</g>
		<circle fill="none" stroke="#FFFFFF" stroke-width="0.5358" stroke-miterlimit="10" cx="556" cy="294.2" r="13.9"/>
		<g>
			<g>
				<defs>
					<circle id="SVGID_1_" cx="556" cy="294.3" r="12.3"/>
				</defs>
				<clipPath id="SVGID_2_">
					<use xlink:href="#SVGID_1_"  overflow="visible"/>
				</clipPath>
				<path clip-path="url(#SVGID_2_)" d="M559.9,290.9l-3.4,10.3c-0.6,1.8-0.1,2.4,1.2,2.8c0.6,0.2,1.1,0.4,1.1,1
					c0,0.8-1.2,0.8-1.9,0.8h-4.2c-0.7,0-2,0-2-0.9c0-0.7,0.6-0.7,1.4-1c0.8-0.3,1.7-1,2.4-3.2l4.4-13.3h0.1L559.9,290.9z M563.8,300
					h-5.3l0.5-1.8h4.4l-3.7-13.4l0.5-1.6h8c0,0,6.3,22.6,5.6,22.6h-9.1c-0.7,0-1.8-0.1-1.8-0.8c0-0.5,0.2-0.6,0.7-0.8
					c0.9-0.5,1.1-0.7,0.8-1.8L563.8,300z"/>
			</g>
		</g>
		<circle fill="none" stroke="#FFFFFF" stroke-width="0.5547" stroke-miterlimit="10" cx="556" cy="294.2" r="12.3"/>
	</g>
</g>
</svg>
