<?xml version="1.0" encoding="utf-8"?>
<!-- Generator: Adobe Illustrator 18.1.1, SVG Export Plug-In . SVG Version: 6.00 Build 0)  -->
<svg version="1.1" id="レイヤー_1" xmlns="http://www.w3.org/2000/svg" xmlns:xlink="http://www.w3.org/1999/xlink" x="0px"
	 y="0px" viewBox="0 0 841.9 595.3" enable-background="new 0 0 841.9 595.3" xml:space="preserve">
<g>
	<g>
		<path fill="#FBDAD1" stroke="#000000" stroke-width="0.2267" stroke-miterlimit="10" d="M267.1,351.6c0,0-87.8-9.4-139.1,0
			l63.4,23.7L267.1,351.6z"/>
		<path fill="#FBDAD1" stroke="#000000" stroke-width="0.2176" stroke-miterlimit="10" d="M127.6,351.7v156c0,0,85.7,6.1,140,0v-156
			C267.5,351.7,154,357.4,127.6,351.7z"/>
		<g>
			<path fill="#FBDAD1" d="M127.3,365.7c0,0,100.3,7,140.1,0"/>
			<g>
				<path fill="none" stroke="#000000" stroke-width="0.2176" stroke-miterlimit="10" d="M127.3,365.7c0,0,1.2,0.1,3.3,0.2"/>
				<path fill="none" stroke="#000000" stroke-width="0.2176" stroke-miterlimit="10" stroke-dasharray="6.6892,1.1149" d="
					M131.7,366c19,1.2,95.3,5.6,132,0.3"/>
				<path fill="none" stroke="#000000" stroke-width="0.2176" stroke-miterlimit="10" d="M264.2,366.2c1.1-0.2,2.2-0.3,3.2-0.5"/>
			</g>
		</g>
		
			<polyline fill="#FBDAD1" stroke="#000000" stroke-width="0.2176" stroke-miterlimit="10" stroke-dasharray="6.5292,1.0882" points="
			255.5,352.7 255.5,386.2 267.1,386.2 		"/>
		<path fill="#FBDAD1" stroke="#000000" stroke-width="0.2176" stroke-miterlimit="10" d="M267.4,356.6c0,0,14.8,3.1,34.9,13.3
			c20.2,10.2,36.3,11.1,36.3,11.1s9.4,3.4,0,5.1c-9.4,1.7-29.8-9.4-39.2-11.9c-9.4-2.6-14.2-8.5-31.8-10.5L267.4,356.6z"/>
		<g>
			<g>
				<path fill="#7A6A56" d="M171.3,437.6c0.1-0.1,0.5-0.5,0.6-0.5c0.1,0,0.2,0.1,0.1,0.3l0,0c1.2-1,2-2.1,2-2.5
					c0-0.2-0.1-0.3-0.3-0.2c-0.2,0.1-1.6,0.1-4.3,3.3c-0.9,1-1.5,2.4-1.5,3.3c0,0.9,0.4,1.4,1.3,1.4c1.5,0,4.2-2,5.4-3
					c0,0.6-0.2,0.8-0.6,1.2c-2.4,2.3-4.4,3-5.5,3c-1.4,0-2.3-0.8-2.3-2.2c0-1.8,1.5-3.7,2.8-4.9c1-1,3.6-2.9,5-2.9
					c0.7,0,1.2,0.4,1.2,1.2c0.1,1.6-3.1,4.8-4.6,5c-0.4,0-0.7-0.2-0.7-0.6c0-0.4,0.3-0.7,0.6-1L171.3,437.6z"/>
				<path fill="#7A6A56" d="M178.8,440.5c-0.7,0.7-1.8,1.9-2.9,1.9c-0.9,0-1.1-0.9-1.1-1.6c0-1.3,0.5-2.7,1.3-3.6
					c1.1-1.3,2.2-2.5,2.6-2.5c0.2,0,0.3,0.3,0.2,0.5c-0.1,1.2-0.4,2.2-3,4.8c-0.1,0.2-0.1,0.5-0.1,0.8c0.1,0.3,0.3,0.5,0.6,0.5
					c0.7,0,1.6-0.8,2.1-1.2L178.8,440.5z M176.2,438.8c0.9-0.8,1.6-2,1.8-2.7C177.5,436.5,176.8,437.6,176.2,438.8L176.2,438.8z"/>
				<path fill="#7A6A56" d="M182,440.7c-0.5,0.7-1.6,1.8-2.5,1.8c-0.7,0-1-0.8-1-1.5c0-1.5,1.5-2.9,2.3-2.9c0.2,0,0.5,0.1,0.5,0.3
					c0,0.6-1.2,1.7-1.7,2c-0.1,0.5,0.1,0.8,0.6,0.8c0.6,0,1.3-0.6,1.8-1L182,440.7z M180.8,437.3c0-0.5,0.6-0.9,1.1-0.9
					c0.2,0,0.4,0.2,0.4,0.4c0,0.5-0.5,1.1-1,1.1C181,437.8,180.8,437.6,180.8,437.3z"/>
				<path fill="#7A6A56" d="M181.6,444.3c-0.1,0.2-0.3,0.5-0.5,0.5c-0.3,0-0.4-0.3-0.4-0.5c0-0.6,0.3-1.2,0.8-1.9
					c0.6-0.8,1.2-1.8,2-3.1l0,0l-1.9,1.8l0-0.6l3.2-3.5c0.3-0.3,0.5-0.7,1-0.7c0.2,0,0.6,0.1,0.6,0.3c0,0.3-0.6,0.9-0.8,1.1
					c-0.4,0.4-0.8,0.9-1,1.4l0,0c0.5-0.4,1.8-1.2,2.4-1.2c0.3,0,0.5,0.3,0.5,0.6c0,0.7-0.6,1.5-2,2.7c1,0.1,1.3-0.1,2.6-1.2l0.1,0.6
					c-0.9,0.9-2,1.8-3.3,1.8c-0.3,0-0.6-0.1-0.9-0.2c-0.2,0-0.4,0.1-0.6,0.1c-0.2,0-0.3,0-0.5-0.1L181.6,444.3z M185.5,440
					c0.1-0.2,0.3-0.4,0.3-0.6c0-0.1,0-0.2-0.1-0.2c-0.2,0-0.8,0.4-0.9,0.5c-0.5,0.3-0.8,0.7-1.1,1.2c0.4,0,0.7,0,1,0.1L185.5,440z"
					/>
				<path fill="#7A6A56" d="M196.9,438.5c-0.4,0.6-1,1.4-1,2.2c0,0.2,0,0.6,0.3,0.6c0.4,0,1.5-1,1.9-1.2l0.1,0.4
					c-0.6,0.6-1.8,1.9-2.7,1.9c-0.5,0-0.6-0.5-0.6-0.9c0-0.3,0-0.6,0.1-0.9c-0.4,0.4-1.6,1.5-2.1,1.5s-0.9-1.2-0.9-1.6
					c0-1.4,2.4-2.7,3.5-2.7c0.3,0,0.4,0.2,0.5,0.3c0.4-0.7,1.5-3.2,2.4-3.2c0.2,0,0.4,0.2,0.4,0.5c0,0.4-0.3,0.9-0.5,1.2
					L196.9,438.5z M193,440.8c0,0.1,0,0.2,0.2,0.2c0.1,0,2.1-1.4,2.3-2.1C193.4,439.6,193.1,440,193,440.8z"/>
				<path fill="#7A6A56" d="M202.7,440.5c-0.7,0.9-2.1,2-3.3,2c-0.9,0-1.3-0.8-1.3-1.6c0-1.6,1.7-3.2,3.3-3.2c0.4,0,0.9,0.1,0.9,0.6
					c0,0.6-0.6,1.5-2.9,2.3l0,0.3c0,0.5,0.4,0.6,0.8,0.6c0.9,0,1.9-0.9,2.5-1.4L202.7,440.5z M201.1,438.5c0-0.1-0.1-0.2-0.1-0.1
					c-0.6,0.2-1.3,0.7-1.6,1.5C200.4,439.6,201.2,438.7,201.1,438.5z"/>
				<path fill="#7A6A56" d="M210.6,440.1c-0.1,0.1-0.5,0.5-0.6,0.5c-0.1,0-0.2-0.1-0.1-0.3l0,0c-1.2,1-2,2.1-2,2.5
					c0,0.2,0.1,0.3,0.3,0.2c0.2-0.1,1.6-0.1,4.3-3.3c0.9-1,1.5-2.4,1.5-3.3c0-0.9-0.4-1.4-1.3-1.4c-1.5,0-4.2,2-5.4,3
					c0-0.6,0.2-0.8,0.6-1.2c2.4-2.3,4.4-3,5.5-3c1.4,0,2.3,0.8,2.3,2.2c0,1.8-1.5,3.7-2.8,4.9c-1,1-3.6,2.9-5,2.9
					c-0.7,0-1.2-0.4-1.2-1.2c-0.1-1.6,3.1-4.8,4.6-5c0.4,0,0.7,0.2,0.7,0.6c0,0.4-0.3,0.7-0.6,1L210.6,440.1z"/>
				<path fill="#7A6A56" d="M216.2,439.6c-0.4,0.5-1,1.2-1.9,1.9c-0.8,0.5-1.5,0.9-2,1.1c-0.2,0-0.1,0,0-0.1
					c1.5-0.6,2.1-1.2,2.5-1.6c0.2-0.2,0.4-0.5,0.4-0.5c0.2-0.3,0.3-0.5,0.4-0.7c-0.3,0-0.3-0.1-0.3-0.4c0-0.9,1.2-1.8,1.5-1.8
					c0.1,0,0.2,0.1,0.2,0.2c0,0.1,0,0.2-0.1,0.3c1.1-0.2,1.8-0.3,1.9-0.2c0.2,0.2,0.3,0.4,0.3,0.6c0,0.4-0.2,0.6-0.5,0.8
					c-0.4,0.3-1,0.9-1,1.4c0,0.2,0.2,0.3,0.4,0.3c0.5,0,1.3-0.8,1.7-1.1l0.1,0.5c-0.5,0.5-1.9,1.9-2.6,1.9c-0.5,0-0.8-0.5-0.8-0.9
					c0-0.8,0.6-1.5,1.1-2.1l0,0L216.2,439.6z"/>
				<path fill="#7A6A56" d="M223,440.7c-0.5,0.7-1.6,1.8-2.5,1.8c-0.7,0-1-0.8-1-1.5c0-1.5,1.5-2.9,2.3-2.9c0.2,0,0.5,0.1,0.5,0.3
					c0,0.6-1.2,1.7-1.7,2c-0.1,0.5,0.1,0.8,0.6,0.8c0.6,0,1.3-0.6,1.8-1L223,440.7z M221.9,437.3c0-0.5,0.6-0.9,1.1-0.9
					c0.2,0,0.4,0.2,0.4,0.4c0,0.5-0.5,1.1-1,1.1C222.1,437.8,221.9,437.6,221.9,437.3z"/>
				<path fill="#7A6A56" d="M222.7,444.3c-0.1,0.2-0.3,0.5-0.5,0.5c-0.3,0-0.4-0.3-0.4-0.5c0-0.6,0.3-1.2,0.8-1.9
					c0.6-0.8,1.2-1.8,2-3.1l0,0l-1.9,1.8l0-0.6l3.2-3.5c0.3-0.3,0.5-0.7,1-0.7c0.2,0,0.6,0.1,0.6,0.3c0,0.3-0.6,0.9-0.8,1.1
					c-0.4,0.4-0.8,0.9-1,1.4l0,0c0.5-0.4,1.8-1.2,2.4-1.2c0.3,0,0.5,0.3,0.5,0.6c0,0.7-0.6,1.5-2,2.7c1,0.1,1.3-0.1,2.6-1.2l0.1,0.6
					c-0.9,0.9-2,1.8-3.3,1.8c-0.3,0-0.6-0.1-0.9-0.2c-0.2,0-0.4,0.1-0.6,0.1c-0.2,0-0.3,0-0.5-0.1L222.7,444.3z M226.5,440
					c0.1-0.2,0.3-0.4,0.3-0.6c0-0.1,0-0.2-0.1-0.2c-0.2,0-0.8,0.4-0.9,0.5c-0.5,0.3-0.8,0.7-1.1,1.2c0.4,0,0.7,0,1,0.1L226.5,440z"
					/>
				<g>
					<path opacity="0.42" fill="none" stroke="#8FC31F" stroke-width="0.7111" stroke-miterlimit="10" d="M193.3,432.5
						c-1.8,0.9-4.8,2-8.1,1.6c-2.1-0.3-2.9-0.9-3.2-1.1c-2.3-1.9-1.9-5.5-1.9-5.5c-1-0.7-2.5-2.7-0.8-4.9c1.6-2.2,4.1-0.7,4.1-0.7
						c2-0.5,4.2-1.8,4.2-1.8c0.1-2.2,2.2-2.6,2.2-2.6c4.5-0.8,4.2,3.8,4.2,3.8c1.9,1.4,3,3.4,2.7,5.2c-0.3,1.7-1.7,2.6-3,3.5
						c-0.4,0.3-2.4,1.6-5.3,1.7c-1.3,0.1-3.1,0.1-4.7-1.1c-0.3-0.2-1.7-1.4-1.5-2.4c0.3-1.1,2.5-0.8,5.5-2.1c3.7-1.5,5-3.9,5.6-3.5
						c0.7,0.5-0.2,4.9-3.4,6.4c-2.2,1.1-4.6,0.3-5.2,0"/>
					<g>
						<path opacity="0.5" fill="#7A6A56" d="M206,430.3c0-0.1,0.3-0.3,0.3-0.3c0.1,0,0.1,0,0.1,0.1l0,0c0.6-0.7,1-1.4,1-1.7
							c0-0.1-0.1-0.1-0.2-0.1c-0.1,0.1-1,0.3-2.4,2.4c-0.4,0.7-0.7,1.5-0.6,2c0.1,0.5,0.4,0.7,1,0.6c1-0.2,2.5-1.7,3.1-2.4
							c0.1,0.3,0,0.5-0.3,0.8c-1.3,1.6-2.5,2.3-3.2,2.4c-0.9,0.2-1.6-0.1-1.8-0.9c-0.2-1,0.5-2.2,1.2-3.1c0.6-0.7,2-2.1,2.9-2.3
							c0.5-0.1,0.8,0,1,0.4c0.3,0.9-1.4,3-2.4,3.4c-0.2,0.1-0.5,0-0.5-0.2c0-0.2,0.1-0.4,0.3-0.6L206,430.3z"/>
						<path opacity="0.5" fill="none" stroke="#B28247" stroke-width="1.0849" stroke-miterlimit="10" d="M215.5,430.2
							c-0.2,0.4-0.6,1-1.2,1.2c-1.7,0.5-2.8-2.8-6.2-4.2c-3.6-1.5-6.9,0.3-7.9-1.4c-0.3-0.6-0.1-1.3,0-1.7c0.9-3.2,6.2-7.1,10.9-5.2
							C215.9,420.8,217,427.3,215.5,430.2z"/>
					</g>
				</g>
			</g>
		</g>
	</g>
	<path fill="#FBDAD1" stroke="#000000" stroke-width="0.2176" stroke-miterlimit="10" d="M328,386.3L328,386.3c-2,0-3.6-1.6-3.6-3.6
		v-1.4c0-2,1.6-3.6,3.6-3.6l0,0c2,0,3.6,1.6,3.6,3.6v1.4C331.6,384.7,329.9,386.3,328,386.3z"/>
</g>
<g>
	<g>
		
			<rect x="437.2" y="183.2" fill="#FBDAD1" stroke="#000000" stroke-width="0.3316" stroke-miterlimit="10" width="278.7" height="394.7"/>
		<g>
			<path fill="#B3B3B3" stroke="#000000" stroke-width="0.3367" stroke-miterlimit="10" d="M577.2,595.7l109.5-0.1
				c0,0-67.8-348-64.4-449.4c0,0,88.1-71.7,32.2-111.9c0,0-32.1-29.7-77.8-29.7v0c0,0,0,0,0,0c0,0,0,0,0,0v0
				c-45.7,0-77.8,29.7-77.8,29.7c-55.9,40.2,32.2,111.9,32.2,111.9c3.4,101.4-64.4,449.4-64.4,449.4L577.2,595.7z M543.5,151.1
				c0,0-62.7-68.2-22.9-106.4c0,0,22.9-28.2,55.4-28.3v0c0,0,0,0,0,0c0,0,0,0,0,0v0c32.5,0,55.4,28.3,55.4,28.3
				c39.8,38.2-22.9,106.4-22.9,106.4c-2.4,96.4,45.8,427.3,45.8,427.3l-78.3,0.3l-78.3-0.3C497.6,578.4,545.9,247.5,543.5,151.1z"/>
			<rect x="461.2" y="577.8" fill="#FFFFFF" width="228.7" height="21.8"/>
		</g>
	</g>
	<line fill="none" stroke="#000000" stroke-width="0.3918" stroke-miterlimit="10" x1="461.2" y1="577.9" x2="695.2" y2="577.9"/>
	<g>
		<g>
			<path fill="#7A6A56" d="M541.8,388.1c0.1-0.1,0.6-0.6,0.8-0.6c0.2,0,0.2,0.1,0.2,0.4l0,0c1.6-1.4,2.6-2.8,2.6-3.3
				c0-0.3-0.2-0.4-0.4-0.3c-0.3,0.1-2.1,0.1-5.8,4.4c-1.1,1.3-2,3.1-2,4.4c0,1.1,0.6,1.8,1.7,1.8c2,0,5.6-2.7,7.1-4
				c0,0.8-0.2,1.1-0.8,1.6c-3.2,3-5.8,4-7.4,4c-1.8,0-3.1-1.1-3.1-3c0-2.4,2-4.9,3.7-6.5c1.4-1.3,4.8-3.9,6.7-3.9
				c1,0,1.6,0.5,1.6,1.5c0.1,2.2-4.1,6.3-6.1,6.6c-0.5,0.1-0.9-0.3-0.9-0.8c0-0.5,0.4-1,0.8-1.3L541.8,388.1z"/>
			<path fill="#7A6A56" d="M551.7,391.9c-0.9,0.9-2.4,2.6-3.8,2.6c-1.2,0-1.4-1.1-1.4-2.1c0-1.7,0.7-3.5,1.8-4.8
				c1.4-1.8,3-3.3,3.5-3.3c0.3,0,0.3,0.4,0.3,0.6c-0.1,1.5-0.5,3-4,6.4c-0.1,0.3-0.2,0.7-0.1,1.1c0.1,0.4,0.4,0.7,0.8,0.7
				c0.9,0,2.1-1,2.8-1.6L551.7,391.9z M548.3,389.7c1.1-1.1,2.2-2.6,2.4-3.5C550,386.6,549.1,388,548.3,389.7L548.3,389.7z"/>
			<path fill="#7A6A56" d="M556,392.2c-0.7,0.9-2.2,2.3-3.4,2.3c-1,0-1.4-1.1-1.4-1.9c0-2,2-3.9,3-3.9c0.3,0,0.7,0.1,0.7,0.5
				c0,0.8-1.6,2.2-2.3,2.7c-0.1,0.7,0.1,1,0.9,1c0.9,0,1.7-0.9,2.3-1.3L556,392.2z M554.4,387.7c0-0.7,0.8-1.2,1.4-1.2
				c0.3,0,0.5,0.2,0.5,0.5c0,0.6-0.6,1.4-1.3,1.4C554.7,388.4,554.4,388.1,554.4,387.7z"/>
			<path fill="#7A6A56" d="M555.5,397c-0.1,0.2-0.4,0.7-0.7,0.7c-0.4,0-0.5-0.4-0.5-0.7c0-0.8,0.3-1.6,1-2.6
				c0.7-1.1,1.6-2.4,2.6-4.2l0,0l-2.6,2.4l-0.1-0.8l4.3-4.6c0.4-0.4,0.7-0.9,1.3-0.9c0.2,0,0.7,0.1,0.7,0.4c0,0.4-0.8,1.1-1.1,1.4
				c-0.6,0.6-1.1,1.2-1.4,1.9l0,0c0.7-0.5,2.3-1.6,3.2-1.6c0.4,0,0.7,0.3,0.7,0.8c0,0.9-0.8,2-2.6,3.6c1.4,0.1,1.7-0.2,3.4-1.6
				l0.1,0.7c-1.2,1.2-2.7,2.3-4.4,2.3c-0.4,0-0.8-0.1-1.1-0.3c-0.2,0-0.5,0.1-0.7,0.1c-0.2,0-0.4,0-0.6-0.1L555.5,397z M560.6,391.2
				c0.2-0.2,0.4-0.5,0.4-0.8c0-0.1,0-0.2-0.2-0.2c-0.3,0-1,0.5-1.2,0.6c-0.6,0.4-1.1,1-1.5,1.6c0.5,0,0.9,0,1.4,0.2L560.6,391.2z"/>
			<path fill="#7A6A56" d="M575.8,389.3c-0.5,0.8-1.3,1.9-1.3,2.9c0,0.3,0,0.8,0.4,0.8c0.6,0,2-1.3,2.6-1.6l0.1,0.5
				c-0.8,0.8-2.4,2.5-3.6,2.5c-0.6,0-0.9-0.6-0.9-1.2c0-0.4,0.1-0.8,0.1-1.2c-0.6,0.5-2.1,2.1-2.8,2.1c-0.7,0-1.2-1.6-1.2-2.1
				c0-1.9,3.2-3.5,4.6-3.6c0.3,0,0.5,0.2,0.7,0.5c0.5-0.9,2-4.3,3.1-4.3c0.3,0,0.5,0.3,0.5,0.6c0,0.5-0.4,1.1-0.7,1.6L575.8,389.3z
				 M570.6,392.3c0,0.1,0.1,0.3,0.2,0.3c0.2,0,2.8-1.9,3.1-2.8C571,390.7,570.7,391.2,570.6,392.3z"/>
			<path fill="#7A6A56" d="M583.4,391.9c-1,1.1-2.8,2.7-4.4,2.7c-1.2,0-1.7-1.1-1.8-2.1c-0.1-2.1,2.3-4.3,4.4-4.3
				c0.5,0,1.2,0.1,1.2,0.8c0,0.8-0.8,2-3.9,3l0,0.4c0,0.6,0.5,0.8,1,0.8c1.1,0,2.5-1.2,3.4-1.9L583.4,391.9z M581.4,389.3
				c0-0.1-0.1-0.2-0.2-0.2c-0.8,0.2-1.7,1-2.2,2.1C580.4,390.6,581.4,389.5,581.4,389.3z"/>
			<path fill="#7A6A56" d="M594,391.3c-0.1,0.1-0.6,0.6-0.8,0.6c-0.2,0-0.2-0.1-0.2-0.4l0,0c-1.6,1.4-2.6,2.8-2.6,3.3
				c0,0.3,0.2,0.4,0.4,0.3c0.3-0.1,2.1-0.1,5.8-4.4c1.1-1.3,2-3.1,2-4.4c0-1.1-0.6-1.8-1.7-1.8c-2,0-5.6,2.7-7.1,4
				c0-0.8,0.2-1.1,0.8-1.6c3.2-3,5.8-4,7.4-4c1.8,0,3.1,1.1,3.1,3c0,2.4-2,4.9-3.7,6.5c-1.4,1.3-4.8,3.9-6.7,3.9
				c-1,0-1.6-0.5-1.6-1.5c-0.1-2.2,4.1-6.3,6.1-6.6c0.5-0.1,0.9,0.3,0.9,0.8c0,0.5-0.4,1-0.8,1.3L594,391.3z"/>
			<path fill="#7A6A56" d="M601.3,390.8c-0.5,0.7-1.3,1.6-2.6,2.5c-1,0.7-2,1.2-2.7,1.4c-0.2,0.1-0.1,0-0.1-0.1
				c2-0.9,2.8-1.6,3.3-2.1c0.3-0.3,0.5-0.7,0.5-0.7c0.3-0.3,0.4-0.7,0.6-0.9c-0.3,0-0.4-0.2-0.4-0.5c0-1.2,1.6-2.3,2-2.3
				c0.2,0,0.3,0.1,0.3,0.3c0,0.2,0,0.3-0.1,0.5c1.5-0.2,2.4-0.4,2.6-0.2c0.2,0.3,0.4,0.6,0.4,0.9c0,0.5-0.3,0.7-0.7,1.1
				c-0.5,0.4-1.3,1.2-1.3,1.8c0,0.3,0.3,0.5,0.5,0.5c0.7,0,1.7-1.1,2.2-1.5l0.1,0.6c-0.6,0.7-2.5,2.5-3.4,2.5
				c-0.7,0-1.1-0.6-1.1-1.2c0-1.1,0.8-2,1.5-2.7l0,0L601.3,390.8z"/>
			<path fill="#7A6A56" d="M610.4,392.2c-0.7,0.9-2.2,2.3-3.4,2.3c-1,0-1.4-1.1-1.4-1.9c0-2,2-3.9,3-3.9c0.3,0,0.7,0.1,0.7,0.5
				c0,0.8-1.6,2.2-2.3,2.7c-0.1,0.7,0.1,1,0.9,1c0.9,0,1.7-0.9,2.3-1.3L610.4,392.2z M608.8,387.7c0-0.7,0.8-1.2,1.4-1.2
				c0.3,0,0.5,0.2,0.5,0.5c0,0.6-0.6,1.4-1.3,1.4C609.1,388.4,608.8,388.1,608.8,387.7z"/>
			<path fill="#7A6A56" d="M609.9,397c-0.1,0.2-0.4,0.7-0.7,0.7c-0.4,0-0.5-0.4-0.5-0.7c0-0.8,0.3-1.6,1-2.6
				c0.7-1.1,1.6-2.4,2.6-4.2l0,0l-2.6,2.4l-0.1-0.8l4.3-4.6c0.4-0.4,0.7-0.9,1.3-0.9c0.2,0,0.7,0.1,0.7,0.4c0,0.4-0.8,1.1-1.1,1.4
				c-0.6,0.6-1.1,1.2-1.4,1.9l0,0c0.7-0.5,2.3-1.6,3.2-1.6c0.4,0,0.7,0.3,0.7,0.8c0,0.9-0.8,2-2.6,3.6c1.4,0.1,1.7-0.2,3.4-1.6
				l0.1,0.7c-1.2,1.2-2.7,2.3-4.4,2.3c-0.4,0-0.8-0.1-1.1-0.3c-0.2,0-0.5,0.1-0.7,0.1c-0.2,0-0.4,0-0.6-0.1L609.9,397z M615,391.2
				c0.2-0.2,0.4-0.5,0.4-0.8c0-0.1,0-0.2-0.2-0.2c-0.3,0-1,0.5-1.2,0.6c-0.6,0.4-1.1,1-1.5,1.6c0.5,0,0.9,0,1.4,0.2L615,391.2z"/>
			<g>
				<path opacity="0.42" fill="none" stroke="#8FC31F" stroke-width="0.9433" stroke-miterlimit="10" d="M570.9,381.3
					c-2.4,1.2-6.3,2.7-10.8,2.2c-2.7-0.3-3.9-1.2-4.2-1.5c-3-2.5-2.5-7.2-2.5-7.2c-1.3-0.9-3.3-3.6-1.1-6.6s5.4-1,5.4-1
					c2.6-0.7,5.5-2.4,5.5-2.4c0.2-3,3-3.5,3-3.5c6-1,5.5,5,5.5,5c2.5,1.8,4,4.5,3.6,6.9c-0.4,2.2-2.3,3.5-4,4.6
					c-0.5,0.4-3.2,2.1-7.1,2.2c-1.7,0.1-4.2,0.2-6.2-1.4c-0.4-0.3-2.3-1.8-2-3.1c0.4-1.5,3.3-1.1,7.3-2.8c5-2.1,6.6-5.2,7.4-4.7
					c1,0.7-0.3,6.5-4.5,8.6c-3,1.5-6.1,0.4-6.9,0.1"/>
				<g>
					<path opacity="0.5" fill="#7A6A56" d="M587.8,378.4c0.1-0.1,0.3-0.4,0.5-0.5c0.1,0,0.2,0,0.2,0.2l0,0c0.9-1,1.3-1.9,1.3-2.2
						c0-0.1-0.2-0.2-0.3-0.1c-0.2,0.1-1.4,0.4-3.2,3.2c-0.6,0.9-0.9,2-0.7,2.6c0.1,0.6,0.6,0.9,1.3,0.7c1.3-0.3,3.3-2.3,4.2-3.2
						c0.1,0.4,0,0.6-0.3,1c-1.7,2.1-3.3,3-4.3,3.2c-1.2,0.3-2.1-0.2-2.4-1.2c-0.3-1.3,0.7-3,1.6-4.1c0.7-0.9,2.6-2.8,3.9-3.1
						c0.6-0.1,1.1,0,1.3,0.6c0.3,1.2-1.9,4-3.2,4.5c-0.3,0.1-0.6,0-0.7-0.3c-0.1-0.3,0.2-0.6,0.4-0.8L587.8,378.4z"/>
					<path opacity="0.5" fill="none" stroke="#B28247" stroke-width="1.4391" stroke-miterlimit="10" d="M600.4,378.2
						c-0.3,0.5-0.7,1.3-1.6,1.6c-2.3,0.7-3.7-3.7-8.2-5.6c-4.8-2-9.2,0.4-10.4-1.8c-0.4-0.8-0.2-1.7,0-2.3c1.2-4.3,8.2-9.4,14.5-6.9
						C600.9,365.8,602.4,374.4,600.4,378.2z"/>
				</g>
			</g>
		</g>
	</g>
</g>
</svg>
