<?xml version="1.0" encoding="utf-8"?>
<!-- Generator: Adobe Illustrator 18.1.1, SVG Export Plug-In . SVG Version: 6.00 Build 0)  -->
<svg version="1.1" id="レイヤー_1" xmlns="http://www.w3.org/2000/svg" xmlns:xlink="http://www.w3.org/1999/xlink" x="0px"
	 y="0px" viewBox="0 0 266.6 122.6" enable-background="new 0 0 266.6 122.6" xml:space="preserve">
<g>
	<text transform="matrix(1 0 0 1 0.4675 108.0579)" fill="#7A6A56" font-family="'BrushScriptStd'" font-size="51.996">Clip de Trip</text>
	<g>
		<path opacity="0.42" fill="none" stroke="#8FC31F" stroke-width="3.0332" stroke-miterlimit="10" d="M116.1,66.4
			c-7.8,4-20.3,8.7-34.7,6.9c-8.8-1.1-12.5-3.8-13.6-4.8c-9.7-8-7.9-23.3-7.9-23.3c-4.1-2.9-10.6-11.6-3.6-21.1
			c7-9.5,17.4-3.1,17.4-3.1c8.4-2.2,17.8-7.8,17.8-7.8c0.6-9.5,9.5-11.3,9.5-11.3c19.4-3.4,17.7,16.2,17.7,16.2
			c8.2,5.8,13,14.4,11.6,22.2c-1.3,7.1-7.4,11.2-12.9,14.9c-1.8,1.2-10.3,6.7-22.8,7.2c-5.6,0.2-13.4,0.5-20-4.7
			c-1.3-1-7.5-5.9-6.4-10.1c1.2-4.8,10.6-3.6,23.4-8.9c15.9-6.6,21.2-16.8,23.7-15c3.1,2.2-0.9,20.9-14.5,27.5
			c-9.6,4.7-19.5,1.2-22.1,0.2"/>
		<g>
			<path opacity="0.5" fill="#7A6A56" d="M170.3,56.9c0.2-0.3,1.1-1.4,1.5-1.5c0.3-0.1,0.6,0.1,0.5,0.6l0.1,0c2.8-3.1,4.3-6.1,4.1-7
				c-0.1-0.5-0.5-0.6-1-0.4c-0.6,0.3-4.4,1.3-10.4,10.3c-1.9,2.8-2.9,6.4-2.4,8.5c0.4,2,1.9,2.9,4.3,2.4c4.3-1,10.7-7.2,13.4-10.3
				c0.4,1.4,0,1.9-1.1,3.2c-5.4,6.8-10.7,9.7-13.9,10.4c-3.8,0.8-6.9-0.5-7.6-3.7c-0.9-4.1,2.2-9.5,5.1-13c2.4-2.9,8.5-9,12.5-9.9
				c2-0.5,3.6,0.2,4.1,1.9c1.1,3.7-6,12.9-10.2,14.4c-1,0.3-2,0-2.2-0.9c-0.2-0.8,0.5-1.9,1.1-2.6L170.3,56.9z"/>
			<path opacity="0.5" fill="none" stroke="#B28247" stroke-width="4.6276" stroke-miterlimit="10" d="M210.7,56.5
				c-0.9,1.7-2.3,4.3-5.1,5.2c-7.4,2.3-12-11.9-26.5-17.9c-15.5-6.4-29.6,1.3-33.5-5.9c-1.4-2.6-0.6-5.5-0.1-7.4
				c3.9-13.8,26.3-30.1,46.5-22.1C212.4,16.4,217.4,44,210.7,56.5z"/>
		</g>
	</g>
</g>
</svg>
