<?xml version="1.0" encoding="utf-8"?>
<!-- Generator: Adobe Illustrator 18.1.1, SVG Export Plug-In . SVG Version: 6.00 Build 0)  -->
<svg version="1.1" id="レイヤー_1" xmlns="http://www.w3.org/2000/svg" xmlns:xlink="http://www.w3.org/1999/xlink" x="0px"
	 y="0px" viewBox="0 0 529.6 450.2" enable-background="new 0 0 529.6 450.2" xml:space="preserve">
<g opacity="0.5">
	<g>
		<path fill="#040000" d="M172.6,200.4C172.6,200.4,172.7,200.3,172.6,200.4C172.7,200.3,172.6,200.4,172.6,200.4z"/>
		<path fill="#040000" d="M172.7,200.3c0.1,0,0.3,0,0.4-0.1C173,200.3,172.8,200.3,172.7,200.3z"/>
		<path fill="#040000" d="M172.1,318.9c34.4,34.9,77.5,37.8,90.7,38c8.1,0.2,61,0.3,100.6-42.6c32.8-35.5,35-77.2,35.2-88
			c0,0-10.9,67.4-95.9,91.8c0,0-4.6,2.5-8.4,1.6c-3.8-0.9-13.3-3.8-26.8,1.8c-13.5,5.6-49.6-10.1-67.2-33.1c0,0,4.1,10.6,11.3,18.9
			c0,0-21.2-4.5-33.6,5.4c0,0,11.9-5,28.9-0.5c0,0-11,15.3,2,23.7c13.1,8.3,23.7,0,19.6-8.6c0,0-3.2,10.4-11,6.5
			c-7.9-3.8-9.9-22.8,16.5-13.8c24.1,8.2,30.1,5.2,31,4.6c-3.9,3-31,22.8-59.9,13.9c-18.9-5.8-31.7-21.8-36-27.1
			c-6.3-7.9-11.3-17.5-11.3-17.5c-2-3.8-4.4-8.4-5.7-13c-1.1-4-3.6-15.8,5.4-32.8c0,0,9.7-0.8,9.1,6c-0.5,6.8-8.6,9.9-12,6.3
			c0,0-1.3,7.6,26.9,15.2c0,0-12.3-6.5-15.7-12.8c0,0,1.3-0.5,2.9-2.9c0,0,5.2,5.7,19.3,11c0,0-15.4-10.5-20.9-29.3
			c0,0-10.5-1.3-11-8.6c0,0,11.2,2.6,18.5-1.8c0,0,9.4,38.4,37.4,59.6c0,0-29.8-32.1-24.3-78.4c-3.2,5.1-6.9,8.2-9.3,9.9
			c-2.2,1.5-13.1,9.1-22.3,4.7c-1-0.5-3.5-1.7-5.1-4.3c-3.2-5.2-1.6-13.2,4.2-20.2c1.2-1.5,3.2-3.8,6.2-5.8
			c2.4-1.6,7.8-5.1,13.3-3.4c1.1,0.3,5.3,1.8,6.1,5.2c0.5,2-0.5,3.8-0.9,4.5c-3.4,6.5-8.4,5.5-9.1,4.7c-0.8-0.8-2.3-6.7,1.9-7.5
			c-1.2,0.2-4.1,1-5.8,3.8c-1.9,3.2-1,7.1,1,9.5c3,3.6,7.8,3.1,8.6,3c6-0.6,9.7-6.3,11-10.3c1-3.2,0.6-5.8,0.5-6.6
			c-0.8-4.9-4-7.9-5.1-8.7c0,0,14.1,2.4,26.8-13.9s20.8-29.7,25.4-32.8c4.6-3,13.2-8.6,23.4-9.6c0,0-10.9-2-15.5-0.3
			c0,0,9.6-24.4,20.6-28.2c10.9-3.8,15.5,8.4,14.5,11.7c-1,3.3-0.3,11.9-14.7,14.5c0,0,8.4,2.5,33.8-7.4
			c25.4-9.9,58.6-0.5,78.9,27.6c0,0-38.3-61.3-116.4-57.8c-78.1,3.6-111,74.5-111,74.5s35.3-63.4,101.7-62.5
			c-2.2,2.9-5.3,7.5-8.4,13.5c-4.6,9-5,13.5-9.4,21.1c-1.9,3.3-4,6.1-10.3,13.2c-18.9,21.1-28.5,32-39.2,31.8
			c-20.6-0.3-11.7-19.2-11.7-19.2s4.4-5.6,10.9-1.2c0,0,2.9,4.8-1,7.6c-3.8,2.9-9.5-0.6-6.7-3.7c0,0-3.8,1.3-2.9,5.2
			c1,4,8.9,6.7,14,4c5.1-2.7,15.1-8.1,24.8-29.9c0,0-8.7,15.9-21,20.6c0,0-0.2-14.8-14.9-10.6c-14.8,4.1-14.9,21.9-10.2,28.4
			c0,0-18.6,6.6-19.2,23.3c-0.6,16.7,1.2,25.6,10.8,32.5c0,0-7.8,0.5-9.7,10.4c0,0-12.1-21.6-9.9-43
			C135.4,218.7,129.5,275.6,172.1,318.9z M389.5,258.3c0,0-16.9,46.8-61.3,76.9c0,0-13.4-2.1-25.7-13.7
			C302.5,321.5,365.9,300.9,389.5,258.3z M299.6,326.4c-1.2-1.1-1.9-1.9-1.9-1.9C298.5,325.1,299.1,325.8,299.6,326.4
			c3.7,3.5,12.3,10.8,21.2,11.3c0,0-8.7,8.7-25.7,12.5C295.2,350.2,307.4,336,299.6,326.4z M267.8,326.4c7.1-3.5,22.2-3.8,23.3,8.3
			c1.2,12-9.4,11.8-9.4,11.8c-13.4-3.5-4.7-12.3-4.7-12.3c-13.7,10.1-0.2,16-0.2,16c-28.5,6.6-56.1-3.3-56.1-3.3
			C241.2,347.4,260.8,330,267.8,326.4z M341,119.5c0,0-21.7-5.4-36.1-1.5c-14.3,3.9-24.1,7.6-24.1,7.6s9.3-14.6-5.6-25.4
			C275.2,100.1,314,99.9,341,119.5z"/>
	</g>
	<path d="M502.9,91.6c-6.7,13.8-18.5,10.2-30.3,7.5c-11.8-2.8-22.8,10.6-28.3,16.9c-5.5,6.3-18.1,25.5-46,19.3
		c0,0,35.8-23.2,35.4-65.2c0,0-14.5,46.8-59.3,44c0,0,16.9-8.6,22.4-33.4c5.5-24.8,2.4-42,32.2-47.2c0,0-30.3-3.9-40.9,8.6
		c-10.6,12.6-5.5,22-10.6,25.1c-5.1,3.1-8.3,0.4-6.3-3.9c0,0-8.3,0-11.4,14.9c-3.1,14.9-27.5,11-27.5,11s6.7-5.5,1.6-14.5
		c-5.1-9-8.6-20.8,16.9-29.5c0,0-16.5-4.3-27.1,4.3s-7.1,16.9-9,23.2c-2,6.3-5.5,9.8-8.6,8.6c-3.1-1.2-5.9-7.9-2.8-17.7
		c3.1-9.8,9-29.9-4.7-42.4c0,0,4.3,10.6,0,14.1c-4.3,3.5-8.6-27.1-21.6-31.4C264-0.4,258.8,0,258.8,0s19.6,7.5,16.1,28.7
		c-3.5,21.2-14.9,26.7-4.3,48.7c0,0-9-3.5-14.5-22.4c-5.5-18.9-22.8-33-42-34.6c0,0,21.6,7.5,16.1,20.8c-5.5,13.4-13.4,17.3-11,25.9
		s5.5,10.2,5.5,10.2s-5.5-9,0.8-9.4c6.3-0.4,8.3,13.8,0.8,14.9c-7.5,1.2-20.8-2.4-27.1-16.5c-6.3-14.1-27.5-7.5-27.5-7.5
		s15.3,2,16.5,15.7c1.2,13.8,8.6,24.4,8.6,24.4s-18.1,4.7-29.9-6.3c-11.8-11-4.7-38.1-22.8-39.7c-18.1-1.6-15.7,13.8-15.7,13.8
		s6.7-9.4,11-3.1c4.3,6.3,0.4,20.4-5.1,26.7c-5.5,6.3-2,22,13.4,25.1c-1.4-0.6-2.2-1.9-2-3.3c0.2-1.3,1.1-2.2,2.1-2.5
		c1.6-0.5,3.2,0.5,3.9,1.6c1.1,1.7,0.1,4.1-0.3,5.3c-1,3-1.4,7.7,1.4,15.1c0,0-6.4,3.9-15.9,0c-9.5-3.9-18.7-18.7-32.5-17.3
		c-13.8,1.4-11-16.6-11-16.6s-12.7,14.5,0.4,27.2s27.9,7.8,27.2,25.8c-0.7,18-15.9-7.8-15.9-7.8s4.9,23.3,23,28.6
		c18,5.3-34.8,30.1-65.5,9.3C31.9,160,0,202.8,0,202.8s26.1-25.5,47.5-9.8c23.7,17.3,37.4,22.4,63.1,34.2c1.6,0.8,6,2.7,6.4,6
		c0.5,3.9-4.6,8.4-9.3,9.5c-1.2,0.3-3.4,0.8-5.4-0.4c-2.1-1.3-3-3.9-2.8-6c0.3-2.4,2.4-5,2.4-5c-7.4,2.1-12.2,7.2-12.2,12.3
		c0,3.6,2.4,6.1,3.3,7.1c6.7,7.2,18.6,4.7,19.9,4.4c0,0,4.1,13.3-11,27.2s-49.8-27.2-66.6-18c-16.8,9.3-24.9,27.2-9.8,35.3
		c15.1,8.1,23.2-11,23.2-11c-6.5,7.1-14.9,7.9-18.2,4.7c-3.4-3.3-2.4-11.9,2.2-14.8c1.1-0.7,3.5-1.7,8.8-0.2
		c12.8,3.9,21.4,16.9,25.2,23.5c0,0,1.2,13.9-18,11c-19.1-2.9-34.2,7.5-38.2,12.2c0,0,21.4-10.4,33.6-4.1c36.4,19,57.3-6.8,75.3-18
		c3.8-2.4,6.8-4.6,8.6-6c-1.9,2.3-4.5,5.6-7.4,9.6c-2.4,3.4-10.7,14.9-16.5,27.2c-8.7,18.2-11.5,36.6-12.5,48.1
		c0,0,26.6-52.1,60.8-52.1c0,0-13.3,16.8-13.3,28.4c0,11.6,2.3,22-14.5,26.6c9.5,3.3,14.5,1.9,17.4,0c7.2-4.8,3-14.7,12.1-24.9
		c4.4-4.9,11.6-9.7,16.4-7.7c1.1,0.5,2.8,1.5,3.9,3.1c5.2,7.5,1.7,15.6-14.5,23.2s-12.2,18.5-12.2,18.5s2.3-9.3,11-9.3
		s0.6,12.2-4.1,14.5c-4.6,2.3-14.5,20.3-7,29.5c7.5,9.3,12.7,8.7,12.7,8.7s-7.5-4.6-2.3-8.7c5.2-4.1,4,3.9,4,3.9s3.3-4.2,0.4-12.6
		c-2.9-8.4-1.3-20.5,7.1-23.9s29.7-9.2,43.1-23.9c-0.8,4.8-1.9,10-3.3,15.5c-2.1,7.9-4.6,14.9-7.1,20.9c20.2-31,28.2-36.7,31.5-35.3
		c1.9,0.9,1.8,3.9,3.8,9.2c3.5,9.2,10,15.4,15.3,19.4c0,0-3.3-8,2.9-9.2c6.3-1.3,6.3,14.7,1.7,25.5c-4.6,10.9,2.1,24.3,15.1,28.9
		c-3.1-2.5-8.1-7.5-9.7-15.1c-2-9.2,1.3-20.3,5.1-20.9c0.9-0.1,2,0.3,2.7,1c1.9,2,0.3,5.9,0.2,6.1c0,0,23.4-15.9,13.4-48.1
		c0,0,17.6,1.7,16.7,18c-0.8,16.3,4.4,19.7,15.6,24.9c0,0-14.3-10.4,0-30.6c14.3-20.2,10.4-28,10.4-28s19.5-1.3,30,26.1
		c10.4,27.4,22.1,22.1,31.3,24.1c9.1,2,6.9-2.2,15.2,4c0,0-2.4-6.5-11-8.6c-8.6-2.1-9.6-5.5-9.6-5.5s12.7,4.5,35.5-10.7
		c22.7-15.1,26.9,9.6,26.9,9.6s5.2-25.8-17.6-21c-14.8,3.1-20.1,6.2-27.1,3c-5.2-2.3-7.5-7.3-8-8.4c-2.4-5.6,0.2-8.8,0-14.6
		c-0.5-15-18.3-24-15.6-28.1c1.1-1.7,5-1.4,7.4-1.2c3.7,0.3,6.3,1.7,8.1,2.5c0,0,6.7,3.3,16,5.8c9.3,2.5,14,1.3,15.8,5
		c0.9,1.9,0.3,3.9,0.3,5.4c0,3.4-6.5,6.9-10.7,5.9c0,0,12.4,10,19.6-2.1c7.2-12.1,9-28.6-7.9-39.6c-16.9-11-23.8-16.2-24.8-20.7
		c0,0,15.2,14,43.1,8.1c27.9-5.9,27.9,12.6,27.9,12.6c0.6-6.8-0.8-12-1.8-14.8c-4.8-13.6-16.9-19.5-19.1-20.6c-4.3-2-4.8-1.2-11-3.7
		c-7.1-2.9-12.5-6.5-16-9.2c0,0-6.3-8.6,18.9-2.4c25.1,6.3,26.3-6.3,40.1-7.5c13.8-1.2,22.4,13.8,22.4,13.8
		c-0.4-1.7-3.7-14.7-16.6-20.8c-15.1-7.2-29.3,1.7-30,2.2c-2.9,0.6-8.5,1.3-15.1-0.5c-9-2.6-14.3-8.4-16.1-10.8c0,0,9,4.3,35-3.9
		c25.9-8.3,36.1-8.3,42.4-4.3c0,0-10.6-18.1-35-18.1c-24.4,0-38.9-5.1-42.4-9.4c0,0,7.9,0.1,15.4-8.1c7.7-8.5,9.4-12.1,16.1-13.9
		c6.7-1.8,9.7,2.5,18.4,0c4.8-1.3,7.9-3.7,8.9-4.5c6.5-5.2,8.3-12.3,8.8-15c-9.5,9.6-17.6,12-23.2,12.4c-5.7,0.4-9.2-1.2-16.1,0.7
		c-7,1.9-8.2,5.5-13.7,6.6c-9.8,2-22-3.9-22-3.9s30.7-8.6,39.7-28.7s22-14.5,24.8-8.3c2.8,6.3-4.3,6.3-6.7,3.5c0,0-0.4,7.5,9,7.5
		s16.5-18.1,7.1-23.2c0,0,19.3-1.2,19.3-18.9s16.5-15.7,16.5-15.7S509.6,77.8,502.9,91.6z M268.6,366.4
		c-78.5,0-142.2-63.7-142.2-142.2S190.1,81.9,268.6,81.9s142.2,63.7,142.2,142.2S347.2,366.4,268.6,366.4z"/>
</g>
<g display="none">
	<defs>
		<rect id="SVGID_1_" x="-126.4" y="-83.8" width="438" height="555.1"/>
	</defs>
	<clipPath id="SVGID_2_" display="inline">
		<use xlink:href="#SVGID_1_"  overflow="visible"/>
	</clipPath>
	<g transform="matrix(1 -8.881784e-16 8.881784e-16 1 0 0)" display="inline" clip-path="url(#SVGID_2_)">
		
			<image overflow="visible" width="3840" height="2160" xlink:href="32B9352BE14638B5.jpg"  transform="matrix(2.662532e-09 0.2233 -0.2233 2.662532e-09 341.3273 -174.3144)">
		</image>
	</g>
</g>
<g>
	<path d="M399.3,195.3c1.7-0.9,5.6-2.8,9.5-5.4c1.3,0.6,8.4,3.5,17.1,0.8c9.6-3.1,16-22.1,16-22.1s-11.4,23.4-29.1,18.4l-0.1,0.1
		c2.5-2.1,4.5-4.5,5.3-6.9c2.3-7.2,5.6-25.2-0.9-25.1s-20.1,10.6-21.1,21.4c0,0-0.8,3.5,10,11.5c0,0-8.7,8.5-14,3.7
		c-5.3-4.8-9.4-9.6-9.4-19.4c0,0,0.6-6.6-5.9-5.6c0,0-5.4,2.3-8.7,8c0,0,0.4-6.5,1.8-9c1.4-2.5,11.6-15.4,13.5-20.8
		c1.9-5.3,11.1-33.2,0.4-35.3c-10.8-2.2-13.9,15-14.1,20.1c-0.2,5-5,40.5-5,40.5s-14.4,24-29.5,27.3c0,0-8.9-6.2-4.8-18.9
		c2.7-8.3,4.5-15.1,5.5-19.5c13.2-3.5,24.9-6.4,24.9-6.4c-5,0-14.5,1-24.1,2.2c0-0.2,0.1-0.4,0.1-0.6c0.2-2.4,2.2-5.3,2.2-5.3
		s-3.1-7.9-9.3-10.1c-6.2-2.2-4.2,2.3-2.4,3.5c0,0,4.1,2,3.9,13.2c-11.7,1.6-22,3.2-22,3.2c-5.2,2.2-10.8,8.6-11.2,11.3
		c-0.4,2.7,3-0.1,3-0.1c4.4-2.3,17.2-6.1,29.9-9.5c-0.4,3.4-1.1,7.4-2.2,12.1c0,0-12.5,26.7-21.5,23.7c-9-3-14.2-10.8-14.6-12.1
		c0,0-3,10.1,11.3,19.4c0,0,6.1,3.3,21.4-16.3c0,0,0.7,14.1,8.1,13s21.4-10.5,29.4-21.8l-3,17.4c0,0,0.5,2.5,2,2.5
		c1.5,0,2.4-2.2,2.4-2.2l2.7-15.3c0,0,6.1-7.1,8.7-6.8c2.7,0.3,4.8,4.8,6.3,12.7c1.2,6.3,9.6,9.1,14.7,9c0.6-0.1,1.2-0.1,1.8-0.1
		C398.5,195.6,399,195.4,399.3,195.3z M413,168.9c0,0,7.9,2.8-2.8,16C410.1,184.9,399.6,178.4,413,168.9z M383.8,118.8
		c9,3.5-15.1,43.4-15.1,43.4S374.8,115.3,383.8,118.8z"/>
	<path d="M381.5,200.5c25.9-4.3,50.2-6.7,72.3-7.9c-21.3,0.6-40,1.8-55.7,3.1c-0.5,0.1-1.1,0.1-1.8,0.1c-9.1,0.8-17.2,1.6-24,2.3
		c-36.5,4-83.2,11.2-83.2,11.2s-11.9,7.8-10.4,16.8C307.9,216.3,342.4,207,381.5,200.5z"/>
	<path d="M466.6,272.1c7.3,0.3,14.5-14.2,14.5-14.2s-7.9,8.9-12.9,10.6c-5,1.7-10.9-7.9-11.2-16.8c-0.3-8.9,11.9-22.8,11.9-22.8
		l29.7-6.3c-1.7,0-14.5,0.4-27.7,0.7c1.4-3.3,4.4-10.8,4.6-12.6c0.3-2.3-6.9-10.6-12.2-10.6c0,0,3.3,5.9,3,11.6
		c-0.2,4-2.2,9.2-3.2,11.9c-12.4,0.4-23.2,0.7-23.2,0.7s-3.3,1-7.6,5c-4.3,4-3,6.3-3,6.3l30.7-5.6c-17.2,39.9-39.6,36-39.6,36
		c2.6-1,7.3-9.9,7.9-13.2c0.7-3.3-9.2-22.4-10.6-24.4c-1.3-2-3.6-1.3-3.6-1.3c2,12.9-10.9,41.3-21.8,39.3c-10.9-2-0.3-24.1-0.3-24.1
		l-5.6-7.9l-1.3,10.2c-2,18.2-18.8,24.4-18.8,24.4c-10.6-6.3,0-24.8-4-28.4c-4-3.6-14.5,11.2-14.5,11.2s1.7-7.9-2-11.6
		c-3.6-3.6-15.8,10.6-15.8,10.6s0-8.6-2.6-9.9c-2.6-1.3-10.2,6.6-23.8,23.4c-13.5,16.8-20.5,10.2-20.5,10.2
		c5.6-1.7,11.9-15.2,12.5-18.5c0.7-3.3-5-15.2-7.3-15.8c-2.3-0.7-13.5,10.2-16.8,18.2c-3.3,7.9,5.9,17.8,5.9,17.8
		c-13.9,4.3-15.2-14.2-16.5-17.5c-1.3-3.3-8.3,2.3-8.3,2.3c10.6-11.6,19.5-36,20.5-39.3c1-3.3-1-42.2-14.2-36.3
		c-13.2,5.9-13.2,78.6-13.9,80.2c-0.7,1.7-12.2,12.5-18.2,16.2c-5.9,3.6-6.9-1.7-7.6-7.3c-0.7-5.6,4.6-17.8,9.9-15.2
		c5.3,2.6,6.6,2,6.6,2c1.7-7.9-10.6-12.5-10.6-12.5s-5.3,2-12.2,15.5c-6.9,13.5-4,23.4-4,23.4c-13.9,8.6-18.2-1-18.2-1
		s5.6-0.7,15.5-33.7c9.9-33,5.6-56.8-2.3-57.1c-7.9-0.3-11.2,7.9-20.1,38.9c-8.9,31,0,53.1,0,53.1c-26.4,18.8-34.7-15.8-34.7-15.8
		s-16.6-55-16.6-79.5c0,0-9.7-19.3-22.6-23.2c-12.9-3.9,5.2,7.7,1.9,23.8c-1.2,6.1-6,29.1-13.8,58.1c-5.2,19.6-11.8,41.9-19.5,63.7
		c-24.2,4.3-39.5,7.1-39.5,7.1L7.2,348.5c4.8-3,30.5-9.3,65.6-17c-9.7,24.8-20.8,47.7-33.2,63.3c23.8-26.5,39.9-48.7,50.9-67.2
		c81.3-17.3,197.5-39.2,235.2-45.2c58.1-9.2,148.3-5.4,148.3-5.4s-43.5-4.9-124.4-1.1c-33.2,1.6-91.4,9.6-148.5,18.6
		c4.9-1.6,9.3-4.3,9.3-4.3c0.7,2.3,8.9,2,15.5-3c6.6-5,18.5-13.2,18.5-13.2s-1,3.6-1.3,8.9c-0.3,5.3,4.6,1.7,4.6,1.7
		c-0.7-10.6,7.6-16.8,8.9-17.2c1.3-0.3,8.3,8.9,12.2,11.6c4,2.6,10.9,0.3,10.9,0.3s2.6,1,6.3,1c3.6,0,8.9-3.3,11.2-4.6
		c2.3-1.3,22.4-23.1,22.4-23.1s4.6,5.9,2.6,10.9c-2,5-3.3,12.2-1.7,13.2c1.7,1,2.3,2.3,5.3-8.6c3-10.9,10.6-18.5,12.2-19.1
		s4.6,6.9,3,17.5c-1.7,10.6,1,9.2,1,9.2s5.3-13.2,8.3-19.1c3-5.9,5.9-3.6,5.9-3.6s4.3,18.8,9.9,18.8c5.6,0,18.5-14.9,18.5-14.9
		s-0.3,13.5,7.6,13.5c7.9,0,29-26.1,29-26.1c7.3,14.2-4,19.5-7.3,20.8c-3.3,1.3-1.3-0.7-6.9-1.3c-5.6-0.7-4.6,2.3-4.6,2.3
		s5,3.6,19.1,5.6c14.2,2,30.4-17.5,30.4-17.5C450.4,267.8,459.4,271.8,466.6,272.1z M200.3,226.3c12.3-11.2-11.2,56.5-11.2,56.5
		S188,237.5,200.3,226.3z M99.6,311.4c4.2-8.3,7.2-15.7,9.5-22.2c2-5.7,16.6-48.3,16.6-48.3l11.8,27.8c0,0,2.9,5.7,14.8,24.2
		c11.9,18.5,35.1-2.3,35.1-2.3c0.9,3.5,3.2,4.9,6.1,5.1C159.5,301.1,126.4,306.7,99.6,311.4z M261.3,211.8c2.8,0,3.9,20.7-2.2,30.2
		c-6.2,9.5-9.5,14.6-9.5,14.6S258.5,211.8,261.3,211.8z M282,262.6c4.3-7.6,7.6-9.3,7.6-9.3s4.5,6.7-1.4,12.8
		c-5.9,6.2-5.9,6.2-5.9,6.2S277.7,270.2,282,262.6z"/>
	<path d="M391.7,212.7c-1.7,0.3-8.6,11.6-3,19.8s19.1,0,19.1,0s-7.6,0.7-11.2-3c-3.6-3.6-2.3-7.9-2-12.5
		C395,212.4,393.3,212.4,391.7,212.7z"/>
</g>
</svg>
